STARTFONT 2.1
COMMENT
COMMENT Converted from OpenType font "TimesNewRomanPS-ItalicMT.otf" by "otf2bdf 3.0".
COMMENT
FONT -FreeType-Times New Roman-Medium-I-Normal--28-200-100-100-P-142-ISO10646-1
SIZE 20 100 100
FONTBOUNDINGBOX 45 37 -14 -9
STARTPROPERTIES 19
FOUNDRY "FreeType"
FAMILY_NAME "Times New Roman"
WEIGHT_NAME "Medium"
SLANT "I"
SETWIDTH_NAME "Normal"
ADD_STYLE_NAME ""
PIXEL_SIZE 28
POINT_SIZE 200
RESOLUTION_X 100
RESOLUTION_Y 100
SPACING "P"
AVERAGE_WIDTH 142
CHARSET_REGISTRY "ISO10646"
CHARSET_ENCODING "1"
FONT_ASCENT 24
FONT_DESCENT 6
COPYRIGHT "© 2006 The Monotype Corporation. All Rights Reserved."
_OTF_FONTFILE "TimesNewRomanPS-ItalicMT.otf"
_OTF_PSNAME "TimesNewRomanPS-ItalicMT"
ENDPROPERTIES
CHARS 943
STARTCHAR 0020
ENCODING 32
SWIDTH 252 0
DWIDTH 7 0
BBX 0 0 0 0
BITMAP
ENDCHAR
STARTCHAR 0021
ENCODING 33
SWIDTH 324 0
DWIDTH 9 0
BBX 7 19 2 0
BITMAP
06
06
0E
0C
0C
0C
08
18
18
10
10
20
20
20
00
00
00
E0
E0
ENDCHAR
STARTCHAR 0022
ENCODING 34
SWIDTH 432 0
DWIDTH 12 0
BBX 9 8 4 11
BITMAP
2100
7380
6300
E700
C600
C600
8400
8400
ENDCHAR
STARTCHAR 0023
ENCODING 35
SWIDTH 504 0
DWIDTH 14 0
BBX 13 19 2 0
BITMAP
0410
0430
0C20
0820
0820
0820
FFF8
1840
1040
1040
1040
10C0
FFF8
2080
2080
2080
2180
6100
4100
ENDCHAR
STARTCHAR 0024
ENCODING 36
SWIDTH 504 0
DWIDTH 14 0
BBX 13 21 1 -2
BITMAP
0040
07F0
0C98
1890
1890
1910
1D00
0F00
0F00
0380
03C0
02E0
0460
0460
4460
4460
4840
E8C0
7B00
1400
1000
ENDCHAR
STARTCHAR 0025
ENCODING 37
SWIDTH 828 0
DWIDTH 23 0
BBX 21 20 2 -1
BITMAP
0E0010
310020
610040
610080
C10100
C30200
C30400
C60800
461000
382000
0041E0
008310
010618
020618
040C18
080C30
100C30
200C60
400440
800380
ENDCHAR
STARTCHAR 0026
ENCODING 38
SWIDTH 792 0
DWIDTH 22 0
BBX 19 19 1 0
BITMAP
001C00
006600
004300
00C300
00C200
00C600
00D800
00F000
03C000
0CE3E0
38E180
306100
607200
607200
E03C00
E03800
701C00
787E00
3F87E0
ENDCHAR
STARTCHAR 0027
ENCODING 39
SWIDTH 216 0
DWIDTH 6 0
BBX 3 8 4 11
BITMAP
60
60
E0
C0
C0
80
80
80
ENDCHAR
STARTCHAR 0028
ENCODING 40
SWIDTH 324 0
DWIDTH 9 0
BBX 10 25 2 -6
BITMAP
0040
0080
0100
0200
0400
0800
1800
3000
3000
7000
6000
E000
E000
C000
C000
C000
C000
C000
C000
C000
4000
4000
4000
2000
2000
ENDCHAR
STARTCHAR 0029
ENCODING 41
SWIDTH 324 0
DWIDTH 9 0
BBX 10 25 -3 -6
BITMAP
0100
0100
0080
0080
00C0
0040
0040
0040
00C0
00C0
00C0
00C0
00C0
01C0
0180
0180
0300
0300
0600
0400
0800
1000
2000
4000
8000
ENDCHAR
STARTCHAR 002A
ENCODING 42
SWIDTH 504 0
DWIDTH 14 0
BBX 10 11 4 8
BITMAP
0C00
0C00
CCC0
E9C0
7B00
0C00
7B80
EDC0
0C80
0C00
0C00
ENDCHAR
STARTCHAR 002B
ENCODING 43
SWIDTH 684 0
DWIDTH 19 0
BBX 14 15 3 2
BITMAP
0200
0200
0200
0200
0200
0200
0200
FFFC
0200
0200
0200
0200
0200
0200
0200
ENDCHAR
STARTCHAR 002C
ENCODING 44
SWIDTH 252 0
DWIDTH 7 0
BBX 4 5 0 -3
BITMAP
70
70
20
20
C0
ENDCHAR
STARTCHAR 002D
ENCODING 45
SWIDTH 324 0
DWIDTH 9 0
BBX 7 2 1 5
BITMAP
FE
FE
ENDCHAR
STARTCHAR 002E
ENCODING 46
SWIDTH 252 0
DWIDTH 7 0
BBX 3 2 1 0
BITMAP
E0
E0
ENDCHAR
STARTCHAR 002F
ENCODING 47
SWIDTH 288 0
DWIDTH 8 0
BBX 10 19 0 0
BITMAP
0040
0040
0080
0180
0100
0300
0200
0600
0400
0800
0800
1000
1000
2000
2000
4000
4000
8000
8000
ENDCHAR
STARTCHAR 0030
ENCODING 48
SWIDTH 504 0
DWIDTH 14 0
BBX 12 19 2 0
BITMAP
0380
0C40
1860
1820
3030
3030
6030
6070
E070
E060
C060
C0E0
C0E0
C0C0
C1C0
C180
C100
4300
7C00
ENDCHAR
STARTCHAR 0031
ENCODING 49
SWIDTH 504 0
DWIDTH 14 0
BBX 10 19 2 0
BITMAP
00C0
0F80
0180
0180
0300
0300
0300
0600
0600
0600
0600
0C00
0C00
0C00
1800
1800
1800
3800
FE00
ENDCHAR
STARTCHAR 0032
ENCODING 50
SWIDTH 504 0
DWIDTH 14 0
BBX 13 19 0 0
BITMAP
01C0
03F0
0678
0838
0018
0018
0018
0030
0020
0060
0040
0080
0100
0200
0400
0800
1020
3FC0
FFC0
ENDCHAR
STARTCHAR 0033
ENCODING 51
SWIDTH 504 0
DWIDTH 14 0
BBX 12 19 1 0
BITMAP
01C0
07E0
0860
0070
0060
0060
00C0
0180
1F00
0780
01C0
00C0
00C0
00C0
00C0
0080
0180
E100
FC00
ENDCHAR
STARTCHAR 0034
ENCODING 52
SWIDTH 504 0
DWIDTH 14 0
BBX 12 18 1 0
BITMAP
0010
0030
0070
00E0
0160
0260
0460
08C0
18C0
30C0
6180
C180
FFE0
0300
0300
0300
0300
0600
ENDCHAR
STARTCHAR 0035
ENCODING 53
SWIDTH 504 0
DWIDTH 14 0
BBX 12 18 1 0
BITMAP
03F0
07F0
0400
0800
0E00
0F80
07C0
01C0
00C0
00C0
00C0
00C0
00C0
00C0
0080
0100
E200
FC00
ENDCHAR
STARTCHAR 0036
ENCODING 54
SWIDTH 504 0
DWIDTH 14 0
BBX 13 19 2 0
BITMAP
0018
00E0
0380
0700
0E00
1C00
3800
3F80
71C0
60C0
E0E0
C0E0
C0E0
C0E0
C0C0
C0C0
C180
4300
3E00
ENDCHAR
STARTCHAR 0037
ENCODING 55
SWIDTH 504 0
DWIDTH 14 0
BBX 11 18 3 0
BITMAP
3FE0
7FE0
4040
80C0
0080
0100
0100
0200
0600
0400
0C00
0800
1800
1000
2000
6000
4000
C000
ENDCHAR
STARTCHAR 0038
ENCODING 56
SWIDTH 504 0
DWIDTH 14 0
BBX 13 19 1 0
BITMAP
03C0
0430
0C10
0818
1C18
1C10
0E30
0E60
0780
0F80
11C0
20C0
60E0
C060
C060
C060
C040
6080
3F00
ENDCHAR
STARTCHAR 0039
ENCODING 57
SWIDTH 504 0
DWIDTH 14 0
BBX 13 19 1 0
BITMAP
01C0
0620
0C30
1810
3818
3018
3038
3038
3030
3070
3070
1CE0
0FE0
01C0
0380
0300
0600
1800
F000
ENDCHAR
STARTCHAR 003A
ENCODING 58
SWIDTH 324 0
DWIDTH 9 0
BBX 5 12 2 0
BITMAP
18
18
00
00
00
00
00
00
00
00
C0
C0
ENDCHAR
STARTCHAR 003B
ENCODING 59
SWIDTH 324 0
DWIDTH 9 0
BBX 6 15 1 -3
BITMAP
0C
0C
00
00
00
00
00
00
00
00
60
60
60
60
80
ENDCHAR
STARTCHAR 003C
ENCODING 60
SWIDTH 684 0
DWIDTH 19 0
BBX 15 13 2 3
BITMAP
0002
001C
0070
01C0
0E00
3800
E000
7000
1C00
0300
00E0
0038
000E
ENDCHAR
STARTCHAR 003D
ENCODING 61
SWIDTH 684 0
DWIDTH 19 0
BBX 14 6 3 6
BITMAP
FFFC
0000
0000
0000
FFFC
FFFC
ENDCHAR
STARTCHAR 003E
ENCODING 62
SWIDTH 684 0
DWIDTH 19 0
BBX 15 13 2 3
BITMAP
8000
E000
1C00
0700
01C0
0030
000E
001C
0070
0380
0E00
3800
C000
ENDCHAR
STARTCHAR 003F
ENCODING 63
SWIDTH 504 0
DWIDTH 14 0
BBX 10 19 3 0
BITMAP
1E00
2180
6180
60C0
01C0
0180
0380
0700
0600
0800
1000
2000
2000
4000
0000
0000
0000
C000
C000
ENDCHAR
STARTCHAR 0040
ENCODING 64
SWIDTH 936 0
DWIDTH 26 0
BBX 24 25 1 -6
BITMAP
007F80
018060
060010
0C0008
180004
300004
201EC2
6022C2
406182
40C182
418182
C18302
C30304
C30304
C30708
430E08
431610
43E761
208182
200002
100004
080008
040030
0300C0
00FF00
ENDCHAR
STARTCHAR 0041
ENCODING 65
SWIDTH 612 0
DWIDTH 17 0
BBX 16 18 -1 1
BITMAP
0002
0006
000E
000E
0016
002E
006E
004E
008C
010C
010C
03FC
040C
080C
080C
101C
301C
F87F
ENDCHAR
STARTCHAR 0042
ENCODING 66
SWIDTH 612 0
DWIDTH 17 0
BBX 16 18 0 0
BITMAP
07FE
0387
0303
0303
0303
0707
060E
063C
0FF0
0C1C
0C1C
1C0E
180E
180E
181C
381C
3078
FFE0
ENDCHAR
STARTCHAR 0043
ENCODING 67
SWIDTH 684 0
DWIDTH 19 0
BBX 17 19 2 0
BITMAP
007C00
018380
060180
0C0180
180080
380100
700000
700000
600000
E00000
E00000
E00000
E00000
E00000
E00000
700200
700400
381800
1FE000
ENDCHAR
STARTCHAR 0044
ENCODING 68
SWIDTH 720 0
DWIDTH 20 0
BBX 21 18 -1 0
BITMAP
03FF80
01C1C0
0180E0
018070
038070
030030
030038
070038
070030
060070
060070
0E0070
0C00E0
0C00C0
1C0180
1C0300
1C0E00
FFF000
ENDCHAR
STARTCHAR 0045
ENCODING 69
SWIDTH 612 0
DWIDTH 17 0
BBX 17 18 0 0
BITMAP
07FF80
038180
030080
030080
030000
070000
060800
061800
0FF000
0C1000
0C1000
1C0000
1C0000
180200
180200
380400
381C00
FFFC00
ENDCHAR
STARTCHAR 0046
ENCODING 70
SWIDTH 612 0
DWIDTH 17 0
BBX 19 18 -1 0
BITMAP
03FFE0
01C060
018020
018040
038000
038200
030200
030C00
07FC00
060C00
060800
0E0800
0E0000
0C0000
0C0000
1C0000
1C0000
FF0000
ENDCHAR
STARTCHAR 0047
ENCODING 71
SWIDTH 720 0
DWIDTH 20 0
BBX 18 19 2 0
BITMAP
007C40
0383C0
060180
0C0080
180080
380080
700000
700000
E00000
E00000
E01FC0
E00700
E00600
E00E00
E00E00
700C00
700C00
381C00
0FF800
ENDCHAR
STARTCHAR 0048
ENCODING 72
SWIDTH 720 0
DWIDTH 20 0
BBX 23 18 -1 0
BITMAP
03F0FE
01C038
018030
018030
038070
038060
030060
0300E0
07FFE0
0600C0
0600C0
0E01C0
0C0180
0C0180
0C0380
1C0380
1C0300
FF1FE0
ENDCHAR
STARTCHAR 0049
ENCODING 73
SWIDTH 324 0
DWIDTH 9 0
BBX 12 18 -1 0
BITMAP
03F0
01C0
0180
0180
0380
0380
0300
0300
0700
0600
0600
0E00
0E00
0C00
0C00
1C00
1C00
FF00
ENDCHAR
STARTCHAR 004A
ENCODING 74
SWIDTH 432 0
DWIDTH 12 0
BBX 16 18 -1 0
BITMAP
007F
001C
0018
0038
0038
0030
0030
0070
0060
0060
00E0
00E0
00C0
00C0
6180
E180
E300
7E00
ENDCHAR
STARTCHAR 004B
ENCODING 75
SWIDTH 684 0
DWIDTH 19 0
BBX 21 18 -1 0
BITMAP
03F0F8
01C0C0
018180
018200
038C00
031800
032000
03C000
07C000
06E000
067000
0E3000
0C3800
0C1C00
1C0C00
1C0E00
1C0F00
FF1FE0
ENDCHAR
STARTCHAR 004C
ENCODING 76
SWIDTH 540 0
DWIDTH 15 0
BBX 15 18 -1 0
BITMAP
07F0
01C0
0180
0180
0380
0300
0300
0700
0700
0600
0600
0E00
0C00
0C02
1C02
1C06
1C0C
FFFC
ENDCHAR
STARTCHAR 004D
ENCODING 77
SWIDTH 828 0
DWIDTH 23 0
BBX 26 18 -1 0
BITMAP
03C003C0
01C00700
01C00F00
01C01E00
02C01E00
02C02E00
02E04C00
02E0CC00
04E09C00
04611800
04631800
08623800
08643800
08683000
08783000
10707000
10607000
FC43FC00
ENDCHAR
STARTCHAR 004E
ENCODING 78
SWIDTH 684 0
DWIDTH 19 0
BBX 22 18 -1 0
BITMAP
07807C
01C020
01C020
01E020
02E040
026040
027040
023040
043080
043880
041880
081D00
080D00
080D00
080F00
100600
100600
FC0200
ENDCHAR
STARTCHAR 004F
ENCODING 79
SWIDTH 720 0
DWIDTH 20 0
BBX 18 19 2 0
BITMAP
007C00
018700
060380
0C0180
1C01C0
3801C0
3001C0
7001C0
6001C0
E001C0
E00380
E00380
E00300
C00700
E00E00
E00C00
601800
703000
3FC000
ENDCHAR
STARTCHAR 0050
ENCODING 80
SWIDTH 612 0
DWIDTH 17 0
BBX 18 18 -1 0
BITMAP
03FF00
01C1C0
01C1C0
0180C0
0180C0
0381C0
030180
030380
07DE00
072000
060000
0E0000
0E0000
0C0000
0C0000
1C0000
1C0000
FF0000
ENDCHAR
STARTCHAR 0051
ENCODING 81
SWIDTH 720 0
DWIDTH 20 0
BBX 18 25 2 -6
BITMAP
007C00
018700
060380
0C0180
1C01C0
3801C0
3001C0
7001C0
6001C0
E001C0
E00380
E00380
E00300
C00700
E00E00
E00C00
601800
703000
3DC000
060000
180000
300100
7E0200
FFFC00
03E000
ENDCHAR
STARTCHAR 0052
ENCODING 82
SWIDTH 612 0
DWIDTH 17 0
BBX 17 18 -1 0
BITMAP
03FE00
01C300
018380
018380
038380
030380
030700
030E00
07F800
063000
063000
0E3800
0C1800
0C1800
0C1C00
1C0C00
1C0E00
FF0F80
ENDCHAR
STARTCHAR 0053
ENCODING 83
SWIDTH 504 0
DWIDTH 14 0
BBX 15 19 0 0
BITMAP
01E2
071E
060E
0C04
0C04
0E04
0E00
0700
0780
03C0
01E0
00F0
0070
4030
4030
4030
6030
7060
DFC0
ENDCHAR
STARTCHAR 0054
ENCODING 84
SWIDTH 540 0
DWIDTH 15 0
BBX 16 18 2 0
BITMAP
3FFF
21C2
4182
4182
0382
0300
0300
0700
0700
0600
0600
0E00
0C00
0C00
1C00
1C00
1C00
FF00
ENDCHAR
STARTCHAR 0055
ENCODING 85
SWIDTH 720 0
DWIDTH 20 0
BBX 19 18 3 0
BITMAP
7F03E0
180080
180080
380100
300100
300100
700200
700200
600200
600400
E00400
C00400
C00400
C00800
E00800
601000
702000
3FC000
ENDCHAR
STARTCHAR 0056
ENCODING 86
SWIDTH 612 0
DWIDTH 17 0
BBX 16 18 4 0
BITMAP
FC1F
3008
3010
3010
3020
7040
7080
7080
7100
6200
6600
6400
6800
7000
7000
E000
C000
8000
ENDCHAR
STARTCHAR 0057
ENCODING 87
SWIDTH 828 0
DWIDTH 23 0
BBX 22 18 4 0
BITMAP
FCFC7C
703030
707020
707040
70F080
60F080
617100
626300
626200
646400
686C00
E86800
F07000
E0F000
E0E000
C0C000
80C000
808000
ENDCHAR
STARTCHAR 0058
ENCODING 88
SWIDTH 612 0
DWIDTH 17 0
BBX 22 18 -2 0
BITMAP
01F07C
00E020
006040
006080
007100
007200
003400
003800
003800
003800
005800
009C00
011C00
020C00
040C00
080E00
180E00
FC3FC0
ENDCHAR
STARTCHAR 0059
ENCODING 89
SWIDTH 540 0
DWIDTH 15 0
BBX 15 18 3 0
BITMAP
7E3E
3818
1810
1820
1C60
0C40
0C80
0D00
0F00
0600
0E00
0C00
0C00
1C00
1800
1800
3800
FE00
ENDCHAR
STARTCHAR 005A
ENCODING 90
SWIDTH 540 0
DWIDTH 15 0
BBX 17 18 0 0
BITMAP
0FFF80
080700
100E00
001C00
003800
003800
007000
00E000
01C000
038000
038000
070000
0E0000
1C0200
380400
380400
701C00
FFF800
ENDCHAR
STARTCHAR 005B
ENCODING 91
SWIDTH 396 0
DWIDTH 11 0
BBX 13 25 0 -6
BITMAP
01F8
0180
0180
0300
0300
0300
0600
0600
0600
0600
0C00
0C00
0C00
1800
1800
1800
1800
3000
3000
3000
6000
6000
6000
C000
FC00
ENDCHAR
STARTCHAR 005C
ENCODING 92
SWIDTH 288 0
DWIDTH 8 0
BBX 3 19 3 0
BITMAP
80
80
80
80
40
40
40
40
40
40
40
40
20
20
20
20
20
20
20
ENDCHAR
STARTCHAR 005D
ENCODING 93
SWIDTH 396 0
DWIDTH 11 0
BBX 13 25 -3 -6
BITMAP
01F8
0018
0030
0030
0030
0030
0060
0060
0060
00C0
00C0
00C0
00C0
0180
0180
0180
0300
0300
0300
0600
0600
0600
0600
0C00
FC00
ENDCHAR
STARTCHAR 005E
ENCODING 94
SWIDTH 432 0
DWIDTH 12 0
BBX 12 10 1 9
BITMAP
0400
0600
0A00
0900
1180
3080
20C0
4040
4020
8030
ENDCHAR
STARTCHAR 005F
ENCODING 95
SWIDTH 504 0
DWIDTH 14 0
BBX 14 1 0 -6
BITMAP
FFFC
ENDCHAR
STARTCHAR 0060
ENCODING 96
SWIDTH 324 0
DWIDTH 9 0
BBX 4 4 5 14
BITMAP
E0
60
30
10
ENDCHAR
STARTCHAR 0061
ENCODING 97
SWIDTH 504 0
DWIDTH 14 0
BBX 12 12 1 0
BITMAP
07B0
0870
3060
3060
6060
60C0
C0C0
C1C0
C1C0
C390
EDA0
F1C0
ENDCHAR
STARTCHAR 0062
ENCODING 98
SWIDTH 504 0
DWIDTH 14 0
BBX 12 19 1 0
BITMAP
3E00
0E00
0C00
0C00
0C00
1800
1800
1BE0
3C70
3830
3030
3030
6030
6060
6060
C040
C0C0
C100
7E00
ENDCHAR
STARTCHAR 0063
ENCODING 99
SWIDTH 432 0
DWIDTH 12 0
BBX 11 12 1 0
BITMAP
07C0
1860
30E0
6040
6000
C000
C000
C000
C000
C080
E100
7E00
ENDCHAR
STARTCHAR 0064
ENCODING 100
SWIDTH 504 0
DWIDTH 14 0
BBX 14 19 1 0
BITMAP
007C
0018
0018
0018
0018
0030
0030
07B0
1860
3060
3060
6060
C0C0
C0C0
C1C0
C380
C590
E9A0
F1C0
ENDCHAR
STARTCHAR 0065
ENCODING 101
SWIDTH 432 0
DWIDTH 12 0
BBX 11 12 1 0
BITMAP
07C0
1860
3060
20C0
6180
E700
F800
C000
C000
E040
F180
7E00
ENDCHAR
STARTCHAR 0066
ENCODING 102
SWIDTH 288 0
DWIDTH 8 0
BBX 18 25 -5 -6
BITMAP
0007C0
000CC0
001800
001000
003000
003000
006000
01F800
006000
00E000
00C000
00C000
00C000
01C000
018000
018000
018000
030000
030000
030000
020000
060000
040000
C80000
700000
ENDCHAR
STARTCHAR 0067
ENCODING 103
SWIDTH 504 0
DWIDTH 14 0
BBX 15 18 -1 -6
BITMAP
03F0
0C3E
1C18
1818
1838
1830
1870
0FC0
0400
0800
1C00
1FC0
23F0
4038
C018
C010
6020
1FC0
ENDCHAR
STARTCHAR 0068
ENCODING 104
SWIDTH 504 0
DWIDTH 14 0
BBX 12 19 1 0
BITMAP
3E00
0E00
0C00
0C00
0C00
1800
1800
18E0
1960
3260
3460
3860
70C0
70C0
60C0
61C0
C190
C1A0
C1C0
ENDCHAR
STARTCHAR 0069
ENCODING 105
SWIDTH 288 0
DWIDTH 8 0
BBX 7 18 1 0
BITMAP
04
0E
0C
00
00
00
78
18
18
30
30
30
60
60
60
68
D0
E0
ENDCHAR
STARTCHAR 006A
ENCODING 106
SWIDTH 288 0
DWIDTH 8 0
BBX 13 24 -5 -6
BITMAP
0010
0038
0030
0000
0000
0000
01E0
0060
0060
00C0
00C0
00C0
00C0
0180
0180
0180
0300
0300
0300
0700
0600
0400
CC00
7000
ENDCHAR
STARTCHAR 006B
ENCODING 107
SWIDTH 432 0
DWIDTH 12 0
BBX 13 19 0 0
BITMAP
1F00
0600
0600
0600
0E00
0C00
0C00
0DF8
1840
1880
1900
3A00
3700
3B00
3300
6300
6190
61A0
E1C0
ENDCHAR
STARTCHAR 006C
ENCODING 108
SWIDTH 288 0
DWIDTH 8 0
BBX 7 19 1 0
BITMAP
1E
06
0C
0C
0C
0C
18
18
18
30
30
30
30
60
60
60
C8
D0
E0
ENDCHAR
STARTCHAR 006D
ENCODING 109
SWIDTH 720 0
DWIDTH 20 0
BBX 18 12 1 0
BITMAP
79E380
33E580
346980
38D180
38E180
70E300
61C300
61C300
E18300
C18640
C30680
C30700
ENDCHAR
STARTCHAR 006E
ENCODING 110
SWIDTH 504 0
DWIDTH 14 0
BBX 12 12 1 0
BITMAP
78E0
3960
3260
3460
3860
70C0
70C0
60C0
61C0
C190
C1A0
C1C0
ENDCHAR
STARTCHAR 006F
ENCODING 111
SWIDTH 504 0
DWIDTH 14 0
BBX 12 12 1 0
BITMAP
07C0
1860
3030
7030
6030
E070
C060
C060
C0C0
C0C0
C180
7E00
ENDCHAR
STARTCHAR 0070
ENCODING 112
SWIDTH 504 0
DWIDTH 14 0
BBX 16 18 -3 -6
BITMAP
0F9E
03E7
0383
0383
0303
0707
0606
0606
060C
0C08
0C18
0F60
1880
1800
1800
1800
3000
FC00
ENDCHAR
STARTCHAR 0071
ENCODING 113
SWIDTH 504 0
DWIDTH 14 0
BBX 12 18 1 -6
BITMAP
07B0
1870
3060
3060
6060
E0C0
C0C0
C1C0
C2C0
C380
ED80
F980
0300
0300
0300
0300
0600
1F80
ENDCHAR
STARTCHAR 0072
ENCODING 114
SWIDTH 396 0
DWIDTH 11 0
BBX 10 12 1 0
BITMAP
F8C0
39C0
32C0
3400
3800
7000
7000
6000
6000
C000
C000
C000
ENDCHAR
STARTCHAR 0073
ENCODING 115
SWIDTH 396 0
DWIDTH 11 0
BBX 10 12 0 0
BITMAP
0FC0
10C0
1040
1800
1C00
0E00
0F00
0700
8300
8300
C300
FE00
ENDCHAR
STARTCHAR 0074
ENCODING 116
SWIDTH 288 0
DWIDTH 8 0
BBX 7 15 1 1
BITMAP
04
0C
18
7E
18
30
30
30
30
60
60
60
C8
D0
E0
ENDCHAR
STARTCHAR 0075
ENCODING 117
SWIDTH 504 0
DWIDTH 14 0
BBX 12 12 1 0
BITMAP
3830
F830
B060
3060
3060
70C0
61C0
62C0
62C0
C590
E9A0
F1C0
ENDCHAR
STARTCHAR 0076
ENCODING 118
SWIDTH 432 0
DWIDTH 12 0
BBX 11 12 1 0
BITMAP
F060
3060
3020
3820
1840
1840
1880
1900
1A00
1C00
1800
1000
ENDCHAR
STARTCHAR 0077
ENCODING 119
SWIDTH 684 0
DWIDTH 19 0
BBX 17 12 1 0
BITMAP
F02180
306180
30E080
30E080
316100
326100
126200
146400
1C6400
183800
103000
102000
ENDCHAR
STARTCHAR 0078
ENCODING 120
SWIDTH 432 0
DWIDTH 12 0
BBX 13 12 -1 0
BITMAP
3C38
0678
0680
0780
0300
0300
0300
0780
0980
0990
D1A0
E1C0
ENDCHAR
STARTCHAR 0079
ENCODING 121
SWIDTH 432 0
DWIDTH 12 0
BBX 14 18 -2 -6
BITMAP
1E0C
060C
0604
0604
0608
0308
0310
0320
0340
0340
0380
0300
0200
0400
0400
0800
F000
C000
ENDCHAR
STARTCHAR 007A
ENCODING 122
SWIDTH 396 0
DWIDTH 11 0
BBX 12 12 -1 0
BITMAP
1FF0
1FE0
2040
0080
0100
0200
0400
0800
1000
2040
7FC0
FF80
ENDCHAR
STARTCHAR 007B
ENCODING 123
SWIDTH 396 0
DWIDTH 11 0
BBX 11 25 2 -6
BITMAP
0060
0180
0200
0600
0600
0E00
0E00
0C00
0C00
0800
1000
2000
C000
2000
3000
3000
3000
7000
6000
E000
C000
C000
C000
4000
3000
ENDCHAR
STARTCHAR 007C
ENCODING 124
SWIDTH 288 0
DWIDTH 8 0
BBX 1 25 3 -6
BITMAP
80
80
80
80
80
80
80
80
80
80
80
80
80
80
80
80
80
80
80
80
80
80
80
80
80
ENDCHAR
STARTCHAR 007D
ENCODING 125
SWIDTH 396 0
DWIDTH 11 0
BBX 11 25 -2 -6
BITMAP
0080
0040
0060
0060
0060
00E0
00C0
01C0
0180
0180
0080
0040
0020
00C0
0300
0600
0600
0600
0E00
0E00
0C00
0C00
1800
3000
C000
ENDCHAR
STARTCHAR 007E
ENCODING 126
SWIDTH 540 0
DWIDTH 15 0
BBX 15 4 0 5
BITMAP
3C02
4784
80FC
8010
ENDCHAR
STARTCHAR 00A0
ENCODING 160
SWIDTH 252 0
DWIDTH 7 0
BBX 0 0 0 0
BITMAP
ENDCHAR
STARTCHAR 00A1
ENCODING 161
SWIDTH 396 0
DWIDTH 11 0
BBX 7 19 2 -6
BITMAP
0E
0E
00
00
00
08
10
10
10
10
30
20
20
60
60
60
E0
C0
C0
ENDCHAR
STARTCHAR 00A2
ENCODING 162
SWIDTH 504 0
DWIDTH 14 0
BBX 11 23 2 -5
BITMAP
0080
0080
0080
0100
0100
0100
06C0
1A60
32E0
64C0
6400
C400
C400
C800
C800
C880
F100
7E00
1000
2000
2000
2000
2000
ENDCHAR
STARTCHAR 00A3
ENCODING 163
SWIDTH 504 0
DWIDTH 14 0
BBX 14 19 1 0
BITMAP
0070
0098
011C
0308
0300
0700
0600
0600
0E00
7FC0
0C00
0C00
0C00
0C00
0800
1800
FC10
9FE0
E7C0
ENDCHAR
STARTCHAR 00A4
ENCODING 164
SWIDTH 504 0
DWIDTH 14 0
BBX 13 13 1 3
BITMAP
0008
4FD8
3070
2030
4010
4008
4008
4008
4018
6010
3020
7CD0
C708
ENDCHAR
STARTCHAR 00A5
ENCODING 165
SWIDTH 504 0
DWIDTH 14 0
BBX 17 18 0 0
BITMAP
1F8F80
0E0200
060400
060800
071800
031000
032000
03C000
7FFE00
018000
038000
030000
FFFC00
070000
060000
060000
0E0000
3F8000
ENDCHAR
STARTCHAR 00A6
ENCODING 166
SWIDTH 288 0
DWIDTH 8 0
BBX 1 25 3 -6
BITMAP
80
80
80
80
80
80
80
80
80
80
00
00
00
00
00
80
80
80
80
80
80
80
80
80
80
ENDCHAR
STARTCHAR 00A7
ENCODING 167
SWIDTH 504 0
DWIDTH 14 0
BBX 14 25 0 -6
BITMAP
00F0
010C
020C
020C
0200
0200
0300
0180
07C0
08E0
1060
1030
1030
1830
0C20
0E60
0780
0300
0180
0180
0180
C100
C100
6200
1C00
ENDCHAR
STARTCHAR 00A8
ENCODING 168
SWIDTH 324 0
DWIDTH 9 0
BBX 7 3 4 15
BITMAP
C6
EE
C4
ENDCHAR
STARTCHAR 00A9
ENCODING 169
SWIDTH 756 0
DWIDTH 21 0
BBX 19 19 2 0
BITMAP
01F000
060C00
180300
200080
41FCC0
460440
8C0420
8C0020
9C0020
9C0020
9C0020
8C0020
8C0020
4E0240
470C40
21F080
100100
080200
07FC00
ENDCHAR
STARTCHAR 00AA
ENCODING 170
SWIDTH 288 0
DWIDTH 8 0
BBX 8 8 2 11
BITMAP
0D
13
23
42
42
C6
DF
66
ENDCHAR
STARTCHAR 00AB
ENCODING 171
SWIDTH 504 0
DWIDTH 14 0
BBX 12 12 1 0
BITMAP
0210
0420
0840
10C0
3180
6300
E300
6300
6100
2180
3080
1080
ENDCHAR
STARTCHAR 00AC
ENCODING 172
SWIDTH 684 0
DWIDTH 19 0
BBX 15 6 2 6
BITMAP
FFFE
0002
0002
0002
0002
0002
ENDCHAR
STARTCHAR 00AD
ENCODING 173
SWIDTH 324 0
DWIDTH 9 0
BBX 7 2 1 5
BITMAP
FE
FE
ENDCHAR
STARTCHAR 00AE
ENCODING 174
SWIDTH 756 0
DWIDTH 21 0
BBX 19 19 2 0
BITMAP
01F000
060C00
180300
200080
47F0C0
461840
861820
861820
861820
86F020
876020
867020
863020
461840
460C40
2F8E80
100100
080200
07FC00
ENDCHAR
STARTCHAR 00AF
ENCODING 175
SWIDTH 504 0
DWIDTH 14 0
BBX 14 1 3 20
BITMAP
FFFC
ENDCHAR
STARTCHAR 00B0
ENCODING 176
SWIDTH 396 0
DWIDTH 11 0
BBX 8 8 3 10
BITMAP
1C
66
C3
81
81
81
C3
7E
ENDCHAR
STARTCHAR 00B1
ENCODING 177
SWIDTH 540 0
DWIDTH 15 0
BBX 14 15 1 2
BITMAP
0300
0300
0300
0300
0300
0300
0300
FFFC
0300
0300
0300
0300
0300
0300
FFFC
ENDCHAR
STARTCHAR 00B2
ENCODING 178
SWIDTH 288 0
DWIDTH 8 0
BBX 7 10 2 9
BITMAP
1C
3E
06
02
04
0C
10
20
44
F8
ENDCHAR
STARTCHAR 00B3
ENCODING 179
SWIDTH 288 0
DWIDTH 8 0
BBX 7 10 2 9
BITMAP
1C
26
06
04
38
0C
0C
04
0C
F0
ENDCHAR
STARTCHAR 00B4
ENCODING 180
SWIDTH 324 0
DWIDTH 9 0
BBX 4 4 6 14
BITMAP
70
E0
C0
80
ENDCHAR
STARTCHAR 00B5
ENCODING 181
SWIDTH 576 0
DWIDTH 16 0
BBX 15 18 -1 -6
BITMAP
0306
0306
060C
060C
060C
0C18
0C18
0C18
1C38
1870
1CB2
1F3C
2000
2000
6000
6000
E000
4000
ENDCHAR
STARTCHAR 00B6
ENCODING 182
SWIDTH 540 0
DWIDTH 15 0
BBX 13 24 1 -6
BITMAP
1FF8
3F20
7F20
7F20
FF20
FF20
7F20
7F20
3F20
0F20
0120
0120
0120
0120
0120
0120
0120
0120
0120
0120
0120
0120
0120
0120
ENDCHAR
STARTCHAR 00B7
ENCODING 183
SWIDTH 252 0
DWIDTH 7 0
BBX 3 3 2 8
BITMAP
40
E0
E0
ENDCHAR
STARTCHAR 00B8
ENCODING 184
SWIDTH 324 0
DWIDTH 9 0
BBX 5 5 0 -5
BITMAP
20
30
18
10
E0
ENDCHAR
STARTCHAR 00B9
ENCODING 185
SWIDTH 288 0
DWIDTH 8 0
BBX 5 10 3 9
BITMAP
08
18
18
10
30
30
20
60
60
E0
ENDCHAR
STARTCHAR 00BA
ENCODING 186
SWIDTH 324 0
DWIDTH 9 0
BBX 8 8 3 11
BITMAP
1E
23
63
C3
C3
C6
C4
38
ENDCHAR
STARTCHAR 00BB
ENCODING 187
SWIDTH 504 0
DWIDTH 14 0
BBX 12 12 1 0
BITMAP
1080
1080
18C0
1840
0C60
0C70
0C60
18C0
3180
2100
4200
8400
ENDCHAR
STARTCHAR 00BC
ENCODING 188
SWIDTH 756 0
DWIDTH 21 0
BBX 16 20 3 -1
BITMAP
0802
1804
180C
1008
3010
3030
2020
6040
60C0
E080
0101
0303
0207
040A
0416
0826
107F
100C
200C
6008
ENDCHAR
STARTCHAR 00BD
ENCODING 189
SWIDTH 756 0
DWIDTH 21 0
BBX 16 20 3 -1
BITMAP
0804
180C
1808
1010
3030
3020
2040
60C0
6080
E100
031E
0223
0403
0403
0802
1004
1008
2030
407E
40FC
ENDCHAR
STARTCHAR 00BE
ENCODING 190
SWIDTH 756 0
DWIDTH 21 0
BBX 17 20 2 -1
BITMAP
1C0300
260200
060400
040400
380800
0C1000
0C1000
042000
0C4000
F04000
008080
018180
010380
020500
060B00
041300
083F80
180600
100600
200400
ENDCHAR
STARTCHAR 00BF
ENCODING 191
SWIDTH 504 0
DWIDTH 14 0
BBX 10 19 1 -6
BITMAP
01C0
01C0
0000
0000
0000
0100
0100
0100
0200
0400
1800
3000
7000
E000
C000
C180
C180
6100
3E00
ENDCHAR
STARTCHAR 00C0
ENCODING 192
SWIDTH 612 0
DWIDTH 17 0
BBX 17 24 -1 0
BITMAP
000700
000300
000180
000080
000000
000000
000200
000600
000E00
000E00
001600
002E00
006E00
004E00
008C00
010C00
010C00
03FC00
040C00
080C00
080C00
101C00
301C00
F87F00
ENDCHAR
STARTCHAR 00C1
ENCODING 193
SWIDTH 612 0
DWIDTH 17 0
BBX 18 24 -1 0
BITMAP
0001C0
000180
000300
000200
000000
000000
000200
000600
000E00
000E00
001600
002E00
006E00
004E00
008C00
010C00
010C00
03FC00
040C00
080C00
080C00
101C00
301C00
F87F00
ENDCHAR
STARTCHAR 00C2
ENCODING 194
SWIDTH 612 0
DWIDTH 17 0
BBX 18 24 -1 0
BITMAP
000180
0003C0
0004C0
000840
000000
000000
000200
000600
000E00
000E00
001600
002E00
006E00
004E00
008C00
010C00
010C00
03FC00
040C00
080C00
080C00
101C00
301C00
F87F00
ENDCHAR
STARTCHAR 00C3
ENCODING 195
SWIDTH 612 0
DWIDTH 17 0
BBX 20 24 -1 0
BITMAP
000410
000F20
0013E0
0001C0
000000
000000
000200
000600
000E00
000E00
001600
002E00
006E00
004E00
008C00
010C00
010C00
03FC00
040C00
080C00
080C00
101C00
301C00
F87F00
ENDCHAR
STARTCHAR 00C4
ENCODING 196
SWIDTH 612 0
DWIDTH 17 0
BBX 20 23 -1 0
BITMAP
000E60
000E70
000420
000000
000000
000200
000600
000E00
000E00
001600
002E00
006E00
004E00
008C00
010C00
010C00
03FC00
040C00
080C00
080C00
101C00
301C00
F87F00
ENDCHAR
STARTCHAR 00C5
ENCODING 197
SWIDTH 612 0
DWIDTH 17 0
BBX 18 23 -1 0
BITMAP
000780
000440
000440
000480
000300
000200
000600
000E00
000E00
001600
002E00
006E00
004E00
008C00
010C00
010C00
03FC00
040C00
080C00
080C00
101C00
301C00
F87F00
ENDCHAR
STARTCHAR 00C6
ENCODING 198
SWIDTH 900 0
DWIDTH 25 0
BBX 26 18 -1 0
BITMAP
0007FFC0
0002C0C0
0005C040
00098080
00098000
00138400
00238400
00431800
0083F800
00870800
01FE0800
02060000
040E0000
080E0100
080C0200
100C0600
301C0E00
F87FFC00
ENDCHAR
STARTCHAR 00C7
ENCODING 199
SWIDTH 684 0
DWIDTH 19 0
BBX 17 24 2 -5
BITMAP
007C00
018380
060180
0C0180
180080
380100
700000
700000
600000
E00000
E00000
E00000
E00000
E00000
E00000
700200
700400
381800
1FE000
020000
038000
018000
018000
0F0000
ENDCHAR
STARTCHAR 00C8
ENCODING 200
SWIDTH 612 0
DWIDTH 17 0
BBX 17 24 0 0
BITMAP
003000
001800
000800
000800
000000
000000
07FF80
038180
030080
030080
030000
070000
060800
061800
0FF000
0C1000
0C1000
1C0000
1C0000
180200
180200
380400
381C00
FFFC00
ENDCHAR
STARTCHAR 00C9
ENCODING 201
SWIDTH 612 0
DWIDTH 17 0
BBX 17 24 0 0
BITMAP
001800
003000
002000
002000
000000
000000
07FF80
038180
030080
030080
030000
070000
060800
061800
0FF000
0C1000
0C1000
1C0000
1C0000
180200
180200
380400
381C00
FFFC00
ENDCHAR
STARTCHAR 00CA
ENCODING 202
SWIDTH 612 0
DWIDTH 17 0
BBX 17 24 0 0
BITMAP
000C00
001E00
002600
004200
000000
000000
07FF80
038180
030080
030080
030000
070000
060800
061800
0FF000
0C1000
0C1000
1C0000
1C0000
180200
180200
380400
381C00
FFFC00
ENDCHAR
STARTCHAR 00CB
ENCODING 203
SWIDTH 612 0
DWIDTH 17 0
BBX 17 23 0 0
BITMAP
00E700
00E700
004200
000000
000000
07FF80
038180
030080
030080
030000
070000
060800
061800
0FF000
0C1000
0C1000
1C0000
1C0000
180200
180200
380400
381C00
FFFC00
ENDCHAR
STARTCHAR 00CC
ENCODING 204
SWIDTH 324 0
DWIDTH 9 0
BBX 12 24 -1 0
BITMAP
00C0
0060
0020
0020
0000
0000
03F0
01C0
0180
0180
0380
0380
0300
0300
0700
0600
0600
0E00
0E00
0C00
0C00
1C00
1C00
FF00
ENDCHAR
STARTCHAR 00CD
ENCODING 205
SWIDTH 324 0
DWIDTH 9 0
BBX 12 24 -1 0
BITMAP
0070
0060
00C0
0080
0000
0000
03F0
01C0
0180
0180
0380
0380
0300
0300
0700
0600
0600
0E00
0E00
0C00
0C00
1C00
1C00
FF00
ENDCHAR
STARTCHAR 00CE
ENCODING 206
SWIDTH 324 0
DWIDTH 9 0
BBX 13 24 -1 0
BITMAP
0070
00F0
0190
0208
0000
0000
03F0
01C0
0180
0180
0380
0380
0300
0300
0700
0600
0600
0E00
0E00
0C00
0C00
1C00
1C00
FF00
ENDCHAR
STARTCHAR 00CF
ENCODING 207
SWIDTH 324 0
DWIDTH 9 0
BBX 13 23 -1 0
BITMAP
0318
0398
0110
0000
0000
03F0
01C0
0180
0180
0380
0380
0300
0300
0700
0600
0600
0E00
0E00
0C00
0C00
1C00
1C00
FF00
ENDCHAR
STARTCHAR 00D0
ENCODING 208
SWIDTH 720 0
DWIDTH 20 0
BBX 20 18 0 0
BITMAP
07FF00
038380
0300C0
0300E0
070060
070070
060070
060070
3FF070
0C0060
0C00E0
1C00E0
1C00C0
1801C0
180380
380600
381C00
FFE000
ENDCHAR
STARTCHAR 00D1
ENCODING 209
SWIDTH 684 0
DWIDTH 19 0
BBX 22 23 -1 1
BITMAP
003E40
002FC0
000380
000000
000000
07807C
01C020
01C020
01E020
02E040
026040
027040
023040
043080
043880
041880
081D00
080D00
080D00
080F00
100600
100600
FC0200
ENDCHAR
STARTCHAR 00D2
ENCODING 210
SWIDTH 720 0
DWIDTH 20 0
BBX 18 24 2 0
BITMAP
001800
000C00
000400
000400
000000
007C00
018700
060380
0C0180
1C01C0
3801C0
3001C0
7001C0
6001C0
E001C0
E00380
E00380
E00300
C00700
E00E00
E00C00
601800
703000
3FC000
ENDCHAR
STARTCHAR 00D3
ENCODING 211
SWIDTH 720 0
DWIDTH 20 0
BBX 18 24 2 0
BITMAP
000E00
000C00
000800
001000
000000
007C00
018700
060380
0C0180
1C01C0
3801C0
3001C0
7001C0
6001C0
E001C0
E00380
E00380
E00300
C00700
E00E00
E00C00
601800
703000
3FC000
ENDCHAR
STARTCHAR 00D4
ENCODING 212
SWIDTH 720 0
DWIDTH 20 0
BBX 18 24 2 0
BITMAP
000E00
001E00
002200
004200
000000
007C00
018700
060380
0C0180
1C01C0
3801C0
3001C0
7001C0
6001C0
E001C0
E00380
E00380
E00300
C00700
E00E00
E00C00
601800
703000
3FC000
ENDCHAR
STARTCHAR 00D5
ENCODING 213
SWIDTH 720 0
DWIDTH 20 0
BBX 18 24 2 0
BITMAP
002080
007880
009F00
000E00
000000
007C00
018700
060380
0C0180
1C01C0
3801C0
3001C0
7001C0
6001C0
E001C0
E00380
E00380
E00300
C00700
E00E00
E00C00
601800
703000
3FC000
ENDCHAR
STARTCHAR 00D6
ENCODING 214
SWIDTH 720 0
DWIDTH 20 0
BBX 18 23 2 0
BITMAP
007300
007380
002100
000000
007C00
018700
060380
0C0180
1C01C0
3801C0
3001C0
7001C0
6001C0
E001C0
E00380
E00380
E00300
C00700
E00E00
E00C00
601800
703000
3FC000
ENDCHAR
STARTCHAR 00D7
ENCODING 215
SWIDTH 684 0
DWIDTH 19 0
BBX 11 11 5 4
BITMAP
0020
4060
20C0
1180
0B00
0600
0E00
1900
3080
6040
C020
ENDCHAR
STARTCHAR 00D8
ENCODING 216
SWIDTH 720 0
DWIDTH 20 0
BBX 19 20 1 -1
BITMAP
003C20
00C3E0
0301C0
0601C0
0E03E0
1C06E0
180CE0
3818E0
3030E0
7060E0
7041C0
7081C0
710180
620380
740700
780600
300C00
381800
4FE000
800000
ENDCHAR
STARTCHAR 00D9
ENCODING 217
SWIDTH 720 0
DWIDTH 20 0
BBX 19 24 3 0
BITMAP
003000
001800
000800
000800
000000
000000
7F03E0
180080
180080
380100
300100
300100
700200
700200
600200
600400
E00400
C00400
C00400
C00800
E00800
601000
702000
3FC000
ENDCHAR
STARTCHAR 00DA
ENCODING 218
SWIDTH 720 0
DWIDTH 20 0
BBX 19 24 3 0
BITMAP
003800
003000
002000
004000
000000
000000
7F03E0
180080
180080
380100
300100
300100
700200
700200
600200
600400
E00400
C00400
C00400
C00800
E00800
601000
702000
3FC000
ENDCHAR
STARTCHAR 00DB
ENCODING 219
SWIDTH 720 0
DWIDTH 20 0
BBX 19 24 3 0
BITMAP
001800
003800
004C00
018400
000000
000000
7F03E0
180080
180080
380100
300100
300100
700200
700200
600200
600400
E00400
C00400
C00400
C00800
E00800
601000
702000
3FC000
ENDCHAR
STARTCHAR 00DC
ENCODING 220
SWIDTH 720 0
DWIDTH 20 0
BBX 19 23 3 0
BITMAP
01CE00
01CE00
008400
000000
000000
7F03E0
180080
180080
380100
300100
300100
700200
700200
600200
600400
E00400
C00400
C00400
C00800
E00800
601000
702000
3FC000
ENDCHAR
STARTCHAR 00DD
ENCODING 221
SWIDTH 540 0
DWIDTH 15 0
BBX 15 24 3 0
BITMAP
0060
00C0
0080
0080
0000
0000
7E3E
3818
1810
1820
1C60
0C40
0C80
0D00
0F00
0600
0E00
0C00
0C00
1C00
1800
1800
3800
FE00
ENDCHAR
STARTCHAR 00DE
ENCODING 222
SWIDTH 612 0
DWIDTH 17 0
BBX 18 18 -1 0
BITMAP
03F000
01C000
01C000
018000
03FF00
038380
0301C0
0301C0
0701C0
0601C0
060380
0E0300
0E0E00
0FF800
0C0000
1C0000
1C0000
FF0000
ENDCHAR
STARTCHAR 00DF
ENCODING 223
SWIDTH 504 0
DWIDTH 14 0
BBX 18 25 -4 -6
BITMAP
001F00
003080
0060C0
0060C0
00C0C0
00C180
00C300
01CE00
019C00
018600
018300
030300
030300
030300
070300
060700
066600
064C00
0C5800
0C2000
0C0000
080000
180000
900000
E00000
ENDCHAR
STARTCHAR 00E0
ENCODING 224
SWIDTH 504 0
DWIDTH 14 0
BBX 12 19 1 0
BITMAP
0380
0180
00C0
0040
0000
0000
0000
07B0
0870
3060
3060
6060
60C0
C0C0
C1C0
C1C0
C390
EDA0
F1C0
ENDCHAR
STARTCHAR 00E1
ENCODING 225
SWIDTH 504 0
DWIDTH 14 0
BBX 12 19 1 0
BITMAP
00E0
00C0
0180
0100
0000
0000
0000
07B0
0870
3060
3060
6060
60C0
C0C0
C1C0
C1C0
C390
EDA0
F1C0
ENDCHAR
STARTCHAR 00E2
ENCODING 226
SWIDTH 504 0
DWIDTH 14 0
BBX 12 19 1 0
BITMAP
0060
00E0
0130
0210
0400
0000
0000
07B0
0870
3060
3060
6060
60C0
C0C0
C1C0
C1C0
C390
EDA0
F1C0
ENDCHAR
STARTCHAR 00E3
ENCODING 227
SWIDTH 504 0
DWIDTH 14 0
BBX 13 19 1 0
BITMAP
0208
0788
09F0
08F0
0000
0000
0000
07B0
0870
3060
3060
6060
60C0
C0C0
C1C0
C1C0
C390
EDA0
F1C0
ENDCHAR
STARTCHAR 00E4
ENCODING 228
SWIDTH 504 0
DWIDTH 14 0
BBX 13 18 1 0
BITMAP
0730
0738
0210
0000
0000
0000
07B0
0870
3060
3060
6060
60C0
C0C0
C1C0
C1C0
C390
EDA0
F1C0
ENDCHAR
STARTCHAR 00E5
ENCODING 229
SWIDTH 504 0
DWIDTH 14 0
BBX 12 19 1 0
BITMAP
01E0
0120
0210
0120
00C0
0000
0000
07B0
0870
3060
3060
6060
60C0
C0C0
C1C0
C1C0
C390
EDA0
F1C0
ENDCHAR
STARTCHAR 00E6
ENCODING 230
SWIDTH 684 0
DWIDTH 19 0
BBX 17 12 1 0
BITMAP
07AF80
187180
306180
306100
60C300
60CC00
C1F000
C1C000
C3C000
C5C100
ECC200
F0FC00
ENDCHAR
STARTCHAR 00E7
ENCODING 231
SWIDTH 432 0
DWIDTH 12 0
BBX 11 17 1 -5
BITMAP
07C0
1860
30E0
6040
6000
C000
C000
C000
C000
C080
E100
7E00
0800
1C00
0C00
0C00
7800
ENDCHAR
STARTCHAR 00E8
ENCODING 232
SWIDTH 432 0
DWIDTH 12 0
BBX 11 19 1 0
BITMAP
0300
0380
0180
0080
0040
0000
0000
07C0
1860
3060
20C0
6180
E700
F800
C000
C000
E040
F180
7E00
ENDCHAR
STARTCHAR 00E9
ENCODING 233
SWIDTH 432 0
DWIDTH 12 0
BBX 11 19 1 0
BITMAP
01C0
0180
0100
0300
0200
0000
0000
07C0
1860
3060
20C0
6180
E700
F800
C000
C000
E040
F180
7E00
ENDCHAR
STARTCHAR 00EA
ENCODING 234
SWIDTH 432 0
DWIDTH 12 0
BBX 11 19 1 0
BITMAP
00C0
01E0
0360
0420
0000
0000
0000
07C0
1860
3060
20C0
6180
E700
F800
C000
C000
E040
F180
7E00
ENDCHAR
STARTCHAR 00EB
ENCODING 235
SWIDTH 432 0
DWIDTH 12 0
BBX 12 18 1 0
BITMAP
0670
0E70
0420
0000
0000
0000
07C0
1860
3060
20C0
6180
E700
F800
C000
C000
E040
F180
7E00
ENDCHAR
STARTCHAR 00EC
ENCODING 236
SWIDTH 288 0
DWIDTH 8 0
BBX 7 19 1 0
BITMAP
18
1C
0C
04
02
00
00
78
18
18
30
30
30
60
60
60
68
D0
E0
ENDCHAR
STARTCHAR 00ED
ENCODING 237
SWIDTH 288 0
DWIDTH 8 0
BBX 8 19 1 0
BITMAP
07
06
0C
08
00
00
00
78
18
18
30
30
30
60
60
60
68
D0
E0
ENDCHAR
STARTCHAR 00EE
ENCODING 238
SWIDTH 288 0
DWIDTH 8 0
BBX 8 19 1 0
BITMAP
07
0F
19
21
00
00
00
78
18
18
30
30
30
60
60
60
68
D0
E0
ENDCHAR
STARTCHAR 00EF
ENCODING 239
SWIDTH 288 0
DWIDTH 8 0
BBX 9 18 1 0
BITMAP
3180
7380
3100
0000
0000
0000
7800
1800
1800
3000
3000
3000
6000
6000
6000
6800
D000
E000
ENDCHAR
STARTCHAR 00F0
ENCODING 240
SWIDTH 504 0
DWIDTH 14 0
BBX 12 19 1 0
BITMAP
0110
00A0
00C0
0340
0460
0060
0060
07F0
1870
3030
7030
6070
E070
C060
C060
C0C0
C1C0
C180
7E00
ENDCHAR
STARTCHAR 00F1
ENCODING 241
SWIDTH 504 0
DWIDTH 14 0
BBX 13 19 1 0
BITMAP
0208
0788
09F0
08F0
0000
0000
0000
78E0
3960
3260
3460
3860
70C0
70C0
60C0
61C0
C190
C1A0
C1C0
ENDCHAR
STARTCHAR 00F2
ENCODING 242
SWIDTH 504 0
DWIDTH 14 0
BBX 12 19 1 0
BITMAP
01C0
00C0
0040
0020
0020
0000
0000
07C0
1860
3030
7030
6030
E070
C060
C060
C0C0
C0C0
C180
7E00
ENDCHAR
STARTCHAR 00F3
ENCODING 243
SWIDTH 504 0
DWIDTH 14 0
BBX 12 19 1 0
BITMAP
00E0
00C0
0180
0100
0000
0000
0000
07C0
1860
3030
7030
6030
E070
C060
C060
C0C0
C0C0
C180
7E00
ENDCHAR
STARTCHAR 00F4
ENCODING 244
SWIDTH 504 0
DWIDTH 14 0
BBX 12 19 1 0
BITMAP
0060
00E0
0130
0210
0400
0000
0000
07C0
1860
3030
7030
6030
E070
C060
C060
C0C0
C0C0
C180
7E00
ENDCHAR
STARTCHAR 00F5
ENCODING 245
SWIDTH 504 0
DWIDTH 14 0
BBX 13 19 1 0
BITMAP
0208
0788
09F0
08F0
0000
0000
0000
07C0
1860
3030
7030
6030
E070
C060
C060
C0C0
C0C0
C180
7E00
ENDCHAR
STARTCHAR 00F6
ENCODING 246
SWIDTH 504 0
DWIDTH 14 0
BBX 13 18 1 0
BITMAP
0730
0738
0210
0000
0000
0000
07C0
1860
3030
7030
6030
E070
C060
C060
C0C0
C0C0
C180
7E00
ENDCHAR
STARTCHAR 00F7
ENCODING 247
SWIDTH 540 0
DWIDTH 15 0
BBX 14 10 1 5
BITMAP
0300
0300
0000
0000
FFFC
0000
0000
0000
0300
0300
ENDCHAR
STARTCHAR 00F8
ENCODING 248
SWIDTH 504 0
DWIDTH 14 0
BBX 14 14 0 -1
BITMAP
000C
03E8
0C30
1838
3858
3098
7138
6230
6430
6860
7060
20C0
7B00
8400
ENDCHAR
STARTCHAR 00F9
ENCODING 249
SWIDTH 504 0
DWIDTH 14 0
BBX 12 19 1 0
BITMAP
0700
0300
0180
0080
0000
0000
0000
3830
F830
B060
3060
3060
70C0
61C0
62C0
62C0
C590
E9A0
F1C0
ENDCHAR
STARTCHAR 00FA
ENCODING 250
SWIDTH 504 0
DWIDTH 14 0
BBX 12 19 1 0
BITMAP
00E0
00C0
0180
0100
0000
0000
0000
3830
F830
B060
3060
3060
70C0
61C0
62C0
62C0
C590
E9A0
F1C0
ENDCHAR
STARTCHAR 00FB
ENCODING 251
SWIDTH 504 0
DWIDTH 14 0
BBX 12 19 1 0
BITMAP
00C0
01E0
0260
0420
0000
0000
0000
3830
F830
B060
3060
3060
70C0
61C0
62C0
62C0
C590
E9A0
F1C0
ENDCHAR
STARTCHAR 00FC
ENCODING 252
SWIDTH 504 0
DWIDTH 14 0
BBX 12 18 1 0
BITMAP
0630
0730
0230
0000
0000
0000
3830
F830
B060
3060
3060
70C0
61C0
62C0
62C0
C590
E9A0
F1C0
ENDCHAR
STARTCHAR 00FD
ENCODING 253
SWIDTH 432 0
DWIDTH 12 0
BBX 14 25 -2 -6
BITMAP
0018
0030
0030
0020
0040
0000
0000
1E0C
060C
0604
0604
0608
0308
0310
0320
0340
0340
0380
0300
0200
0400
0400
0800
F000
C000
ENDCHAR
STARTCHAR 00FE
ENCODING 254
SWIDTH 504 0
DWIDTH 14 0
BBX 16 25 -3 -6
BITMAP
01E0
00E0
00C0
00C0
00C0
0180
0180
019E
01E7
0383
0383
0303
0703
0606
0606
060C
0C08
0C18
0F60
1880
1800
1800
1800
3000
FC00
ENDCHAR
STARTCHAR 00FF
ENCODING 255
SWIDTH 432 0
DWIDTH 12 0
BBX 14 24 -2 -6
BITMAP
018C
01CC
008C
0000
0000
0000
1E0C
060C
0604
0604
0608
0308
0310
0320
0340
0340
0380
0300
0200
0400
0400
0800
F000
C000
ENDCHAR
STARTCHAR 0100
ENCODING 256
SWIDTH 612 0
DWIDTH 17 0
BBX 20 22 -1 0
BITMAP
001FF0
001FE0
000000
000000
000200
000600
000E00
000E00
001600
002E00
006E00
004E00
008C00
010C00
010C00
03FC00
040C00
080C00
080C00
101C00
301C00
F87F00
ENDCHAR
STARTCHAR 0101
ENCODING 257
SWIDTH 504 0
DWIDTH 14 0
BBX 13 17 1 0
BITMAP
07F8
0FF8
0000
0000
0000
07B0
0870
3060
3060
6060
60C0
C0C0
C1C0
C1C0
C390
EDA0
F1C0
ENDCHAR
STARTCHAR 0102
ENCODING 258
SWIDTH 612 0
DWIDTH 17 0
BBX 20 24 -1 0
BITMAP
000810
000420
0007C0
000380
000000
000000
000200
000600
000E00
000E00
001600
002E00
006E00
004E00
008C00
010C00
010C00
03FC00
040C00
080C00
080C00
101C00
301C00
F87F00
ENDCHAR
STARTCHAR 0103
ENCODING 259
SWIDTH 504 0
DWIDTH 14 0
BBX 12 19 1 0
BITMAP
0810
0420
07E0
0380
0000
0000
0000
07B0
0870
3060
3060
6060
60C0
C0C0
C1C0
C1C0
C390
EDA0
F1C0
ENDCHAR
STARTCHAR 0104
ENCODING 260
SWIDTH 612 0
DWIDTH 17 0
BBX 16 23 -1 -4
BITMAP
0002
0006
000E
000E
0016
002E
006E
004E
008C
010C
010C
03FC
040C
080C
080C
101C
301C
F87F
0010
0030
0030
0038
001F
ENDCHAR
STARTCHAR 0105
ENCODING 261
SWIDTH 504 0
DWIDTH 14 0
BBX 12 17 1 -5
BITMAP
07B0
0870
3060
3060
6060
60C0
C0C0
C1C0
C1C0
C390
EDA0
F1C0
0100
0100
0300
0180
01F0
ENDCHAR
STARTCHAR 0106
ENCODING 262
SWIDTH 684 0
DWIDTH 19 0
BBX 17 24 2 0
BITMAP
000E00
001800
001800
001000
000000
007C00
018380
060180
0C0180
180080
380100
700000
700000
600000
E00000
E00000
E00000
E00000
E00000
E00000
700200
700400
381800
1FE000
ENDCHAR
STARTCHAR 0107
ENCODING 263
SWIDTH 432 0
DWIDTH 12 0
BBX 11 19 1 0
BITMAP
00C0
01C0
0180
0100
0200
0000
0000
07C0
1860
30E0
6040
6000
C000
C000
C000
C000
C080
E100
7E00
ENDCHAR
STARTCHAR 0108
ENCODING 264
SWIDTH 684 0
DWIDTH 19 0
BBX 17 24 2 0
BITMAP
000C00
001C00
002600
00C200
000000
007C00
018380
060180
0C0180
180080
380100
700000
700000
600000
E00000
E00000
E00000
E00000
E00000
E00000
700200
700400
381800
1FE000
ENDCHAR
STARTCHAR 0109
ENCODING 265
SWIDTH 432 0
DWIDTH 12 0
BBX 11 19 1 0
BITMAP
00C0
01E0
0260
0420
0000
0000
0000
07C0
1860
30E0
6040
6000
C000
C000
C000
C000
C080
E100
7E00
ENDCHAR
STARTCHAR 010A
ENCODING 266
SWIDTH 684 0
DWIDTH 19 0
BBX 17 23 2 0
BITMAP
001800
001800
000000
000000
007C00
018380
060180
0C0180
180080
380100
700000
700000
600000
E00000
E00000
E00000
E00000
E00000
E00000
700200
700400
381800
1FE000
ENDCHAR
STARTCHAR 010B
ENCODING 267
SWIDTH 432 0
DWIDTH 12 0
BBX 11 17 1 0
BITMAP
0180
01C0
0180
0000
0000
07C0
1860
30E0
6040
6000
C000
C000
C000
C000
C080
E100
7E00
ENDCHAR
STARTCHAR 010C
ENCODING 268
SWIDTH 684 0
DWIDTH 19 0
BBX 17 23 2 1
BITMAP
002300
003400
003800
000000
007C00
018380
060180
0C0180
180080
380100
700000
700000
600000
E00000
E00000
E00000
E00000
E00000
E00000
700200
700400
381800
1FE000
ENDCHAR
STARTCHAR 010D
ENCODING 269
SWIDTH 432 0
DWIDTH 12 0
BBX 13 19 1 0
BITMAP
0208
0210
0160
01C0
0000
0000
0000
07C0
1860
30E0
6040
6000
C000
C000
C000
C000
C080
E100
7E00
ENDCHAR
STARTCHAR 010E
ENCODING 270
SWIDTH 720 0
DWIDTH 20 0
BBX 21 24 -1 0
BITMAP
002080
003100
001E00
001C00
000000
000000
03FF80
01C1C0
0180E0
018070
038070
030030
030038
070038
070030
060070
060070
0E0070
0C00E0
0C00C0
1C0180
1C0300
1C0E00
FFF000
ENDCHAR
STARTCHAR 010F
ENCODING 271
SWIDTH 612 0
DWIDTH 17 0
BBX 18 19 1 0
BITMAP
007CC0
0018C0
0018C0
0018C0
001980
003000
003000
07B000
186000
306000
306000
606000
C0C000
C0C000
C1C000
C38000
C59000
E9A000
F1C000
ENDCHAR
STARTCHAR 0110
ENCODING 272
SWIDTH 720 0
DWIDTH 20 0
BBX 20 18 0 0
BITMAP
07FF00
038380
0300C0
0300E0
070060
070070
060070
060070
3FF070
0C0060
0C00E0
1C00E0
1C00C0
1801C0
180380
380600
381C00
FFE000
ENDCHAR
STARTCHAR 0111
ENCODING 273
SWIDTH 504 0
DWIDTH 14 0
BBX 15 19 1 0
BITMAP
007C
001C
0018
03FE
0018
0030
0030
07B0
1860
3060
3060
6060
C0C0
C0C0
C1C0
C380
C590
E9A0
F1C0
ENDCHAR
STARTCHAR 0112
ENCODING 274
SWIDTH 612 0
DWIDTH 17 0
BBX 17 22 0 0
BITMAP
00FF00
00FF00
000000
000000
07FF80
038180
030080
030080
030000
070000
060800
061800
0FF000
0C1000
0C1000
1C0000
1C0000
180200
180200
380400
381C00
FFFC00
ENDCHAR
STARTCHAR 0113
ENCODING 275
SWIDTH 432 0
DWIDTH 12 0
BBX 12 17 1 0
BITMAP
0FF0
0FF0
0000
0000
0000
07C0
1860
3060
20C0
6180
E700
F800
C000
C000
E040
F180
7E00
ENDCHAR
STARTCHAR 0114
ENCODING 276
SWIDTH 612 0
DWIDTH 17 0
BBX 17 24 0 0
BITMAP
004080
006300
003E00
001800
000000
000000
07FF80
038180
030080
030080
030000
070000
060800
061800
0FF000
0C1000
0C1000
1C0000
1C0000
180200
180200
380400
381C00
FFFC00
ENDCHAR
STARTCHAR 0115
ENCODING 277
SWIDTH 432 0
DWIDTH 12 0
BBX 12 19 1 0
BITMAP
0410
0430
07E0
0380
0000
0000
0000
07C0
1860
3060
20C0
6180
E700
F800
C000
C000
E040
F180
7E00
ENDCHAR
STARTCHAR 0116
ENCODING 278
SWIDTH 612 0
DWIDTH 17 0
BBX 17 23 0 0
BITMAP
001800
003800
000000
000000
000000
07FF80
038180
030080
030080
030000
070000
060800
061800
0FF000
0C1000
0C1000
1C0000
1C0000
180200
180200
380400
381C00
FFFC00
ENDCHAR
STARTCHAR 0117
ENCODING 279
SWIDTH 432 0
DWIDTH 12 0
BBX 11 18 1 0
BITMAP
0180
01C0
0180
0000
0000
0000
07C0
1860
3060
20C0
6180
E700
F800
C000
C000
E040
F180
7E00
ENDCHAR
STARTCHAR 0118
ENCODING 280
SWIDTH 612 0
DWIDTH 17 0
BBX 17 23 0 -5
BITMAP
07FF80
038180
030080
030080
030000
070000
060800
061800
0FF000
0C1000
0C1000
1C0000
1C0000
180200
180200
380400
381C00
FFFC00
004000
004000
00C000
006000
007C00
ENDCHAR
STARTCHAR 0119
ENCODING 281
SWIDTH 432 0
DWIDTH 12 0
BBX 11 17 1 -5
BITMAP
07C0
1860
3060
20C0
6180
E700
F800
C000
C000
E040
F180
7E00
0800
1800
1800
1C00
0F80
ENDCHAR
STARTCHAR 011A
ENCODING 282
SWIDTH 612 0
DWIDTH 17 0
BBX 17 24 0 0
BITMAP
004100
006200
002C00
003800
000000
000000
07FF80
038180
030080
030080
030000
070000
060800
061800
0FF000
0C1000
0C1000
1C0000
1C0000
180200
180200
380400
381C00
FFFC00
ENDCHAR
STARTCHAR 011B
ENCODING 283
SWIDTH 432 0
DWIDTH 12 0
BBX 13 19 1 0
BITMAP
0008
0210
0360
01C0
0000
0000
0000
07C0
1860
3060
20C0
6180
E700
F800
C000
C000
E040
F180
7E00
ENDCHAR
STARTCHAR 011C
ENCODING 284
SWIDTH 720 0
DWIDTH 20 0
BBX 18 24 2 0
BITMAP
000E00
001E00
003200
004200
000000
007C40
0383C0
060180
0C0080
180080
380080
700000
700000
E00000
E00000
E01FC0
E00700
E00600
E00E00
E00E00
700C00
700C00
381C00
0FF800
ENDCHAR
STARTCHAR 011D
ENCODING 285
SWIDTH 504 0
DWIDTH 14 0
BBX 15 25 -1 -6
BITMAP
0038
0078
00C8
0108
0000
0000
0000
03F0
0C3E
1C18
1818
1838
1830
1870
0FC0
0400
0800
1C00
1FC0
23F0
4038
C018
C010
6020
1FC0
ENDCHAR
STARTCHAR 011E
ENCODING 286
SWIDTH 720 0
DWIDTH 20 0
BBX 18 24 2 0
BITMAP
004080
002100
003F00
001C00
000000
007C40
0383C0
060180
0C0080
180080
380080
700000
700000
E00000
E00000
E01FC0
E00700
E00600
E00E00
E00E00
700C00
700C00
381C00
0FF800
ENDCHAR
STARTCHAR 011F
ENCODING 287
SWIDTH 504 0
DWIDTH 14 0
BBX 15 25 -1 -6
BITMAP
0204
0108
01F8
00E0
0000
0000
0000
03F0
0C3E
1C18
1818
1838
1830
1870
0FC0
0400
0800
1C00
1FC0
23F0
4038
C018
C010
6020
1FC0
ENDCHAR
STARTCHAR 0120
ENCODING 288
SWIDTH 720 0
DWIDTH 20 0
BBX 18 23 2 0
BITMAP
001C00
001C00
000000
000000
007C40
0383C0
060180
0C0080
180080
380080
700000
700000
E00000
E00000
E01FC0
E00700
E00600
E00E00
E00E00
700C00
700C00
381C00
0FF800
ENDCHAR
STARTCHAR 0121
ENCODING 289
SWIDTH 504 0
DWIDTH 14 0
BBX 15 24 -1 -6
BITMAP
0060
00E0
0040
0000
0000
0000
03F0
0C3E
1C18
1818
1838
1830
1870
0FC0
0400
0800
1C00
1FC0
23F0
4038
C018
C010
6020
1FC0
ENDCHAR
STARTCHAR 0122
ENCODING 290
SWIDTH 720 0
DWIDTH 20 0
BBX 18 24 2 -5
BITMAP
007C40
0383C0
060180
0C0080
180080
380080
700000
700000
E00000
E00000
E01FC0
E00700
E00600
E00E00
E00E00
700C00
700C00
381C00
0FF800
020000
030000
018000
018000
0F0000
ENDCHAR
STARTCHAR 0123
ENCODING 291
SWIDTH 504 0
DWIDTH 14 0
BBX 15 26 -1 -6
BITMAP
0020
00C0
0180
01C0
01C0
0000
0000
0000
03F0
0C3E
1C18
1818
1838
1830
1870
0FC0
0400
0800
1C00
1FC0
23F0
4038
C018
C010
6020
1FC0
ENDCHAR
STARTCHAR 0124
ENCODING 292
SWIDTH 720 0
DWIDTH 20 0
BBX 23 24 -1 0
BITMAP
000180
0003C0
0004C0
000840
000000
000000
03F0FE
01C038
018030
018030
038070
038060
030060
0300E0
07FFE0
0600C0
0600C0
0E01C0
0C0180
0C0180
0C0380
1C0380
1C0300
FF1FE0
ENDCHAR
STARTCHAR 0125
ENCODING 293
SWIDTH 504 0
DWIDTH 14 0
BBX 13 24 1 0
BITMAP
0038
0078
0088
0108
0000
3E00
0E00
0C00
0C00
0C00
1800
1800
18E0
1960
3260
3460
3860
70C0
70C0
60C0
61C0
C190
C1A0
C1C0
ENDCHAR
STARTCHAR 0126
ENCODING 294
SWIDTH 720 0
DWIDTH 20 0
BBX 23 18 -1 0
BITMAP
03F0FE
01C038
07FFFE
018030
038070
038060
030060
0300E0
07FFE0
0600C0
0600C0
0E01C0
0C0180
0C0180
0C0380
1C0380
1C0300
FF1FE0
ENDCHAR
STARTCHAR 0127
ENCODING 295
SWIDTH 504 0
DWIDTH 14 0
BBX 12 19 1 0
BITMAP
3E00
0E00
0C00
3FC0
0C00
1800
1800
18E0
1960
3260
3460
3860
70C0
70C0
60C0
61C0
C190
C1A0
C1C0
ENDCHAR
STARTCHAR 0128
ENCODING 296
SWIDTH 324 0
DWIDTH 9 0
BBX 14 24 -1 0
BITMAP
0180
03E4
04FC
0438
0000
0000
03F0
01C0
0180
0180
0380
0380
0300
0300
0700
0600
0600
0E00
0E00
0C00
0C00
1C00
1C00
FF00
ENDCHAR
STARTCHAR 0129
ENCODING 297
SWIDTH 288 0
DWIDTH 8 0
BBX 10 19 1 0
BITMAP
0040
3C40
4F80
4780
0000
0000
0000
7800
1800
1800
3000
3000
3000
6000
6000
6000
6800
D000
E000
ENDCHAR
STARTCHAR 012A
ENCODING 298
SWIDTH 324 0
DWIDTH 9 0
BBX 14 22 -1 0
BITMAP
03FC
07F8
0000
0000
03F0
01C0
0180
0180
0380
0380
0300
0300
0700
0600
0600
0E00
0E00
0C00
0C00
1C00
1C00
FF00
ENDCHAR
STARTCHAR 012B
ENCODING 299
SWIDTH 288 0
DWIDTH 8 0
BBX 9 17 1 0
BITMAP
7F80
7F80
0000
0000
0000
7800
1800
1800
3000
3000
3000
6000
6000
6000
6800
D000
E000
ENDCHAR
STARTCHAR 012C
ENCODING 300
SWIDTH 324 0
DWIDTH 9 0
BBX 14 24 -1 0
BITMAP
0204
0198
01F8
0060
0000
0000
03F0
01C0
0180
0180
0380
0380
0300
0300
0700
0600
0600
0E00
0E00
0C00
0C00
1C00
1C00
FF00
ENDCHAR
STARTCHAR 012D
ENCODING 301
SWIDTH 288 0
DWIDTH 8 0
BBX 9 19 1 0
BITMAP
2080
2180
1F00
0E00
0000
0000
0000
7800
1800
1800
3000
3000
3000
6000
6000
6000
6800
D000
E000
ENDCHAR
STARTCHAR 012E
ENCODING 302
SWIDTH 324 0
DWIDTH 9 0
BBX 12 23 -1 -5
BITMAP
03F0
01C0
0180
0180
0380
0380
0300
0300
0700
0600
0600
0E00
0E00
0C00
0C00
1C00
1C00
FF00
1000
1000
1000
1800
0F00
ENDCHAR
STARTCHAR 012F
ENCODING 303
SWIDTH 288 0
DWIDTH 8 0
BBX 7 23 1 -5
BITMAP
04
0E
0C
00
00
00
78
18
18
30
30
30
60
60
60
68
D0
E0
80
80
80
C0
78
ENDCHAR
STARTCHAR 0130
ENCODING 304
SWIDTH 324 0
DWIDTH 9 0
BBX 12 23 -1 0
BITMAP
0070
0070
0000
0000
0000
03F0
01C0
0180
0180
0380
0380
0300
0300
0700
0600
0600
0E00
0E00
0C00
0C00
1C00
1C00
FF00
ENDCHAR
STARTCHAR 0131
ENCODING 305
SWIDTH 288 0
DWIDTH 8 0
BBX 5 12 1 0
BITMAP
78
18
18
30
30
30
60
60
60
68
D0
E0
ENDCHAR
STARTCHAR 0132
ENCODING 306
SWIDTH 756 0
DWIDTH 21 0
BBX 23 18 -1 0
BITMAP
03F07E
01C018
018018
018038
038030
038030
030070
030060
070060
0600E0
0600E0
0E00C0
0E00C0
0C01C0
0CE180
1CE380
1CC300
FFFC00
ENDCHAR
STARTCHAR 0133
ENCODING 307
SWIDTH 504 0
DWIDTH 14 0
BBX 13 24 1 -6
BITMAP
0010
0C38
0C38
0000
0000
0000
79E0
1860
3060
3060
30C0
30C0
60C0
6180
6180
C980
D380
E300
0300
0300
0600
0600
CC00
7000
ENDCHAR
STARTCHAR 0134
ENCODING 308
SWIDTH 432 0
DWIDTH 12 0
BBX 17 24 -1 0
BITMAP
000700
000F00
001900
002080
000000
000000
007F00
001C00
001800
003800
003800
003000
003000
007000
006000
006000
00E000
00E000
00C000
00C000
618000
E18000
E30000
7E0000
ENDCHAR
STARTCHAR 0135
ENCODING 309
SWIDTH 288 0
DWIDTH 8 0
BBX 14 25 -5 -6
BITMAP
0018
003C
004C
0084
0000
0000
0000
01E0
0060
0060
00C0
00C0
00C0
00C0
0180
0180
0180
0300
0300
0300
0700
0600
0400
CC00
7000
ENDCHAR
STARTCHAR 0136
ENCODING 310
SWIDTH 684 0
DWIDTH 19 0
BBX 21 23 -1 -5
BITMAP
03F0F8
01C0C0
018180
018200
038C00
031800
032000
03C000
07C000
06E000
067000
0E3000
0C3800
0C1C00
1C0C00
1C0E00
1C0F00
FF1FE0
000000
01C000
00C000
00C000
078000
ENDCHAR
STARTCHAR 0137
ENCODING 311
SWIDTH 432 0
DWIDTH 12 0
BBX 13 24 0 -5
BITMAP
1F00
0600
0600
0600
0E00
0C00
0C00
0DF8
1840
1880
1900
3A00
3700
3B00
3300
6300
6190
61A0
E1C0
0000
1C00
0C00
0C00
7800
ENDCHAR
STARTCHAR 0138
ENCODING 312
SWIDTH 432 0
DWIDTH 12 0
BBX 13 12 0 0
BITMAP
7DF8
1840
1880
1900
3A00
3700
3B00
3300
6300
6190
61A0
E1C0
ENDCHAR
STARTCHAR 0139
ENCODING 313
SWIDTH 540 0
DWIDTH 15 0
BBX 15 24 -1 0
BITMAP
001C
0018
0030
0020
0000
0000
07F0
01C0
0180
0180
0380
0300
0300
0700
0700
0600
0600
0E00
0C00
0C02
1C02
1C06
1C0C
FFFC
ENDCHAR
STARTCHAR 013A
ENCODING 314
SWIDTH 288 0
DWIDTH 8 0
BBX 9 24 1 0
BITMAP
0380
0300
0600
0400
0000
1E00
0600
0C00
0C00
0C00
0C00
1800
1800
1800
3000
3000
3000
3000
6000
6000
6000
C800
D000
E000
ENDCHAR
STARTCHAR 013B
ENCODING 315
SWIDTH 540 0
DWIDTH 15 0
BBX 15 23 -1 -5
BITMAP
07F0
01C0
0180
0180
0380
0300
0300
0700
0700
0600
0600
0E00
0C00
0C02
1C02
1C06
1C0C
FFFC
0000
0700
0180
0100
0E00
ENDCHAR
STARTCHAR 013C
ENCODING 316
SWIDTH 288 0
DWIDTH 8 0
BBX 9 24 -1 -5
BITMAP
0780
0180
0300
0300
0300
0300
0600
0600
0600
0C00
0C00
0C00
0C00
1800
1800
1800
3200
3400
3800
0000
7000
3800
1000
E000
ENDCHAR
STARTCHAR 013D
ENCODING 317
SWIDTH 540 0
DWIDTH 15 0
BBX 18 19 -1 0
BITMAP
000080
07F1C0
01C1C0
018080
018100
038200
030000
030000
070000
070000
060000
060000
0E0000
0C0000
0C0200
1C0200
1C0600
1C0C00
FFFC00
ENDCHAR
STARTCHAR 013E
ENCODING 318
SWIDTH 360 0
DWIDTH 10 0
BBX 12 19 1 0
BITMAP
1E60
0670
0C20
0C20
0C40
0C80
1800
1800
1800
3000
3000
3000
3000
6000
6000
6000
C800
D000
E000
ENDCHAR
STARTCHAR 013F
ENCODING 319
SWIDTH 540 0
DWIDTH 15 0
BBX 15 18 -1 0
BITMAP
07F0
01C0
0180
0180
0380
0300
0300
0718
071C
0618
0600
0E00
0C00
0C02
1C02
1C06
1C0C
FFFC
ENDCHAR
STARTCHAR 0140
ENCODING 320
SWIDTH 324 0
DWIDTH 9 0
BBX 10 19 1 0
BITMAP
1E00
0600
0C00
0C00
0C00
0C00
1800
1800
1980
31C0
3180
3000
3000
6000
6000
6000
C800
D000
E000
ENDCHAR
STARTCHAR 0141
ENCODING 321
SWIDTH 540 0
DWIDTH 15 0
BBX 15 18 -1 0
BITMAP
03F0
01C0
0180
0180
0380
0330
0360
0380
0700
0600
1E00
2E00
4C00
0C02
1C02
1C06
1C0C
FFFC
ENDCHAR
STARTCHAR 0142
ENCODING 322
SWIDTH 288 0
DWIDTH 8 0
BBX 7 19 1 0
BITMAP
1E
06
0E
0C
0C
0C
18
1A
1C
30
70
B0
30
60
60
60
C8
D0
E0
ENDCHAR
STARTCHAR 0143
ENCODING 323
SWIDTH 684 0
DWIDTH 19 0
BBX 22 24 -1 0
BITMAP
000380
000300
000600
000400
000000
000000
07807C
01C020
01C020
01E020
02E040
026040
027040
023040
043080
043880
041880
081D00
080D00
080D00
080F00
100600
100600
FC0200
ENDCHAR
STARTCHAR 0144
ENCODING 324
SWIDTH 504 0
DWIDTH 14 0
BBX 12 19 1 0
BITMAP
00E0
00C0
0180
0100
0000
0000
0000
78E0
3960
3260
3460
3860
70C0
70C0
60C0
61C0
C190
C1A0
C1C0
ENDCHAR
STARTCHAR 0145
ENCODING 325
SWIDTH 684 0
DWIDTH 19 0
BBX 22 23 -1 -5
BITMAP
07807C
01C020
01C020
01E020
02E040
026040
027040
023040
043080
043880
041880
081D00
080D00
080D00
080F00
100600
100600
FC0200
000000
01C000
00C000
00C000
078000
ENDCHAR
STARTCHAR 0146
ENCODING 326
SWIDTH 504 0
DWIDTH 14 0
BBX 12 17 1 -5
BITMAP
78E0
3960
3260
3460
3860
70C0
70C0
60C0
61C0
C190
C1A0
C1C0
0000
1C00
0C00
0C00
7800
ENDCHAR
STARTCHAR 0147
ENCODING 327
SWIDTH 684 0
DWIDTH 19 0
BBX 22 24 -1 0
BITMAP
001040
000880
000F00
000E00
000000
000000
07807C
01C020
01C020
01E020
02E040
026040
027040
023040
043080
043880
041880
081D00
080D00
080D00
080F00
100600
100600
FC0200
ENDCHAR
STARTCHAR 0148
ENCODING 328
SWIDTH 504 0
DWIDTH 14 0
BBX 12 18 1 1
BITMAP
0460
0680
0700
0000
0000
0000
78E0
3960
3260
3460
3860
70C0
70C0
60C0
61C0
C190
C1A0
C1C0
ENDCHAR
STARTCHAR 0149
ENCODING 329
SWIDTH 576 0
DWIDTH 16 0
BBX 13 19 2 0
BITMAP
2000
7000
3000
2000
2000
C000
0000
3C70
0CB8
1930
1A30
1C30
1C70
3860
3060
3060
70C8
60D0
60E0
ENDCHAR
STARTCHAR 014A
ENCODING 330
SWIDTH 684 0
DWIDTH 19 0
BBX 20 19 -1 0
BITMAP
000380
03CFE0
01D060
01A070
01C070
03C070
038070
038070
030070
070070
060060
060060
0E00E0
0E30C0
0C70C0
0C7180
1C4180
1C4300
FF3C00
ENDCHAR
STARTCHAR 014B
ENCODING 331
SWIDTH 468 0
DWIDTH 13 0
BBX 11 18 1 -6
BITMAP
78E0
3960
3260
3460
3860
70C0
70C0
60C0
61C0
C180
C180
C180
0300
0300
0300
0600
6400
7800
ENDCHAR
STARTCHAR 014C
ENCODING 332
SWIDTH 720 0
DWIDTH 20 0
BBX 18 22 2 0
BITMAP
00FF80
00FF00
000000
007C00
018700
060380
0C0180
1C01C0
3801C0
3001C0
7001C0
6001C0
E001C0
E00380
E00380
E00300
C00700
E00E00
E00C00
601800
703000
3FC000
ENDCHAR
STARTCHAR 014D
ENCODING 333
SWIDTH 504 0
DWIDTH 14 0
BBX 13 17 1 0
BITMAP
07F8
0FF0
0000
0000
0000
07C0
1860
3030
7030
6030
E070
C060
C060
C0C0
C0C0
C180
7E00
ENDCHAR
STARTCHAR 014E
ENCODING 334
SWIDTH 720 0
DWIDTH 20 0
BBX 18 24 2 0
BITMAP
004080
006300
003E00
001800
000000
007C00
018700
060380
0C0180
1C01C0
3801C0
3001C0
7001C0
6001C0
E001C0
E00380
E00380
E00300
C00700
E00E00
E00C00
601800
703000
3FC000
ENDCHAR
STARTCHAR 014F
ENCODING 335
SWIDTH 504 0
DWIDTH 14 0
BBX 13 19 1 0
BITMAP
0408
0210
03E0
01C0
0000
0000
0000
07C0
1860
3030
7030
6030
E070
C060
C060
C0C0
C0C0
C180
7E00
ENDCHAR
STARTCHAR 0150
ENCODING 336
SWIDTH 720 0
DWIDTH 20 0
BBX 18 24 2 0
BITMAP
001D80
003300
003200
002200
000000
007C00
018700
060380
0C0180
1C01C0
3801C0
3001C0
7001C0
6001C0
E001C0
E00380
E00380
E00300
C00700
E00E00
E00C00
601800
703000
3FC000
ENDCHAR
STARTCHAR 0151
ENCODING 337
SWIDTH 504 0
DWIDTH 14 0
BBX 14 19 1 0
BITMAP
01DC
0198
0330
0220
0000
0000
0000
07C0
1860
3030
7030
6030
E070
C060
C060
C0C0
C0C0
C180
7E00
ENDCHAR
STARTCHAR 0152
ENCODING 338
SWIDTH 936 0
DWIDTH 26 0
BBX 26 19 1 0
BITMAP
00100000
01FFFFC0
03038080
0E038080
1C038080
38030000
30030000
70070800
70061800
E007F800
E00E1000
E00E1000
E00C1000
C00C0000
E01C0200
E0180200
60180600
70380C00
1FFFFC00
ENDCHAR
STARTCHAR 0153
ENCODING 339
SWIDTH 684 0
DWIDTH 19 0
BBX 17 12 1 0
BITMAP
078F80
18D180
307180
706100
60E200
E0CC00
C0F000
C1C000
C1C000
C3C100
C2E600
7C7800
ENDCHAR
STARTCHAR 0154
ENCODING 340
SWIDTH 612 0
DWIDTH 17 0
BBX 17 24 -1 0
BITMAP
000E00
000C00
001800
001000
000000
000000
03FE00
01C300
018380
018380
038380
030380
030700
030E00
07F800
063000
063000
0E3800
0C1800
0C1800
0C1C00
1C0C00
1C0E00
FF0F80
ENDCHAR
STARTCHAR 0155
ENCODING 341
SWIDTH 396 0
DWIDTH 11 0
BBX 10 19 1 0
BITMAP
0180
0380
0300
0200
0000
0000
0000
F8C0
39C0
32C0
3400
3800
7000
7000
6000
6000
C000
C000
C000
ENDCHAR
STARTCHAR 0156
ENCODING 342
SWIDTH 612 0
DWIDTH 17 0
BBX 17 23 -1 -5
BITMAP
03FE00
01C300
018380
018380
038380
030380
030700
030E00
07F800
063000
063000
0E3800
0C1800
0C1800
0C1C00
1C0C00
1C0E00
FF0F80
000000
038000
018000
018000
0F0000
ENDCHAR
STARTCHAR 0157
ENCODING 343
SWIDTH 396 0
DWIDTH 11 0
BBX 11 17 0 -5
BITMAP
7C60
1CE0
1960
1A00
1C00
3800
3800
3000
3000
6000
6000
6000
0000
3800
1800
1800
F000
ENDCHAR
STARTCHAR 0158
ENCODING 344
SWIDTH 612 0
DWIDTH 17 0
BBX 17 24 -1 0
BITMAP
004100
006200
002C00
003800
000000
000000
03FE00
01C300
018380
018380
038380
030380
030700
030E00
07F800
063000
063000
0E3800
0C1800
0C1800
0C1C00
1C0C00
1C0E00
FF0F80
ENDCHAR
STARTCHAR 0159
ENCODING 345
SWIDTH 396 0
DWIDTH 11 0
BBX 11 19 1 0
BITMAP
0020
08C0
0D80
0F00
0000
0000
0000
F8C0
39C0
32C0
3400
3800
7000
7000
6000
6000
C000
C000
C000
ENDCHAR
STARTCHAR 015A
ENCODING 346
SWIDTH 504 0
DWIDTH 14 0
BBX 15 24 0 0
BITMAP
0038
0030
0060
0040
0000
01E2
071E
060E
0C04
0C04
0E04
0E00
0700
0780
03C0
01E0
00F0
0070
4030
4030
4030
6030
7060
DFC0
ENDCHAR
STARTCHAR 015B
ENCODING 347
SWIDTH 396 0
DWIDTH 11 0
BBX 10 19 0 0
BITMAP
01C0
0180
0100
0200
0200
0000
0000
0FC0
10C0
1040
1800
1C00
0E00
0F00
0700
8300
8300
C300
FE00
ENDCHAR
STARTCHAR 015C
ENCODING 348
SWIDTH 504 0
DWIDTH 14 0
BBX 15 24 0 0
BITMAP
0018
003C
004C
0084
0000
01E2
071E
060E
0C04
0C04
0E04
0E00
0700
0780
03C0
01E0
00F0
0070
4030
4030
4030
6030
7060
DFC0
ENDCHAR
STARTCHAR 015D
ENCODING 349
SWIDTH 396 0
DWIDTH 11 0
BBX 11 19 0 0
BITMAP
00C0
01C0
0260
0420
0000
0000
0000
0FC0
10C0
1040
1800
1C00
0E00
0F00
0700
8300
8300
C300
FE00
ENDCHAR
STARTCHAR 015E
ENCODING 350
SWIDTH 504 0
DWIDTH 14 0
BBX 15 24 0 -5
BITMAP
01E2
071E
060E
0C04
0C04
0E04
0E00
0700
0780
03C0
01E0
00F0
0070
4030
4030
4030
6030
7060
DFC0
0200
0700
0300
0300
1E00
ENDCHAR
STARTCHAR 015F
ENCODING 351
SWIDTH 396 0
DWIDTH 11 0
BBX 10 17 0 -5
BITMAP
0FC0
10C0
1040
1800
1C00
0E00
0F00
0700
8300
8300
C300
E600
1800
3800
1800
1800
F000
ENDCHAR
STARTCHAR 0160
ENCODING 352
SWIDTH 504 0
DWIDTH 14 0
BBX 15 24 0 0
BITMAP
0082
008C
00D8
0070
0000
01E2
071E
060E
0C04
0C04
0E04
0E00
0700
0780
03C0
01E0
00F0
0070
4030
4030
4030
6030
7060
DFC0
ENDCHAR
STARTCHAR 0161
ENCODING 353
SWIDTH 396 0
DWIDTH 11 0
BBX 11 19 0 0
BITMAP
0800
0C60
0580
0700
0000
0000
0000
0FC0
10C0
1040
1800
1C00
0E00
0F00
0700
8300
8300
C300
FE00
ENDCHAR
STARTCHAR 0162
ENCODING 354
SWIDTH 540 0
DWIDTH 15 0
BBX 16 24 2 -6
BITMAP
3FFF
21C2
4182
4182
0382
0300
0300
0700
0700
0600
0600
0E00
0C00
0C00
1C00
1C00
1C00
FF00
0000
3000
3800
1000
3000
4000
ENDCHAR
STARTCHAR 0163
ENCODING 355
SWIDTH 288 0
DWIDTH 8 0
BBX 8 21 0 -5
BITMAP
02
06
0C
3F
0C
1C
18
18
18
30
30
30
64
68
78
00
60
60
20
40
80
ENDCHAR
STARTCHAR 0164
ENCODING 356
SWIDTH 540 0
DWIDTH 15 0
BBX 16 24 2 0
BITMAP
0104
0088
00F0
00E0
0000
0000
3FFF
21C2
4182
4182
0382
0300
0300
0700
0700
0600
0600
0E00
0C00
0C00
1C00
1C00
1C00
FF00
ENDCHAR
STARTCHAR 0165
ENCODING 357
SWIDTH 360 0
DWIDTH 10 0
BBX 12 19 1 0
BITMAP
0060
0070
0020
0020
0440
0C80
1800
7E00
1800
3000
3000
3000
3000
6000
6000
6000
C800
D000
E000
ENDCHAR
STARTCHAR 0166
ENCODING 358
SWIDTH 540 0
DWIDTH 15 0
BBX 16 18 2 0
BITMAP
3FFF
21C3
4182
4182
0382
0380
0300
0300
7FF0
0600
0600
0E00
0E00
0C00
0C00
1C00
1C00
FF00
ENDCHAR
STARTCHAR 0167
ENCODING 359
SWIDTH 288 0
DWIDTH 8 0
BBX 7 15 1 1
BITMAP
04
0C
18
7E
18
30
30
FC
70
60
60
60
C8
D0
E0
ENDCHAR
STARTCHAR 0168
ENCODING 360
SWIDTH 720 0
DWIDTH 20 0
BBX 19 24 3 0
BITMAP
006100
00F900
013E00
010E00
000000
000000
7F03E0
180080
180080
380100
300100
300100
700200
700200
600200
600400
E00400
C00400
C00400
C00800
E00800
601000
702000
3FC000
ENDCHAR
STARTCHAR 0169
ENCODING 361
SWIDTH 504 0
DWIDTH 14 0
BBX 13 19 1 0
BITMAP
0208
0788
09F0
08F0
0000
0000
0000
3830
F830
B060
3060
3060
70C0
61C0
62C0
62C0
C590
E9A0
F1C0
ENDCHAR
STARTCHAR 016A
ENCODING 362
SWIDTH 720 0
DWIDTH 20 0
BBX 19 22 3 0
BITMAP
01FF00
01FE00
000000
000000
7F03E0
180080
180080
380100
300100
300100
700200
700200
600200
600400
E00400
C00400
C00400
C00800
E00800
601000
702000
3FC000
ENDCHAR
STARTCHAR 016B
ENCODING 363
SWIDTH 504 0
DWIDTH 14 0
BBX 12 17 1 0
BITMAP
0FF0
0FF0
0000
0000
0000
3830
F830
B060
3060
3060
70C0
61C0
62C0
62C0
C590
E9A0
F1C0
ENDCHAR
STARTCHAR 016C
ENCODING 364
SWIDTH 720 0
DWIDTH 20 0
BBX 19 24 3 0
BITMAP
008100
004600
007C00
003800
000000
000000
7F03E0
180080
180080
380100
300100
300100
700200
700200
600200
600400
E00400
C00400
C00400
C00800
E00800
601000
702000
3FC000
ENDCHAR
STARTCHAR 016D
ENCODING 365
SWIDTH 504 0
DWIDTH 14 0
BBX 13 19 1 0
BITMAP
0408
0630
03E0
01C0
0000
0000
0000
3830
F830
B060
3060
3060
70C0
61C0
62C0
62C0
C590
E9A0
F1C0
ENDCHAR
STARTCHAR 016E
ENCODING 366
SWIDTH 720 0
DWIDTH 20 0
BBX 19 25 3 0
BITMAP
001000
006800
004400
004400
006800
001000
000000
7F03E0
180080
180080
380100
300100
300100
700200
700200
600200
600400
E00400
C00400
C00400
C00800
E00800
601000
702000
3FC000
ENDCHAR
STARTCHAR 016F
ENCODING 367
SWIDTH 504 0
DWIDTH 14 0
BBX 12 19 1 0
BITMAP
03C0
0240
0420
0240
0180
0000
0000
3830
F830
B060
3060
3060
70C0
61C0
62C0
62C0
C590
E9A0
F1C0
ENDCHAR
STARTCHAR 0170
ENCODING 368
SWIDTH 720 0
DWIDTH 20 0
BBX 19 24 3 0
BITMAP
007700
006600
004C00
008800
000000
000000
7F03E0
180080
180080
380100
300100
300100
700200
700200
600200
600400
E00400
C00400
C00400
C00800
E00800
601000
702000
3FC000
ENDCHAR
STARTCHAR 0171
ENCODING 369
SWIDTH 504 0
DWIDTH 14 0
BBX 13 19 1 0
BITMAP
03B8
0330
0220
0640
0440
0000
0000
3830
F830
B060
3060
3060
70C0
61C0
62C0
62C0
C590
E9A0
F1C0
ENDCHAR
STARTCHAR 0172
ENCODING 370
SWIDTH 720 0
DWIDTH 20 0
BBX 19 23 3 -5
BITMAP
7F03E0
180080
180080
380100
300100
300100
700200
700200
600200
600400
E00400
C00400
C00400
C00800
E00800
601000
702000
3FC000
040000
040000
040000
060000
03C000
ENDCHAR
STARTCHAR 0173
ENCODING 371
SWIDTH 504 0
DWIDTH 14 0
BBX 13 17 1 -5
BITMAP
3830
F830
B060
3060
3060
70C0
61C0
62C0
62C0
C590
E9A0
F1C0
0080
0080
0180
00C0
00F8
ENDCHAR
STARTCHAR 0174
ENCODING 372
SWIDTH 828 0
DWIDTH 23 0
BBX 22 24 4 0
BITMAP
001C00
003C00
006600
008200
000000
000000
FCFC7C
703030
707020
707040
70F080
60F080
617100
626300
626200
646400
686C00
E86800
F07000
E0F000
E0E000
C0C000
80C000
808000
ENDCHAR
STARTCHAR 0175
ENCODING 373
SWIDTH 684 0
DWIDTH 19 0
BBX 17 19 1 0
BITMAP
001800
003C00
006C00
008400
000000
000000
000000
F02180
306180
30E080
30E080
316100
326100
126200
146400
1C6400
183800
103000
102000
ENDCHAR
STARTCHAR 0176
ENCODING 374
SWIDTH 540 0
DWIDTH 15 0
BBX 15 24 3 0
BITMAP
0060
00F0
0130
0210
0000
0000
7E3E
3818
1810
1820
1C60
0C40
0C80
0D00
0F00
0600
0E00
0C00
0C00
1C00
1800
1800
3800
FE00
ENDCHAR
STARTCHAR 0177
ENCODING 375
SWIDTH 432 0
DWIDTH 12 0
BBX 14 25 -2 -6
BITMAP
0018
0038
0048
0084
0100
0000
0000
1E0C
060C
0604
0604
0608
0308
0310
0320
0340
0340
0380
0300
0200
0400
0400
0800
F000
C000
ENDCHAR
STARTCHAR 0178
ENCODING 376
SWIDTH 540 0
DWIDTH 15 0
BBX 15 23 3 0
BITMAP
0630
0730
0210
0000
0000
7E3E
3818
1810
1820
1C60
0C40
0C80
0D00
0F00
0600
0E00
0C00
0C00
1C00
1800
1800
3800
FE00
ENDCHAR
STARTCHAR 0179
ENCODING 377
SWIDTH 540 0
DWIDTH 15 0
BBX 17 24 0 0
BITMAP
001C00
003000
002000
002000
000000
000000
0FFF80
080700
100E00
001C00
003800
003800
007000
00E000
01C000
038000
038000
070000
0E0000
1C0200
380400
380400
701C00
FFF800
ENDCHAR
STARTCHAR 017A
ENCODING 378
SWIDTH 396 0
DWIDTH 11 0
BBX 12 19 -1 0
BITMAP
00E0
00C0
0080
0180
0100
0000
0000
1FF0
1FE0
2040
0080
0100
0200
0400
0800
1000
2040
7FC0
FF80
ENDCHAR
STARTCHAR 017B
ENCODING 379
SWIDTH 540 0
DWIDTH 15 0
BBX 17 23 0 0
BITMAP
003000
003000
001000
000000
000000
0FFF80
080700
100E00
001C00
003800
003800
007000
00E000
01C000
038000
038000
070000
0E0000
1C0200
380400
380400
701C00
FFF800
ENDCHAR
STARTCHAR 017C
ENCODING 380
SWIDTH 396 0
DWIDTH 11 0
BBX 12 18 -1 0
BITMAP
01C0
01C0
0080
0000
0000
0000
1FF0
1FE0
2040
0080
0100
0200
0400
0800
1000
2040
7FC0
FF80
ENDCHAR
STARTCHAR 017D
ENCODING 381
SWIDTH 540 0
DWIDTH 15 0
BBX 17 24 0 0
BITMAP
008200
00C400
005800
007000
000000
000000
0FFF80
080700
100E00
001C00
003800
003800
007000
00E000
01C000
038000
038000
070000
0E0000
1C0200
380400
380400
701C00
FFF800
ENDCHAR
STARTCHAR 017E
ENCODING 382
SWIDTH 396 0
DWIDTH 11 0
BBX 12 19 -1 0
BITMAP
0400
0630
02C0
0380
0000
0000
0000
1FF0
1FE0
2040
0080
0100
0200
0400
0800
1000
2040
7FC0
FF80
ENDCHAR
STARTCHAR 017F
ENCODING 383
SWIDTH 288 0
DWIDTH 8 0
BBX 18 25 -5 -6
BITMAP
0007C0
000CC0
001800
001000
003000
003000
006000
006000
006000
006000
00C000
00C000
00C000
01C000
018000
018000
018000
038000
030000
030000
020000
060000
040000
C80000
700000
ENDCHAR
STARTCHAR 018F
ENCODING 399
SWIDTH 684 0
DWIDTH 19 0
BBX 17 19 2 0
BITMAP
09F000
0E1C00
180600
100700
100380
000380
000380
000380
000380
FFFF80
E00380
E00380
E00300
C00700
E00600
E00C00
601C00
703000
3FE000
ENDCHAR
STARTCHAR 0192
ENCODING 402
SWIDTH 504 0
DWIDTH 14 0
BBX 14 25 0 -6
BITMAP
0038
006C
0048
00C0
00C0
00C0
0180
07F0
0180
0180
0380
0300
0300
0300
0700
0600
0600
0600
0600
0C00
0C00
0800
C800
D000
6000
ENDCHAR
STARTCHAR 01A0
ENCODING 416
SWIDTH 720 0
DWIDTH 20 0
BBX 20 19 2 0
BITMAP
007C30
018730
060390
0C01E0
1C01C0
3801C0
3001C0
7001C0
6001C0
E001C0
E00380
E00380
E00300
C00700
E00E00
E00C00
601800
703000
3FC000
ENDCHAR
STARTCHAR 01A1
ENCODING 417
SWIDTH 540 0
DWIDTH 15 0
BBX 15 13 1 0
BITMAP
0006
07CE
1866
3038
7030
6030
E070
C060
C060
C0C0
C0C0
C180
7E00
ENDCHAR
STARTCHAR 01AF
ENCODING 431
SWIDTH 756 0
DWIDTH 21 0
BBX 22 21 3 1
BITMAP
00000C
00000C
000008
7F03F0
180080
180080
380100
300100
300100
700200
700200
600200
600400
E00400
C00400
C00400
C00800
E00800
601000
702000
3FC000
ENDCHAR
STARTCHAR 01B0
ENCODING 432
SWIDTH 540 0
DWIDTH 15 0
BBX 15 12 1 0
BITMAP
3836
F836
B066
3078
3060
70C0
61C0
62C0
62C0
C590
E9A0
F1C0
ENDCHAR
STARTCHAR 01CD
ENCODING 461
SWIDTH 612 0
DWIDTH 17 0
BBX 20 24 -1 0
BITMAP
000430
000660
0003C0
000380
000000
000000
000200
000600
000E00
000E00
001600
002E00
006E00
004E00
008C00
010C00
010C00
03FC00
040C00
080C00
080C00
101C00
301C00
F87F00
ENDCHAR
STARTCHAR 01CE
ENCODING 462
SWIDTH 504 0
DWIDTH 14 0
BBX 13 19 1 0
BITMAP
0208
0210
0160
01C0
0000
0000
0000
07B0
0870
3060
3060
6060
60C0
C0C0
C1C0
C1C0
C390
EDA0
F1C0
ENDCHAR
STARTCHAR 01CF
ENCODING 463
SWIDTH 324 0
DWIDTH 9 0
BBX 14 24 -1 0
BITMAP
0104
0098
00F0
00E0
0000
0000
03F0
01C0
0180
0180
0380
0380
0300
0300
0700
0600
0600
0E00
0E00
0C00
0C00
1C00
1C00
FF00
ENDCHAR
STARTCHAR 01D0
ENCODING 464
SWIDTH 288 0
DWIDTH 8 0
BBX 10 19 1 0
BITMAP
0040
1180
1B00
1E00
0000
0000
0000
7800
1800
1800
3000
3000
3000
6000
6000
6000
6800
D000
E000
ENDCHAR
STARTCHAR 01D1
ENCODING 465
SWIDTH 720 0
DWIDTH 20 0
BBX 18 24 2 0
BITMAP
002180
003300
001E00
001C00
000000
007C00
018700
060380
0C0180
1C01C0
3801C0
3001C0
7001C0
6001C0
E001C0
E00380
E00380
E00300
C00700
E00E00
E00C00
601800
703000
3FC000
ENDCHAR
STARTCHAR 01D2
ENCODING 466
SWIDTH 504 0
DWIDTH 14 0
BBX 13 19 1 0
BITMAP
0200
0318
0160
01C0
0000
0000
0000
07C0
1860
3030
7030
6030
E070
C060
C060
C0C0
C0C0
C180
7E00
ENDCHAR
STARTCHAR 01D3
ENCODING 467
SWIDTH 720 0
DWIDTH 20 0
BBX 19 24 3 0
BITMAP
008200
004C00
007800
007000
000000
000000
7F03E0
180080
180080
380100
300100
300100
700200
700200
600200
600400
E00400
C00400
C00400
C00800
E00800
601000
702000
3FC000
ENDCHAR
STARTCHAR 01D4
ENCODING 468
SWIDTH 504 0
DWIDTH 14 0
BBX 12 18 1 1
BITMAP
0230
0340
03C0
0000
0000
0000
3830
F830
B060
3060
3060
70C0
61C0
62C0
62C0
C590
E9A0
F1C0
ENDCHAR
STARTCHAR 01D5
ENCODING 469
SWIDTH 720 0
DWIDTH 20 0
BBX 19 25 3 0
BITMAP
007F00
007E00
000000
00CC00
00CC00
000000
000000
7F03E0
180080
180080
380100
300100
300100
700200
700200
600200
600400
E00400
C00400
C00400
C00800
E00800
601000
702000
3FC000
ENDCHAR
STARTCHAR 01D6
ENCODING 470
SWIDTH 504 0
DWIDTH 14 0
BBX 13 21 1 0
BITMAP
07F8
07F8
0000
0000
0670
0E70
0420
0000
0000
3830
F830
B060
3060
3060
70C0
61C0
62C0
62C0
C590
E9A0
F1C0
ENDCHAR
STARTCHAR 01D7
ENCODING 471
SWIDTH 720 0
DWIDTH 20 0
BBX 19 25 3 0
BITMAP
001C00
001000
000000
00CC00
00CC00
000000
000000
7F03E0
180080
180080
380100
300100
300100
700200
700200
600200
600400
E00400
C00400
C00400
C00800
E00800
601000
702000
3FC000
ENDCHAR
STARTCHAR 01D8
ENCODING 472
SWIDTH 504 0
DWIDTH 14 0
BBX 12 23 1 0
BITMAP
0070
0060
00C0
0080
0080
0000
0670
0E70
0420
0000
0000
3830
F830
B060
3060
3060
70C0
61C0
62C0
62C0
C590
E9A0
F1C0
ENDCHAR
STARTCHAR 01D9
ENCODING 473
SWIDTH 720 0
DWIDTH 20 0
BBX 19 25 3 0
BITMAP
000200
003C00
003800
00CC00
00CC00
000000
000000
7F03E0
180080
180080
380100
300100
300100
700200
700200
600200
600400
E00400
C00400
C00400
C00800
E00800
601000
702000
3FC000
ENDCHAR
STARTCHAR 01DA
ENCODING 474
SWIDTH 504 0
DWIDTH 14 0
BBX 13 22 1 0
BITMAP
0208
0130
01E0
01C0
0000
0670
0E70
0420
0000
0000
3830
F830
B060
3060
3060
70C0
61C0
62C0
62C0
C590
E9A0
F1C0
ENDCHAR
STARTCHAR 01DB
ENCODING 475
SWIDTH 720 0
DWIDTH 20 0
BBX 19 25 3 0
BITMAP
003000
001000
000800
00CC00
00CC00
000000
000000
7F03E0
180080
180080
380100
300100
300100
700200
700200
600200
600400
E00400
C00400
C00400
C00800
E00800
601000
702000
3FC000
ENDCHAR
STARTCHAR 01DC
ENCODING 476
SWIDTH 504 0
DWIDTH 14 0
BBX 12 23 1 0
BITMAP
0300
0380
0180
0080
0040
0000
0670
0E70
0420
0000
0000
3830
F830
B060
3060
3060
70C0
61C0
62C0
62C0
C590
E9A0
F1C0
ENDCHAR
STARTCHAR 01FA
ENCODING 506
SWIDTH 612 0
DWIDTH 17 0
BBX 19 28 -1 0
BITMAP
000060
0000C0
000080
000080
000000
000780
000440
000440
000480
000300
000200
000600
000E00
000E00
001600
002E00
006E00
004E00
008C00
010C00
010C00
03FC00
040C00
080C00
080C00
101C00
301C00
F87F00
ENDCHAR
STARTCHAR 01FB
ENCODING 507
SWIDTH 504 0
DWIDTH 14 0
BBX 13 25 1 0
BITMAP
0038
0030
0020
0040
0040
0000
01E0
0120
0210
0120
00C0
0000
0000
07B0
0870
3060
3060
6060
60C0
C0C0
C1C0
C1C0
C390
EDA0
F1C0
ENDCHAR
STARTCHAR 01FC
ENCODING 508
SWIDTH 900 0
DWIDTH 25 0
BBX 26 24 -1 0
BITMAP
00001C00
00001800
00003000
00002000
00000000
00000000
0007FFC0
0002C0C0
0005C040
00098080
00098000
00138400
00238400
00431800
0083F800
00870800
01FE0800
02060000
040E0000
080E0100
080C0200
100C0600
301C0E00
F87FFC00
ENDCHAR
STARTCHAR 01FD
ENCODING 509
SWIDTH 684 0
DWIDTH 19 0
BBX 17 19 1 0
BITMAP
001C00
003800
003000
002000
000000
000000
000000
07AF80
187180
306180
306100
60C300
60CC00
C1F000
C1C000
C3C000
C5C100
ECC200
F0FC00
ENDCHAR
STARTCHAR 01FE
ENCODING 510
SWIDTH 720 0
DWIDTH 20 0
BBX 19 25 1 -1
BITMAP
000700
000E00
000C00
000800
000000
003C20
00C3E0
0301C0
0601C0
0E03E0
1C06E0
180CE0
3818E0
3030E0
7060E0
7041C0
7081C0
710180
620380
740700
780600
300C00
381800
4FE000
800000
ENDCHAR
STARTCHAR 01FF
ENCODING 511
SWIDTH 504 0
DWIDTH 14 0
BBX 14 20 0 -1
BITMAP
0070
0060
00C0
0080
0000
0000
000C
03E8
0C30
1838
3858
3098
7138
6230
6430
6860
7060
20C0
7B00
8400
ENDCHAR
STARTCHAR 0218
ENCODING 536
SWIDTH 504 0
DWIDTH 14 0
BBX 15 25 0 -6
BITMAP
01E2
071E
060E
0C04
0C04
0E04
0E00
0700
0780
03C0
01E0
00F0
0070
4030
4030
4030
6030
7060
DFC0
0000
0600
0600
0200
0400
0800
ENDCHAR
STARTCHAR 0219
ENCODING 537
SWIDTH 396 0
DWIDTH 11 0
BBX 10 18 0 -6
BITMAP
0FC0
10C0
1040
1800
1C00
0E00
0F00
0700
8300
8300
C300
E600
1800
1800
3800
1800
1000
6000
ENDCHAR
STARTCHAR 021A
ENCODING 538
SWIDTH 540 0
DWIDTH 15 0
BBX 16 24 2 -6
BITMAP
3FFF
21C2
4182
4182
0382
0300
0300
0700
0700
0600
0600
0E00
0C00
0C00
1C00
1C00
1C00
FF00
0000
3000
3800
1000
3000
4000
ENDCHAR
STARTCHAR 021B
ENCODING 539
SWIDTH 288 0
DWIDTH 8 0
BBX 8 21 0 -5
BITMAP
02
06
0C
3F
0C
18
18
18
18
30
30
30
64
68
70
00
60
60
60
40
80
ENDCHAR
STARTCHAR 0259
ENCODING 601
SWIDTH 432 0
DWIDTH 12 0
BBX 11 12 0 0
BITMAP
0FC0
10E0
2060
0060
0060
01E0
0E60
30C0
60C0
4180
C300
7C00
ENDCHAR
STARTCHAR 02C6
ENCODING 710
SWIDTH 324 0
DWIDTH 9 0
BBX 6 4 4 15
BITMAP
1C
3C
64
84
ENDCHAR
STARTCHAR 02C7
ENCODING 711
SWIDTH 324 0
DWIDTH 9 0
BBX 7 4 5 15
BITMAP
02
8C
D8
F0
ENDCHAR
STARTCHAR 02C9
ENCODING 713
SWIDTH 324 0
DWIDTH 9 0
BBX 8 1 4 17
BITMAP
FF
ENDCHAR
STARTCHAR 02D8
ENCODING 728
SWIDTH 324 0
DWIDTH 9 0
BBX 7 4 4 15
BITMAP
82
86
7C
78
ENDCHAR
STARTCHAR 02D9
ENCODING 729
SWIDTH 324 0
DWIDTH 9 0
BBX 3 3 6 15
BITMAP
E0
E0
40
ENDCHAR
STARTCHAR 02DA
ENCODING 730
SWIDTH 324 0
DWIDTH 9 0
BBX 5 5 5 14
BITMAP
78
88
88
C8
70
ENDCHAR
STARTCHAR 02DB
ENCODING 731
SWIDTH 324 0
DWIDTH 9 0
BBX 6 5 1 -5
BITMAP
40
C0
C0
E0
7C
ENDCHAR
STARTCHAR 02DC
ENCODING 732
SWIDTH 324 0
DWIDTH 9 0
BBX 8 3 3 16
BITMAP
F9
BF
0E
ENDCHAR
STARTCHAR 02DD
ENCODING 733
SWIDTH 324 0
DWIDTH 9 0
BBX 8 5 4 14
BITMAP
77
66
44
C8
88
ENDCHAR
STARTCHAR 0300
ENCODING 768
SWIDTH 0 0
DWIDTH 0 0
BBX 4 4 -3 20
BITMAP
E0
60
30
10
ENDCHAR
STARTCHAR 0301
ENCODING 769
SWIDTH 0 0
DWIDTH 0 0
BBX 4 4 -1 20
BITMAP
70
60
C0
80
ENDCHAR
STARTCHAR 0303
ENCODING 771
SWIDTH 0 0
DWIDTH 0 0
BBX 9 4 -7 20
BITMAP
7080
F900
9F00
0600
ENDCHAR
STARTCHAR 0309
ENCODING 777
SWIDTH 0 0
DWIDTH 0 0
BBX 4 5 -2 20
BITMAP
70
90
10
40
40
ENDCHAR
STARTCHAR 0323
ENCODING 803
SWIDTH 0 0
DWIDTH 0 0
BBX 3 2 -13 -4
BITMAP
E0
E0
ENDCHAR
STARTCHAR 037E
ENCODING 894
SWIDTH 324 0
DWIDTH 9 0
BBX 6 15 1 -3
BITMAP
0C
0C
00
00
00
00
00
00
00
00
60
60
60
60
80
ENDCHAR
STARTCHAR 0384
ENCODING 900
SWIDTH 324 0
DWIDTH 9 0
BBX 4 4 6 14
BITMAP
70
E0
C0
80
ENDCHAR
STARTCHAR 0385
ENCODING 901
SWIDTH 324 0
DWIDTH 9 0
BBX 10 5 2 14
BITMAP
0700
0600
6CC0
E9C0
0080
ENDCHAR
STARTCHAR 0386
ENCODING 902
SWIDTH 612 0
DWIDTH 17 0
BBX 16 19 -1 0
BITMAP
00E0
00C2
0186
010E
000E
0016
002E
006E
004E
008C
010C
010C
03FC
040C
080C
080C
101C
301C
F87F
ENDCHAR
STARTCHAR 0387
ENCODING 903
SWIDTH 324 0
DWIDTH 9 0
BBX 2 2 5 10
BITMAP
C0
C0
ENDCHAR
STARTCHAR 0388
ENCODING 904
SWIDTH 684 0
DWIDTH 19 0
BBX 18 19 1 0
BITMAP
300000
63FFC0
61C0C0
418040
818080
038000
030000
030400
030800
07F800
060800
060800
0E0000
0C0000
0C0100
1C0100
1C0200
1C0E00
FFFE00
ENDCHAR
STARTCHAR 0389
ENCODING 905
SWIDTH 792 0
DWIDTH 22 0
BBX 23 19 1 0
BITMAP
700000
63F0FE
61C038
418030
818030
038070
030060
030060
0700E0
07FFE0
0600C0
0600C0
0E01C0
0C0180
0C0180
1C0380
1C0380
1C0300
FF1FC0
ENDCHAR
STARTCHAR 038A
ENCODING 906
SWIDTH 396 0
DWIDTH 11 0
BBX 12 19 1 0
BITMAP
7000
63F0
61C0
4180
8180
0380
0300
0300
0300
0700
0600
0600
0E00
0C00
0C00
0C00
1C00
1C00
FF00
ENDCHAR
STARTCHAR 038C
ENCODING 908
SWIDTH 720 0
DWIDTH 20 0
BBX 18 19 2 0
BITMAP
707800
618700
460380
8C0180
9C01C0
3801C0
3001C0
7001C0
6001C0
E001C0
E00380
E00380
E00300
C00700
E00E00
E00C00
601800
703000
3FC000
ENDCHAR
STARTCHAR 038E
ENCODING 910
SWIDTH 648 0
DWIDTH 18 0
BBX 20 19 1 0
BITMAP
300000
63F1F0
61C0C0
41C080
80C100
00C200
00E200
006400
006800
007800
007000
007000
006000
006000
00E000
00C000
00C000
01C000
07F000
ENDCHAR
STARTCHAR 038F
ENCODING 911
SWIDTH 720 0
DWIDTH 20 0
BBX 19 19 1 0
BITMAP
703C00
61C380
6701C0
4E00E0
9C00E0
1C00E0
3800E0
3800E0
3800E0
3000E0
3001C0
380180
380380
1C0700
0E3C80
824080
C24100
FE7F00
FC7F00
ENDCHAR
STARTCHAR 0390
ENCODING 912
SWIDTH 288 0
DWIDTH 8 0
BBX 10 19 1 0
BITMAP
0700
0E00
EDC0
E9C0
4080
0000
0000
7800
1800
1800
3000
3000
3000
6000
6000
6000
E800
D000
E000
ENDCHAR
STARTCHAR 0391
ENCODING 913
SWIDTH 612 0
DWIDTH 17 0
BBX 16 18 -1 1
BITMAP
0002
0006
000E
000E
0016
002E
006E
004E
008C
010C
010C
03FC
040C
080C
080C
101C
301C
F87F
ENDCHAR
STARTCHAR 0392
ENCODING 914
SWIDTH 612 0
DWIDTH 17 0
BBX 16 18 0 0
BITMAP
07FE
0387
0303
0303
0303
0707
060E
063C
0FF0
0C1C
0C1C
1C0E
180E
180E
181C
381C
3078
FFE0
ENDCHAR
STARTCHAR 0393
ENCODING 915
SWIDTH 576 0
DWIDTH 16 0
BBX 19 18 -1 0
BITMAP
07FFE0
01C060
018020
018040
038000
038000
030000
030000
070000
060000
060000
0E0000
0E0000
0C0000
1C0000
1C0000
1C0000
FF0000
ENDCHAR
STARTCHAR 0394
ENCODING 916
SWIDTH 576 0
DWIDTH 16 0
BBX 15 19 -1 0
BITMAP
0002
0002
0006
000E
0016
0016
002E
004E
008E
018C
010C
020C
040C
080C
180C
100C
200C
400C
FFFC
ENDCHAR
STARTCHAR 0395
ENCODING 917
SWIDTH 612 0
DWIDTH 17 0
BBX 17 18 0 0
BITMAP
07FF80
038180
030080
030080
030000
070000
060800
061800
0FF000
0C1000
0C1000
1C0000
1C0000
180200
180200
380400
381C00
FFFC00
ENDCHAR
STARTCHAR 0396
ENCODING 918
SWIDTH 540 0
DWIDTH 15 0
BBX 17 18 0 0
BITMAP
0FFF80
080700
100E00
001C00
003800
003800
007000
00E000
01C000
038000
038000
070000
0E0000
1C0200
380400
380400
701C00
FFF800
ENDCHAR
STARTCHAR 0397
ENCODING 919
SWIDTH 720 0
DWIDTH 20 0
BBX 23 18 -1 0
BITMAP
03F0FE
01C038
018030
018030
038070
038060
030060
0300E0
07FFE0
0600C0
0600C0
0E01C0
0C0180
0C0180
0C0380
1C0380
1C0300
FF1FE0
ENDCHAR
STARTCHAR 0398
ENCODING 920
SWIDTH 720 0
DWIDTH 20 0
BBX 18 19 2 0
BITMAP
007800
018700
060380
0C0180
1C01C0
3801C0
3001C0
7209C0
6219C0
E3F1C0
E7F380
E41380
E00300
E00700
E00600
E00C00
601800
703000
3FC000
ENDCHAR
STARTCHAR 0399
ENCODING 921
SWIDTH 324 0
DWIDTH 9 0
BBX 12 18 -1 0
BITMAP
03F0
01C0
0180
0180
0380
0380
0300
0300
0700
0600
0600
0E00
0E00
0C00
0C00
1C00
1C00
FF00
ENDCHAR
STARTCHAR 039A
ENCODING 922
SWIDTH 684 0
DWIDTH 19 0
BBX 21 18 -1 0
BITMAP
03F0F8
01C0C0
018180
018200
038C00
031800
032000
03C000
07C000
06E000
067000
0E3000
0C3800
0C1C00
1C0C00
1C0E00
1C0F00
FF1FE0
ENDCHAR
STARTCHAR 039B
ENCODING 923
SWIDTH 612 0
DWIDTH 17 0
BBX 16 18 -1 1
BITMAP
0002
0006
000E
000E
001E
002E
006E
004E
008C
010C
010C
020C
040C
080C
081C
101C
301C
F87F
ENDCHAR
STARTCHAR 039C
ENCODING 924
SWIDTH 828 0
DWIDTH 23 0
BBX 26 18 -1 0
BITMAP
03C003C0
01C00700
01C00F00
01C01E00
02C01E00
02C02E00
02E04C00
02E0CC00
04E09C00
04611800
04631800
08623800
08643800
08683000
08783000
10707000
10607000
FC43FC00
ENDCHAR
STARTCHAR 039D
ENCODING 925
SWIDTH 684 0
DWIDTH 19 0
BBX 22 18 -1 0
BITMAP
07807C
01C020
01C020
01E020
02E040
026040
027040
023040
043080
043880
041880
081D00
080D00
080D00
080F00
100600
100600
FC0200
ENDCHAR
STARTCHAR 039E
ENCODING 926
SWIDTH 648 0
DWIDTH 18 0
BBX 19 18 0 0
BITMAP
07FFE0
07FFE0
080040
080040
000000
000000
020400
020400
03FC00
07FC00
040800
000800
400100
400100
400200
400200
FFFE00
FFFC00
ENDCHAR
STARTCHAR 039F
ENCODING 927
SWIDTH 720 0
DWIDTH 20 0
BBX 18 19 2 0
BITMAP
007C00
018700
060380
0C0180
1C01C0
3801C0
3001C0
7001C0
6001C0
E001C0
E00380
E00380
E00300
C00700
E00E00
E00C00
601800
703000
3FC000
ENDCHAR
STARTCHAR 03A0
ENCODING 928
SWIDTH 720 0
DWIDTH 20 0
BBX 23 18 -1 0
BITMAP
07FFFE
01C038
018030
018030
038070
038060
030060
0300E0
0700E0
0600C0
0600C0
0E01C0
0E0180
0C0180
0C0380
1C0380
1C0380
FF1FC0
ENDCHAR
STARTCHAR 03A1
ENCODING 929
SWIDTH 612 0
DWIDTH 17 0
BBX 18 18 -1 0
BITMAP
03FF00
01C1C0
01C1C0
0180C0
0180C0
0381C0
030180
030380
07DE00
072000
060000
0E0000
0E0000
0C0000
0C0000
1C0000
1C0000
FF0000
ENDCHAR
STARTCHAR 03A3
ENCODING 931
SWIDTH 612 0
DWIDTH 17 0
BBX 19 18 -1 0
BITMAP
07FFE0
038020
038020
01C020
00C000
00E000
006000
007000
002000
004000
008000
030000
060000
0C0100
180200
200600
7FFE00
FFFC00
ENDCHAR
STARTCHAR 03A4
ENCODING 932
SWIDTH 540 0
DWIDTH 15 0
BBX 16 18 2 0
BITMAP
3FFF
21C2
4182
4182
0382
0300
0300
0700
0700
0600
0600
0E00
0C00
0C00
1C00
1C00
1C00
FF00
ENDCHAR
STARTCHAR 03A5
ENCODING 933
SWIDTH 540 0
DWIDTH 15 0
BBX 15 18 3 0
BITMAP
7E3E
3818
1810
1820
1C60
0C40
0C80
0D00
0F00
0600
0E00
0C00
0C00
1C00
1800
1800
3800
FE00
ENDCHAR
STARTCHAR 03A6
ENCODING 934
SWIDTH 756 0
DWIDTH 21 0
BBX 19 18 2 0
BITMAP
00FF00
003800
003800
07FF00
1C7180
3870C0
7060E0
60E0E0
E0E0E0
E0E0E0
E0C1C0
E1C180
61C380
318E00
0FF000
038000
038000
1FE000
ENDCHAR
STARTCHAR 03A7
ENCODING 935
SWIDTH 612 0
DWIDTH 17 0
BBX 22 18 -2 0
BITMAP
01F07C
00E020
006040
006080
007100
007200
003400
003800
003800
003800
005800
009C00
011C00
020C00
040C00
080E00
180E00
FC3FC0
ENDCHAR
STARTCHAR 03A8
ENCODING 936
SWIDTH 720 0
DWIDTH 20 0
BBX 18 19 4 0
BITMAP
800040
63F180
61C300
618300
E18700
E18600
C38600
C30E00
C30C00
471800
667000
1F8000
0E0000
0E0000
0C0000
0C0000
1C0000
1C0000
FF0000
ENDCHAR
STARTCHAR 03A9
ENCODING 937
SWIDTH 720 0
DWIDTH 20 0
BBX 20 19 0 0
BITMAP
001E00
00E1C0
0380E0
070070
0E0070
0E0070
1C0070
1C0070
1C0070
180070
1800E0
1800C0
1C01C0
0E0300
071E40
412040
612080
7F3F80
FE3F80
ENDCHAR
STARTCHAR 03AA
ENCODING 938
SWIDTH 324 0
DWIDTH 9 0
BBX 13 23 -1 0
BITMAP
0318
0398
0110
0000
0000
03F0
01C0
0180
0180
0380
0380
0300
0300
0700
0600
0600
0E00
0E00
0C00
0C00
1C00
1C00
FF00
ENDCHAR
STARTCHAR 03AB
ENCODING 939
SWIDTH 540 0
DWIDTH 15 0
BBX 15 23 3 0
BITMAP
0630
0730
0210
0000
0000
7E3E
3818
1810
1820
1C60
0C40
0C80
0D00
0F00
0600
0E00
0C00
0C00
1C00
1800
1800
3800
FE00
ENDCHAR
STARTCHAR 03AC
ENCODING 940
SWIDTH 540 0
DWIDTH 15 0
BBX 13 19 1 0
BITMAP
00E0
00C0
0080
0100
0100
0000
0000
0F98
18B0
30B0
7060
6060
E0C0
C0C0
C1C0
C1C0
C148
C238
7C30
ENDCHAR
STARTCHAR 03AD
ENCODING 941
SWIDTH 396 0
DWIDTH 11 0
BBX 11 19 0 0
BITMAP
01C0
0380
0300
0200
0000
0000
0000
0FC0
1860
3060
3000
1000
0F00
3800
6000
E000
C180
6180
7F00
ENDCHAR
STARTCHAR 03AE
ENCODING 942
SWIDTH 504 0
DWIDTH 14 0
BBX 12 25 1 -6
BITMAP
00E0
00C0
0080
0100
0100
0000
0000
38E0
5970
9A60
3460
3860
3860
70C0
70C0
60C0
60C0
C180
C180
0180
0380
0300
0300
0300
0300
ENDCHAR
STARTCHAR 03AF
ENCODING 943
SWIDTH 288 0
DWIDTH 8 0
BBX 8 19 1 0
BITMAP
07
06
0C
08
00
00
00
78
18
18
30
30
30
60
60
60
68
D0
E0
ENDCHAR
STARTCHAR 03B0
ENCODING 944
SWIDTH 468 0
DWIDTH 13 0
BBX 12 19 1 0
BITMAP
01C0
0180
1930
1A30
0200
0000
0000
3980
F840
3060
3060
3060
7060
6060
6040
60C0
6180
6100
7E00
ENDCHAR
STARTCHAR 03B1
ENCODING 945
SWIDTH 540 0
DWIDTH 15 0
BBX 13 12 1 0
BITMAP
0F98
18B0
30B0
7060
6060
E0C0
C0C0
C1C0
C1C0
C148
C238
7C30
ENDCHAR
STARTCHAR 03B2
ENCODING 946
SWIDTH 504 0
DWIDTH 14 0
BBX 16 25 -2 -6
BITMAP
007E
00C3
00C3
0183
0183
0307
0306
030C
0770
0608
060C
060C
0C0C
0C0C
0C0C
181C
1818
1830
1EE0
3100
3000
3000
6000
6000
C000
ENDCHAR
STARTCHAR 03B3
ENCODING 947
SWIDTH 396 0
DWIDTH 11 0
BBX 10 18 1 -6
BITMAP
61C0
F1C0
91C0
1080
1080
1100
1100
1200
1400
1400
0800
1000
1000
3000
6000
6000
E000
C000
ENDCHAR
STARTCHAR 03B4
ENCODING 948
SWIDTH 468 0
DWIDTH 13 0
BBX 12 19 1 0
BITMAP
03E0
0470
0420
0600
0300
0380
01C0
01C0
06E0
1860
3060
6060
E060
C0E0
C0C0
C1C0
C180
C300
7E00
ENDCHAR
STARTCHAR 03B5
ENCODING 949
SWIDTH 396 0
DWIDTH 11 0
BBX 11 12 0 0
BITMAP
0FC0
1860
3060
3000
1000
0F00
3800
6000
E000
C180
6180
7F00
ENDCHAR
STARTCHAR 03B6
ENCODING 950
SWIDTH 396 0
DWIDTH 11 0
BBX 14 23 1 -4
BITMAP
0400
0C3C
06F0
0300
0400
0800
0800
1000
2000
4000
4000
C000
8000
8000
8000
8000
C000
FE00
7F00
0300
0100
0100
1E00
ENDCHAR
STARTCHAR 03B7
ENCODING 951
SWIDTH 504 0
DWIDTH 14 0
BBX 12 18 1 -6
BITMAP
38E0
5970
9A60
3460
3860
3860
70C0
70C0
60C0
60C0
C180
C180
0180
0380
0300
0300
0300
0300
ENDCHAR
STARTCHAR 03B8
ENCODING 952
SWIDTH 504 0
DWIDTH 14 0
BBX 13 19 1 0
BITMAP
01F0
0210
0418
0C18
1818
1818
3018
3018
7038
7FF0
6030
6070
E060
C060
C0C0
C0C0
4180
4100
3E00
ENDCHAR
STARTCHAR 03B9
ENCODING 953
SWIDTH 288 0
DWIDTH 8 0
BBX 5 12 1 0
BITMAP
78
18
18
30
30
30
60
60
60
68
D0
E0
ENDCHAR
STARTCHAR 03BA
ENCODING 954
SWIDTH 468 0
DWIDTH 13 0
BBX 13 12 1 0
BITMAP
F838
3878
3180
3300
3400
6E00
7600
6600
E700
C320
C3E0
C1C0
ENDCHAR
STARTCHAR 03BB
ENCODING 955
SWIDTH 432 0
DWIDTH 12 0
BBX 12 19 -1 0
BITMAP
0380
0480
0480
0080
0080
0080
0080
0080
0180
0180
0380
0780
0680
0C80
1C80
1880
3090
70D0
E060
ENDCHAR
STARTCHAR 03BC
ENCODING 956
SWIDTH 504 0
DWIDTH 14 0
BBX 14 18 -1 -6
BITMAP
060C
0E0C
0C18
0C18
0C18
1830
1830
1830
3060
30E0
3164
3E38
4000
4000
C000
C000
C000
8000
ENDCHAR
STARTCHAR 03BD
ENCODING 957
SWIDTH 432 0
DWIDTH 12 0
BBX 11 12 1 0
BITMAP
F060
3060
3020
3820
1840
1840
1880
1900
1A00
1C00
1800
1000
ENDCHAR
STARTCHAR 03BE
ENCODING 958
SWIDTH 432 0
DWIDTH 12 0
BBX 13 23 1 -4
BITMAP
0418
0470
06E0
0100
0200
0400
04E0
07E0
0800
3000
2000
4000
8000
8000
8000
8000
C000
FE00
7F80
0380
0080
0080
1F00
ENDCHAR
STARTCHAR 03BF
ENCODING 959
SWIDTH 504 0
DWIDTH 14 0
BBX 12 12 1 0
BITMAP
07C0
1860
3030
7030
6030
E070
C060
C060
C0C0
C0C0
C180
7E00
ENDCHAR
STARTCHAR 03C0
ENCODING 960
SWIDTH 504 0
DWIDTH 14 0
BBX 14 12 1 0
BITMAP
3FFC
7FF8
88C0
08C0
0980
1180
1180
3100
7300
6320
E320
C3C0
ENDCHAR
STARTCHAR 03C1
ENCODING 961
SWIDTH 468 0
DWIDTH 13 0
BBX 14 18 -2 -6
BITMAP
01F8
030C
060C
060C
0E0C
0C0C
0C0C
0C18
1818
1830
1870
34C0
3300
3000
3000
6000
6000
C000
ENDCHAR
STARTCHAR 03C2
ENCODING 962
SWIDTH 396 0
DWIDTH 11 0
BBX 11 16 1 -4
BITMAP
0FC0
10E0
2060
4000
8000
8000
8000
8000
8000
E000
FE00
7F00
0300
0100
0200
3C00
ENDCHAR
STARTCHAR 03C3
ENCODING 963
SWIDTH 504 0
DWIDTH 14 0
BBX 14 12 1 0
BITMAP
07FC
1FF8
3880
7040
6040
E0E0
C0E0
C0C0
C0C0
C180
C300
7E00
ENDCHAR
STARTCHAR 03C4
ENCODING 964
SWIDTH 360 0
DWIDTH 10 0
BBX 10 12 1 0
BITMAP
3FC0
7F80
8C00
0800
1800
1800
1000
3000
3000
3200
3600
3C00
ENDCHAR
STARTCHAR 03C5
ENCODING 965
SWIDTH 468 0
DWIDTH 13 0
BBX 11 12 1 0
BITMAP
3980
F840
3060
3060
3060
7060
6060
6040
60C0
6180
6100
7E00
ENDCHAR
STARTCHAR 03C6
ENCODING 966
SWIDTH 540 0
DWIDTH 15 0
BBX 13 18 1 -6
BITMAP
0C70
1898
3198
6118
6318
E318
C218
C218
C630
C460
6440
7F80
0800
0800
1800
1800
1000
1000
ENDCHAR
STARTCHAR 03C7
ENCODING 967
SWIDTH 432 0
DWIDTH 12 0
BBX 15 18 -2 -6
BITMAP
0E0E
0A0C
1218
0230
0170
0160
01C0
0180
0380
0300
0700
0F00
0D00
1900
3080
7090
60F0
C060
ENDCHAR
STARTCHAR 03C8
ENCODING 968
SWIDTH 612 0
DWIDTH 17 0
BBX 16 18 2 -6
BITMAP
E187
610C
610C
611C
6318
E218
C238
C630
C430
C460
4CC0
2980
1E00
1800
1800
1000
1000
3000
ENDCHAR
STARTCHAR 03C9
ENCODING 969
SWIDTH 720 0
DWIDTH 20 0
BBX 17 12 1 0
BITMAP
0F0600
180100
306180
70E180
60C180
E0C180
C08180
C08380
C10300
C18300
428600
7C7C00
ENDCHAR
STARTCHAR 03CA
ENCODING 970
SWIDTH 288 0
DWIDTH 8 0
BBX 9 18 1 0
BITMAP
3180
7380
3100
0000
0000
0000
7800
1800
1800
3000
3000
3000
6000
6000
6000
6800
D000
E000
ENDCHAR
STARTCHAR 03CB
ENCODING 971
SWIDTH 468 0
DWIDTH 13 0
BBX 11 18 1 0
BITMAP
18C0
1CC0
08C0
0000
0000
0000
3980
F840
3060
3060
3060
7060
6060
6040
60C0
6180
6100
7E00
ENDCHAR
STARTCHAR 03CC
ENCODING 972
SWIDTH 504 0
DWIDTH 14 0
BBX 12 19 1 0
BITMAP
00E0
00C0
0180
0100
0000
0000
0000
07C0
1860
3030
7030
6030
E070
C060
C060
C0C0
C0C0
C180
7E00
ENDCHAR
STARTCHAR 03CD
ENCODING 973
SWIDTH 468 0
DWIDTH 13 0
BBX 11 19 1 0
BITMAP
0380
0300
0300
0200
0400
0000
0000
3980
F840
3060
3060
3060
7060
6060
6040
60C0
6180
6100
7E00
ENDCHAR
STARTCHAR 03CE
ENCODING 974
SWIDTH 684 0
DWIDTH 19 0
BBX 17 19 1 0
BITMAP
001C00
001800
003000
002000
000000
000000
000000
0F0600
180100
306180
70E180
60C180
E0C180
C08180
C08380
C10300
C18300
428600
7C7C00
ENDCHAR
STARTCHAR 0401
ENCODING 1025
SWIDTH 612 0
DWIDTH 17 0
BBX 17 24 0 0
BITMAP
002100
007380
007380
000000
000000
000000
07FF80
038180
030080
030080
030000
070000
060800
061800
0FF000
0C1000
0C1000
1C0000
1C0000
180200
180200
380400
381C00
FFFC00
ENDCHAR
STARTCHAR 0402
ENCODING 1026
SWIDTH 792 0
DWIDTH 22 0
BBX 18 18 3 0
BITMAP
7FFF00
418300
818200
838000
030000
030000
073F00
07C380
0781C0
0E01C0
0E01C0
0C01C0
0C01C0
1C0380
180380
180700
380600
FE7C00
ENDCHAR
STARTCHAR 0403
ENCODING 1027
SWIDTH 576 0
DWIDTH 16 0
BBX 19 24 -1 0
BITMAP
000E00
000C00
000800
000800
000000
000000
07FFE0
01C060
018020
018040
038000
038000
030000
030000
070000
060000
060000
0E0000
0E0000
0C0000
1C0000
1C0000
1C0000
FF0000
ENDCHAR
STARTCHAR 0404
ENCODING 1028
SWIDTH 684 0
DWIDTH 19 0
BBX 18 19 2 0
BITMAP
007C40
018380
060180
0C0180
180080
380100
700000
700000
600000
FFC000
E00000
E00000
E00000
E00000
E00000
700200
700400
381800
1FE000
ENDCHAR
STARTCHAR 0405
ENCODING 1029
SWIDTH 504 0
DWIDTH 14 0
BBX 15 19 0 0
BITMAP
01E2
071E
060E
0C04
0C04
0E04
0E00
0700
0780
03C0
01E0
00F0
0070
4030
4030
4030
6030
7060
DFC0
ENDCHAR
STARTCHAR 0406
ENCODING 1030
SWIDTH 324 0
DWIDTH 9 0
BBX 12 18 -1 0
BITMAP
03F0
01C0
0180
0180
0380
0380
0300
0300
0700
0600
0600
0E00
0E00
0C00
0C00
1C00
1C00
FF00
ENDCHAR
STARTCHAR 0407
ENCODING 1031
SWIDTH 324 0
DWIDTH 9 0
BBX 13 23 -1 0
BITMAP
0318
0398
0110
0000
0000
03F0
01C0
0180
0180
0380
0380
0300
0300
0700
0600
0600
0E00
0E00
0C00
0C00
1C00
1C00
FF00
ENDCHAR
STARTCHAR 0408
ENCODING 1032
SWIDTH 432 0
DWIDTH 12 0
BBX 16 18 -1 0
BITMAP
007F
001C
0018
0038
0038
0030
0030
0070
0060
0060
00E0
00E0
00C0
00C0
6180
E180
E300
7E00
ENDCHAR
STARTCHAR 0409
ENCODING 1033
SWIDTH 936 0
DWIDTH 26 0
BBX 25 18 -1 0
BITMAP
00FFF800
00606000
0040E000
0040E000
0040C000
0080C000
0081C000
00818000
0181FE00
01038700
01038380
03030380
02070180
02070380
04060380
E4060700
E80E0E00
703FF800
ENDCHAR
STARTCHAR 040A
ENCODING 1034
SWIDTH 936 0
DWIDTH 26 0
BBX 25 18 -1 0
BITMAP
07F1F800
01C0E000
0180E000
0180C000
0380C000
0381C000
0301C000
03018000
07FFFE00
06038700
06030380
0E030380
0E070380
0C060380
0C060380
1C0E0700
1C0E0E00
FF3FF800
ENDCHAR
STARTCHAR 040B
ENCODING 1035
SWIDTH 792 0
DWIDTH 22 0
BBX 17 18 3 0
BITMAP
7FFF00
418300
818200
838000
030000
030000
073F00
07C380
078180
060180
0E0180
0C0380
0C0300
1C0300
180700
180600
380600
FE3F80
ENDCHAR
STARTCHAR 040C
ENCODING 1036
SWIDTH 648 0
DWIDTH 18 0
BBX 21 24 -1 0
BITMAP
000380
000600
000600
000400
000000
000030
03F078
01C0B8
018100
018100
038200
038200
030400
030800
07F000
063000
063800
0E1800
0E1C00
0C0C00
0C0E00
1C0600
1C0700
FF03C0
ENDCHAR
STARTCHAR 040D
ENCODING 1037
SWIDTH 720 0
DWIDTH 20 0
BBX 23 25 -1 0
BITMAP
001C00
000C00
000600
000200
000200
000000
000000
03F07E
01C038
01C070
0180F0
0381F0
038370
030660
030CE0
0718E0
0630C0
0620C0
0E41C0
0C8180
0D0180
0E0380
1C0380
1C0300
FF1FC0
ENDCHAR
STARTCHAR 040E
ENCODING 1038
SWIDTH 684 0
DWIDTH 19 0
BBX 18 23 3 1
BITMAP
030600
038E00
00D800
002000
000000
7E07C0
380100
180200
180600
1C0400
1C0800
0C0800
0C1000
0E3000
062000
064000
064000
078000
038000
030000
E20000
E40000
7C0000
ENDCHAR
STARTCHAR 040F
ENCODING 1039
SWIDTH 720 0
DWIDTH 20 0
BBX 23 23 -1 -5
BITMAP
03F07E
01C038
01C030
018030
038070
038060
030060
0300E0
0700E0
0600C0
0600C0
0E01C0
0E0180
0C0180
0C0380
1C0380
1C0700
FFFFE0
01E000
00C000
008000
008000
010000
ENDCHAR
STARTCHAR 0410
ENCODING 1040
SWIDTH 612 0
DWIDTH 17 0
BBX 16 18 -1 1
BITMAP
0002
0006
000E
000E
0016
002E
006E
004E
008C
010C
010C
03FC
040C
080C
080C
101C
301C
F87F
ENDCHAR
STARTCHAR 0411
ENCODING 1041
SWIDTH 576 0
DWIDTH 16 0
BBX 18 18 -1 0
BITMAP
03FFC0
01C0C0
018040
018080
038000
038000
030000
030000
07FC00
060E00
060700
0E0700
0E0700
0C0700
0C0700
1C0E00
183C00
FFF000
ENDCHAR
STARTCHAR 0412
ENCODING 1042
SWIDTH 612 0
DWIDTH 17 0
BBX 16 18 0 0
BITMAP
07FE
0387
0303
0303
0303
0707
060E
063C
0FF0
0C1C
0C1C
1C0E
180E
180E
181C
381C
3078
FFE0
ENDCHAR
STARTCHAR 0413
ENCODING 1043
SWIDTH 576 0
DWIDTH 16 0
BBX 19 18 -1 0
BITMAP
07FFE0
01C060
018020
018040
038000
038000
030000
030000
070000
060000
060000
0E0000
0E0000
0C0000
1C0000
1C0000
1C0000
FF0000
ENDCHAR
STARTCHAR 0414
ENCODING 1044
SWIDTH 648 0
DWIDTH 18 0
BBX 23 23 -3 -5
BITMAP
007FFE
003030
002030
002070
002060
004060
0040E0
0040E0
0040C0
0080C0
0081C0
010180
010180
020380
020380
040300
0C0700
3FFFC0
7001C0
6000C0
400080
800080
800080
ENDCHAR
STARTCHAR 0415
ENCODING 1045
SWIDTH 612 0
DWIDTH 17 0
BBX 17 18 0 0
BITMAP
07FF80
038180
030080
030080
030000
070000
060800
061800
0FF000
0C1000
0C1000
1C0000
1C0000
180200
180200
380400
381C00
FFFC00
ENDCHAR
STARTCHAR 0416
ENCODING 1046
SWIDTH 900 0
DWIDTH 25 0
BBX 28 19 -1 0
BITMAP
01000000
0783F0F0
07C1C1F0
0041C100
00418200
00418200
00438400
00430400
00431800
003FF000
00E77000
01C63000
03863800
070E1800
0E0C1C00
0E0C0C00
1C1C0E00
381C0E00
F07F0780
ENDCHAR
STARTCHAR 0417
ENCODING 1047
SWIDTH 504 0
DWIDTH 14 0
BBX 14 19 0 0
BITMAP
01E0
0E38
0818
081C
101C
0018
0038
0070
00E0
07C0
00E0
0070
0070
0070
0070
0070
00E0
81C0
7F80
ENDCHAR
STARTCHAR 0418
ENCODING 1048
SWIDTH 720 0
DWIDTH 20 0
BBX 23 18 -1 0
BITMAP
03F07E
01C038
01C070
0180F0
0381F0
038370
030660
030CE0
0718E0
0630C0
0620C0
0E41C0
0C8180
0D0180
0E0380
1C0380
1C0300
FF1FC0
ENDCHAR
STARTCHAR 0419
ENCODING 1049
SWIDTH 720 0
DWIDTH 20 0
BBX 23 24 -1 0
BITMAP
000800
001C30
000C70
0007C0
000000
000000
03F07E
01C038
01C070
0180F0
0381F0
038370
030660
030CE0
0718E0
0630C0
0620C0
0E41C0
0C8180
0D0180
0E0380
1C0380
1C0300
FF1FC0
ENDCHAR
STARTCHAR 041A
ENCODING 1050
SWIDTH 648 0
DWIDTH 18 0
BBX 21 19 -1 0
BITMAP
000030
03F078
01C0B8
018100
018100
038200
038200
030400
030800
07F000
063000
063800
0E1800
0E1C00
0C0C00
0C0E00
1C0600
1C0700
FF03C0
ENDCHAR
STARTCHAR 041B
ENCODING 1051
SWIDTH 684 0
DWIDTH 19 0
BBX 22 18 -1 0
BITMAP
00FFFC
006070
004060
0040E0
0040E0
0040C0
0080C0
0081C0
008180
010180
010380
010300
020300
020700
020700
E40600
EC0E00
783F80
ENDCHAR
STARTCHAR 041C
ENCODING 1052
SWIDTH 828 0
DWIDTH 23 0
BBX 26 18 -1 0
BITMAP
03C003C0
01C00700
01C00F00
01C01E00
02C01E00
02C02E00
02E04C00
02E0CC00
04E09C00
04611800
04631800
08623800
08643800
08683000
08783000
10707000
10607000
FC43FC00
ENDCHAR
STARTCHAR 041D
ENCODING 1053
SWIDTH 720 0
DWIDTH 20 0
BBX 23 18 -1 0
BITMAP
03F0FE
01C038
018030
018030
038070
038060
030060
0300E0
07FFE0
0600C0
0600C0
0E01C0
0C0180
0C0180
0C0380
1C0380
1C0300
FF1FE0
ENDCHAR
STARTCHAR 041E
ENCODING 1054
SWIDTH 720 0
DWIDTH 20 0
BBX 18 19 2 0
BITMAP
007C00
018700
060380
0C0180
1C01C0
3801C0
3001C0
7001C0
6001C0
E001C0
E00380
E00380
E00300
C00700
E00E00
E00C00
601800
703000
3FC000
ENDCHAR
STARTCHAR 041F
ENCODING 1055
SWIDTH 720 0
DWIDTH 20 0
BBX 23 18 -1 0
BITMAP
07FFFE
01C038
018030
018030
038070
038060
030060
0300E0
0700E0
0600C0
0600C0
0E01C0
0E0180
0C0180
0C0380
1C0380
1C0380
FF1FC0
ENDCHAR
STARTCHAR 0420
ENCODING 1056
SWIDTH 612 0
DWIDTH 17 0
BBX 18 18 -1 0
BITMAP
03FF00
01C1C0
01C1C0
0180C0
0180C0
0381C0
030180
030380
07DE00
072000
060000
0E0000
0E0000
0C0000
0C0000
1C0000
1C0000
FF0000
ENDCHAR
STARTCHAR 0421
ENCODING 1057
SWIDTH 684 0
DWIDTH 19 0
BBX 17 19 2 0
BITMAP
007C00
018380
060180
0C0180
180080
380100
700000
700000
600000
E00000
E00000
E00000
E00000
E00000
E00000
700200
700400
381800
1FE000
ENDCHAR
STARTCHAR 0422
ENCODING 1058
SWIDTH 540 0
DWIDTH 15 0
BBX 16 18 2 0
BITMAP
3FFF
21C2
4182
4182
0382
0300
0300
0700
0700
0600
0600
0E00
0C00
0C00
1C00
1C00
1C00
FF00
ENDCHAR
STARTCHAR 0423
ENCODING 1059
SWIDTH 684 0
DWIDTH 19 0
BBX 18 18 3 0
BITMAP
7E07C0
380100
180200
180600
1C0400
1C0800
0C0800
0C1000
0E3000
062000
064000
064000
078000
038000
030000
E20000
E40000
7C0000
ENDCHAR
STARTCHAR 0424
ENCODING 1060
SWIDTH 792 0
DWIDTH 22 0
BBX 20 18 2 0
BITMAP
007F00
001800
00FE00
0739C0
1C3060
383070
707070
607070
E06070
E06070
E0E060
E0C0E0
60C1C0
71C300
1DDC00
03A000
038000
0FE000
ENDCHAR
STARTCHAR 0425
ENCODING 1061
SWIDTH 612 0
DWIDTH 17 0
BBX 22 18 -2 0
BITMAP
01F07C
00E020
006040
006080
007100
007200
003400
003800
003800
003800
005800
009C00
011C00
020C00
040C00
080E00
180E00
FC3FC0
ENDCHAR
STARTCHAR 0426
ENCODING 1062
SWIDTH 720 0
DWIDTH 20 0
BBX 23 23 -1 -5
BITMAP
03F0FE
01C038
01C030
018030
038070
038060
030060
0300E0
0700E0
0600C0
0600C0
0E01C0
0E0180
0C0180
0C0380
1C0380
1C0780
FFFFE0
0000E0
0000C0
000040
000040
000080
ENDCHAR
STARTCHAR 0427
ENCODING 1063
SWIDTH 684 0
DWIDTH 19 0
BBX 17 18 4 0
BITMAP
FC3F80
700E00
700C00
600C00
601C00
E01C00
C01800
C01800
E03800
7FF000
3E3000
007000
007000
006000
006000
00E000
00E000
07F800
ENDCHAR
STARTCHAR 0428
ENCODING 1064
SWIDTH 1044 0
DWIDTH 29 0
BBX 31 18 0 0
BITMAP
07E1F87E
0380E038
0380C030
0300C030
0701C070
0701C060
06018060
060380E0
0E0380E0
0C0300C0
0C0301C0
1C0701C0
1C060180
18060180
180E0380
380E0300
380E0700
FFFFFFE0
ENDCHAR
STARTCHAR 0429
ENCODING 1065
SWIDTH 1044 0
DWIDTH 29 0
BBX 31 23 0 -5
BITMAP
07E1F87E
0380E038
0380C030
0300C030
0701C070
0701C060
06018060
060380E0
0E0380E0
0C0300C0
0C0301C0
1C0701C0
1C060180
18060180
180E0380
380E0300
381E0700
FFFFFFE0
000000C0
000000C0
00000040
00000080
00000080
ENDCHAR
STARTCHAR 042A
ENCODING 1066
SWIDTH 684 0
DWIDTH 19 0
BBX 15 18 2 0
BITMAP
3FE0
2180
4380
4380
0300
0300
0700
0600
07F8
0E1C
0E0E
0C0E
0C06
1C0E
180E
181C
3838
FFF0
ENDCHAR
STARTCHAR 042B
ENCODING 1067
SWIDTH 864 0
DWIDTH 24 0
BBX 27 18 -1 0
BITMAP
03F007E0
01C00380
01C00380
01800300
03800300
03800700
03000600
03000600
07FC0600
060E0E00
06070C00
0E070C00
0E071C00
0C071800
0C071800
1C0E3800
183C3800
FFF1FE00
ENDCHAR
STARTCHAR 042C
ENCODING 1068
SWIDTH 576 0
DWIDTH 16 0
BBX 16 18 -1 0
BITMAP
03F0
01C0
01C0
0180
0380
0380
0300
0300
07FC
060E
0607
0E07
0E07
0C07
0C07
1C0E
183C
FFF0
ENDCHAR
STARTCHAR 042D
ENCODING 1069
SWIDTH 648 0
DWIDTH 18 0
BBX 17 19 1 0
BITMAP
01F000
1E1C00
180E00
100700
200700
000380
000380
000380
000380
01FF80
000380
000300
000700
000600
000E00
800C00
401800
607000
1FC000
ENDCHAR
STARTCHAR 042E
ENCODING 1070
SWIDTH 1044 0
DWIDTH 29 0
BBX 30 19 -1 0
BITMAP
00000780
03F01860
01C06030
0180C038
01818018
0383801C
0387001C
0307001C
030E0018
07FE0038
060C0038
061C0038
0E1C0070
0E1C0060
0C1C00E0
0C0C01C0
1C0E0380
1C070700
FF03FC00
ENDCHAR
STARTCHAR 042F
ENCODING 1071
SWIDTH 648 0
DWIDTH 18 0
BBX 21 18 -1 0
BITMAP
007FF8
00E0E0
01C0E0
0380C0
0380C0
0381C0
038180
01C180
007F80
00E300
01C300
038300
070700
0E0600
1E0600
1C0E00
380E00
F03F80
ENDCHAR
STARTCHAR 0430
ENCODING 1072
SWIDTH 504 0
DWIDTH 14 0
BBX 12 12 1 0
BITMAP
07B0
0870
3060
3060
6060
60C0
C0C0
C1C0
C1C0
C390
EDA0
F1C0
ENDCHAR
STARTCHAR 0431
ENCODING 1073
SWIDTH 504 0
DWIDTH 14 0
BBX 13 19 1 0
BITMAP
0008
01F8
07E0
0C00
1000
1000
2000
27C0
5820
7030
7030
E030
E070
C070
C060
C0E0
C0C0
4180
3E00
ENDCHAR
STARTCHAR 0432
ENCODING 1074
SWIDTH 432 0
DWIDTH 12 0
BBX 11 12 1 0
BITMAP
0FC0
1860
3060
70C0
6300
EC00
F380
C180
C180
C180
C380
7E00
ENDCHAR
STARTCHAR 0433
ENCODING 1075
SWIDTH 396 0
DWIDTH 11 0
BBX 11 12 0 0
BITMAP
0FC0
30E0
0060
00C0
0180
0600
1800
6000
E000
C000
E080
7F00
ENDCHAR
STARTCHAR 0434
ENCODING 1076
SWIDTH 504 0
DWIDTH 14 0
BBX 12 19 1 0
BITMAP
0600
0100
00C0
0040
0060
0020
0030
07F0
1870
3030
7030
6030
E070
C060
C060
C0C0
C0C0
C180
7E00
ENDCHAR
STARTCHAR 0435
ENCODING 1077
SWIDTH 432 0
DWIDTH 12 0
BBX 11 12 1 0
BITMAP
07C0
1860
3060
20C0
6180
E700
F800
C000
C000
E040
F180
7E00
ENDCHAR
STARTCHAR 0436
ENCODING 1078
SWIDTH 936 0
DWIDTH 26 0
BBX 26 12 0 0
BITMAP
0F860F80
31C618C0
40C631C0
00C66080
00CC6000
00CCC000
00FFC000
0198C000
4198C000
C318C100
C618E200
FC307C00
ENDCHAR
STARTCHAR 0437
ENCODING 1079
SWIDTH 396 0
DWIDTH 11 0
BBX 10 12 0 0
BITMAP
1F80
20C0
20C0
00C0
0380
1C00
0300
0180
0180
0380
8700
7E00
ENDCHAR
STARTCHAR 0438
ENCODING 1080
SWIDTH 504 0
DWIDTH 14 0
BBX 12 12 1 0
BITMAP
3830
F830
B060
3060
3060
70C0
61C0
62C0
62C0
C590
E9A0
F1C0
ENDCHAR
STARTCHAR 0439
ENCODING 1081
SWIDTH 504 0
DWIDTH 14 0
BBX 12 19 1 0
BITMAP
0600
0610
07E0
0380
0000
0000
0000
3830
7830
B060
3060
3060
70C0
61C0
62C0
62C0
C590
E9A0
F1C0
ENDCHAR
STARTCHAR 043A
ENCODING 1082
SWIDTH 468 0
DWIDTH 13 0
BBX 12 12 1 0
BITMAP
7870
38F0
3100
3100
3200
6400
7E00
6600
6300
C300
C180
C1E0
ENDCHAR
STARTCHAR 043B
ENCODING 1083
SWIDTH 432 0
DWIDTH 12 0
BBX 12 12 -1 0
BITMAP
0FF0
0230
0470
0460
0460
0860
08C0
08C0
10C0
1190
A1A0
E1C0
ENDCHAR
STARTCHAR 043C
ENCODING 1084
SWIDTH 648 0
DWIDTH 18 0
BBX 18 12 -1 0
BITMAP
0F81C0
038180
058380
058580
058B80
098B00
099300
09A300
11A600
11C640
918680
E08700
ENDCHAR
STARTCHAR 043D
ENCODING 1085
SWIDTH 504 0
DWIDTH 14 0
BBX 12 12 1 0
BITMAP
7830
3860
3060
3060
30E0
7FC0
60C0
60C0
6180
C1A0
C1A0
C1C0
ENDCHAR
STARTCHAR 043E
ENCODING 1086
SWIDTH 504 0
DWIDTH 14 0
BBX 12 12 1 0
BITMAP
07C0
1860
3030
7030
6030
E070
C060
C060
C0C0
C0C0
C180
7E00
ENDCHAR
STARTCHAR 043F
ENCODING 1087
SWIDTH 504 0
DWIDTH 14 0
BBX 12 12 1 0
BITMAP
78E0
3960
3260
3460
3860
70C0
70C0
60C0
61C0
C190
C1A0
C1C0
ENDCHAR
STARTCHAR 0440
ENCODING 1088
SWIDTH 504 0
DWIDTH 14 0
BBX 16 18 -3 -6
BITMAP
0F9E
03E7
0383
0383
0303
0707
0606
0606
060C
0C08
0C18
0F60
1880
1800
1800
1800
3000
FC00
ENDCHAR
STARTCHAR 0441
ENCODING 1089
SWIDTH 432 0
DWIDTH 12 0
BBX 11 12 1 0
BITMAP
07C0
1860
30E0
6040
6000
C000
C000
C000
C000
C080
E100
7E00
ENDCHAR
STARTCHAR 0442
ENCODING 1090
SWIDTH 720 0
DWIDTH 20 0
BBX 18 12 1 0
BITMAP
79E380
33E580
346980
38D180
38E180
70E300
61C300
61C300
E18300
C18640
C30680
C30700
ENDCHAR
STARTCHAR 0443
ENCODING 1091
SWIDTH 432 0
DWIDTH 12 0
BBX 14 18 -2 -6
BITMAP
1E0C
060C
0604
0604
0608
0308
0310
0320
0340
0340
0380
0300
0200
0400
0400
0800
F000
C000
ENDCHAR
STARTCHAR 0444
ENCODING 1092
SWIDTH 720 0
DWIDTH 20 0
BBX 18 25 1 -6
BITMAP
007800
001800
001800
003800
003000
003000
003000
0FEF00
18F180
3060C0
70E0C0
60C1C0
E0C1C0
C0C180
C18380
C18300
C38300
C38600
6F5C00
132000
030000
060000
060000
060000
3F8000
ENDCHAR
STARTCHAR 0445
ENCODING 1093
SWIDTH 432 0
DWIDTH 12 0
BBX 13 12 -1 0
BITMAP
3C38
0678
0680
0780
0300
0300
0300
0780
0980
0990
D1A0
E1C0
ENDCHAR
STARTCHAR 0446
ENCODING 1094
SWIDTH 504 0
DWIDTH 14 0
BBX 12 17 1 -5
BITMAP
3830
7830
B060
3060
3060
70C0
61C0
62C0
62C0
C590
E9A0
F1C0
0040
0080
0080
0080
0100
ENDCHAR
STARTCHAR 0447
ENCODING 1095
SWIDTH 468 0
DWIDTH 13 0
BBX 11 12 1 0
BITMAP
F060
3060
3060
30C0
60C0
60C0
7380
1D80
0180
01A0
0340
0380
ENDCHAR
STARTCHAR 0448
ENCODING 1096
SWIDTH 756 0
DWIDTH 21 0
BBX 19 12 1 0
BITMAP
383060
783060
B860C0
3060C0
3060C0
30E1C0
60C380
62C580
62C580
648B20
E9D340
71E380
ENDCHAR
STARTCHAR 0449
ENCODING 1097
SWIDTH 756 0
DWIDTH 21 0
BBX 19 17 1 -5
BITMAP
383060
783060
B860C0
3060C0
3060C0
30E1C0
60C380
62C580
62C580
648B20
E9D340
71E380
000080
000100
000100
000100
000200
ENDCHAR
STARTCHAR 044A
ENCODING 1098
SWIDTH 504 0
DWIDTH 14 0
BBX 12 12 1 0
BITMAP
7E00
FC00
8C00
0C00
19E0
1A70
1C30
1830
3030
3060
3060
1F80
ENDCHAR
STARTCHAR 044B
ENCODING 1099
SWIDTH 684 0
DWIDTH 19 0
BBX 16 12 1 0
BITMAP
780F
3803
3003
3006
3386
6DC6
70CC
60CC
C0CC
C0CD
619A
7E1C
ENDCHAR
STARTCHAR 044C
ENCODING 1100
SWIDTH 468 0
DWIDTH 13 0
BBX 10 12 1 0
BITMAP
7800
3800
3000
3000
3380
6DC0
70C0
60C0
C0C0
C0C0
6180
7E00
ENDCHAR
STARTCHAR 044D
ENCODING 1101
SWIDTH 432 0
DWIDTH 12 0
BBX 11 12 0 0
BITMAP
3F80
20C0
20E0
0060
0060
0FE0
00E0
00E0
00C0
8180
4380
3E00
ENDCHAR
STARTCHAR 044E
ENCODING 1102
SWIDTH 720 0
DWIDTH 20 0
BBX 18 12 1 0
BITMAP
781F00
386180
30C180
3181C0
3381C0
7F0180
630180
630380
630300
C30600
C30C00
C1F800
ENDCHAR
STARTCHAR 044F
ENCODING 1103
SWIDTH 468 0
DWIDTH 13 0
BBX 14 12 -2 0
BITMAP
03FC
061C
0E18
0C18
0E18
03F0
0330
0630
0E70
1C64
3868
F070
ENDCHAR
STARTCHAR 0451
ENCODING 1105
SWIDTH 432 0
DWIDTH 12 0
BBX 12 18 1 0
BITMAP
0670
0E70
0420
0000
0000
0000
07C0
1860
3060
20C0
6180
E700
F800
C000
C000
E040
F180
7E00
ENDCHAR
STARTCHAR 0452
ENCODING 1106
SWIDTH 468 0
DWIDTH 13 0
BBX 11 25 1 -6
BITMAP
3E00
0E00
0C00
3FC0
0C00
1800
1800
18E0
1B60
3260
3460
3860
70E0
70C0
60C0
60C0
C180
C180
C300
0300
0600
0400
0800
1000
2000
ENDCHAR
STARTCHAR 0453
ENCODING 1107
SWIDTH 360 0
DWIDTH 10 0
BBX 12 19 -1 0
BITMAP
0070
0060
00C0
0080
0000
0000
0000
1FF0
0610
0C10
0C00
0C00
1C00
1800
1800
1800
3000
3000
FC00
ENDCHAR
STARTCHAR 0454
ENCODING 1108
SWIDTH 432 0
DWIDTH 12 0
BBX 11 12 1 0
BITMAP
07E0
1820
3020
6000
6000
FE00
C000
C000
C000
C080
E100
7E00
ENDCHAR
STARTCHAR 0455
ENCODING 1109
SWIDTH 396 0
DWIDTH 11 0
BBX 10 12 0 0
BITMAP
0FC0
10C0
1040
1800
1C00
0E00
0F00
0700
8300
8300
C300
FE00
ENDCHAR
STARTCHAR 0456
ENCODING 1110
SWIDTH 288 0
DWIDTH 8 0
BBX 7 18 1 0
BITMAP
04
0E
0C
00
00
00
78
18
18
30
30
30
60
60
60
68
D0
E0
ENDCHAR
STARTCHAR 0457
ENCODING 1111
SWIDTH 288 0
DWIDTH 8 0
BBX 9 18 1 0
BITMAP
3180
7380
3100
0000
0000
0000
7800
1800
1800
3000
3000
3000
6000
6000
6000
6800
D000
E000
ENDCHAR
STARTCHAR 0458
ENCODING 1112
SWIDTH 288 0
DWIDTH 8 0
BBX 13 24 -5 -6
BITMAP
0010
0038
0030
0000
0000
0000
01E0
0060
0060
00C0
00C0
00C0
00C0
0180
0180
0180
0300
0300
0300
0700
0600
0400
CC00
7000
ENDCHAR
STARTCHAR 0459
ENCODING 1113
SWIDTH 684 0
DWIDTH 19 0
BBX 19 12 -1 0
BITMAP
00F800
011800
023000
023000
043380
043DC0
0870E0
0860E0
1060C0
1060C0
D06180
E03F00
ENDCHAR
STARTCHAR 045A
ENCODING 1114
SWIDTH 720 0
DWIDTH 20 0
BBX 17 12 1 0
BITMAP
78F000
387000
306000
306000
306700
7FDB80
60E180
60C180
60C180
C08180
C0C300
C07E00
ENDCHAR
STARTCHAR 045B
ENCODING 1115
SWIDTH 504 0
DWIDTH 14 0
BBX 12 19 1 0
BITMAP
3E00
0E00
0C00
3FC0
0C00
1800
1800
18E0
1960
3260
3460
3860
70C0
70C0
60C0
61C0
C190
C1A0
C1C0
ENDCHAR
STARTCHAR 045C
ENCODING 1116
SWIDTH 468 0
DWIDTH 13 0
BBX 12 19 1 0
BITMAP
00C0
01C0
0180
0100
0200
0000
0000
7870
38F0
3100
3100
3200
6400
7E00
6600
6300
C300
C180
C1E0
ENDCHAR
STARTCHAR 045D
ENCODING 1117
SWIDTH 504 0
DWIDTH 14 0
BBX 12 19 1 0
BITMAP
0700
0300
0100
0080
0080
0000
0000
3830
F830
B060
3060
3060
70C0
61C0
62C0
62C0
C590
E9A0
F1C0
ENDCHAR
STARTCHAR 045E
ENCODING 1118
SWIDTH 432 0
DWIDTH 12 0
BBX 14 25 -2 -6
BITMAP
0180
0184
01F8
00E0
0000
0000
0000
1E0C
060C
0604
0604
0608
0308
0310
0320
0340
0340
0380
0300
0200
0400
0400
0800
F000
C000
ENDCHAR
STARTCHAR 045F
ENCODING 1119
SWIDTH 504 0
DWIDTH 14 0
BBX 12 17 1 -5
BITMAP
3830
7830
B060
3060
3060
70C0
61C0
62C0
62C0
C590
E9A0
F1C0
2000
6000
6000
4000
C000
ENDCHAR
STARTCHAR 0490
ENCODING 1168
SWIDTH 432 0
DWIDTH 12 0
BBX 17 22 -1 0
BITMAP
000080
000080
000180
000F00
03FF00
01C000
018000
018000
038000
038000
030000
030000
070000
060000
060000
0E0000
0E0000
0C0000
0C0000
1C0000
1C0000
FF0000
ENDCHAR
STARTCHAR 0491
ENCODING 1169
SWIDTH 324 0
DWIDTH 9 0
BBX 9 14 1 0
BITMAP
0080
0180
7F80
1800
1800
3000
3000
3000
6000
6000
6000
E800
D000
E000
ENDCHAR
STARTCHAR 0492
ENCODING 1170
SWIDTH 576 0
DWIDTH 16 0
BBX 19 18 -1 0
BITMAP
07FFE0
01C060
018020
018040
038000
038000
030000
030000
1FF800
060000
060000
0E0000
0E0000
0C0000
1C0000
1C0000
1C0000
FF0000
ENDCHAR
STARTCHAR 0493
ENCODING 1171
SWIDTH 396 0
DWIDTH 11 0
BBX 11 12 0 0
BITMAP
0FC0
30E0
0060
08C0
0980
0600
1E00
6200
E000
C000
E080
7F00
ENDCHAR
STARTCHAR 0496
ENCODING 1174
SWIDTH 900 0
DWIDTH 25 0
BBX 28 24 -1 -5
BITMAP
01000000
0783F0F0
07C1C1F0
0041C100
00418200
00418200
00438400
00430400
00631800
003FF000
00E77000
01C63000
03863800
070E1800
0E0C1C00
0E0C0C00
1C1C0E00
381C0E00
F07F0780
00000380
00000180
00000100
00000100
00000100
ENDCHAR
STARTCHAR 0497
ENCODING 1175
SWIDTH 936 0
DWIDTH 26 0
BBX 26 17 0 -5
BITMAP
0F860F80
31C618C0
40C631C0
00C66080
00CC6000
00CCC000
00FFC000
0198C000
4198C000
C318C100
C618E300
CC307E00
30000400
00000C00
00000C00
00000C00
00001800
ENDCHAR
STARTCHAR 049A
ENCODING 1178
SWIDTH 648 0
DWIDTH 18 0
BBX 21 23 -1 -4
BITMAP
03F078
01C0B8
018100
018100
038100
038200
030400
030800
07F000
063000
063800
0E1800
0E1C00
0C0C00
0C0E00
1C0600
1C0700
FF03C0
0001C0
0000C0
000080
000080
000080
ENDCHAR
STARTCHAR 049B
ENCODING 1179
SWIDTH 468 0
DWIDTH 13 0
BBX 12 17 1 -5
BITMAP
7870
38F0
3100
3100
3200
6400
7E00
6600
6300
C310
C1A0
C1C0
0040
0080
0080
0080
0100
ENDCHAR
STARTCHAR 049C
ENCODING 1180
SWIDTH 648 0
DWIDTH 18 0
BBX 21 18 -1 1
BITMAP
03F078
01C0B8
018100
019100
039300
039200
033400
032800
07F000
063000
067800
0E5800
0E5C00
0CCC00
0C8E00
1C0600
1C0700
FF03C0
ENDCHAR
STARTCHAR 049D
ENCODING 1181
SWIDTH 468 0
DWIDTH 13 0
BBX 12 12 1 0
BITMAP
7870
38F0
3700
3500
3600
6400
7E00
6E00
6B00
CB00
C180
C1E0
ENDCHAR
STARTCHAR 04A2
ENCODING 1186
SWIDTH 720 0
DWIDTH 20 0
BBX 23 23 -1 -5
BITMAP
03F0FE
01C038
018030
018030
038070
038060
030060
0300E0
07FFE0
0600C0
0600C0
0E01C0
0C0180
0C0180
0C0380
1C0380
1C0300
FF1FE0
0001C0
0000C0
0000C0
000080
000080
ENDCHAR
STARTCHAR 04A3
ENCODING 1187
SWIDTH 504 0
DWIDTH 14 0
BBX 12 17 1 -5
BITMAP
7830
3860
3060
3060
30E0
7FC0
60C0
60C0
6180
C180
C1A0
C1C0
0080
0080
0180
0180
0300
ENDCHAR
STARTCHAR 04AE
ENCODING 1198
SWIDTH 540 0
DWIDTH 15 0
BBX 15 18 3 0
BITMAP
7E3E
3818
1810
1820
1C60
0C40
0C80
0D00
0F00
0600
0E00
0C00
0C00
1C00
1800
1800
3800
FE00
ENDCHAR
STARTCHAR 04AF
ENCODING 1199
SWIDTH 504 0
DWIDTH 14 0
BBX 15 18 0 -6
BITMAP
3E1E
1C08
1C10
0C20
0C20
0C40
0C80
0C80
0D00
0E00
0E00
0C00
0C00
0C00
1800
1800
1800
FE00
ENDCHAR
STARTCHAR 04B0
ENCODING 1200
SWIDTH 540 0
DWIDTH 15 0
BBX 15 18 3 0
BITMAP
7E3E
3818
1810
1820
1C60
0C40
0C80
0D00
0F00
0600
FFE0
0C00
0C00
1C00
1800
1800
3800
FE00
ENDCHAR
STARTCHAR 04B1
ENCODING 1201
SWIDTH 504 0
DWIDTH 14 0
BBX 15 18 0 -6
BITMAP
3E1E
1C08
1C10
0C20
0C20
0C40
0C80
0C80
0D00
0E00
0E00
FFE0
0C00
0C00
1800
1800
1800
FE00
ENDCHAR
STARTCHAR 04B2
ENCODING 1202
SWIDTH 612 0
DWIDTH 17 0
BBX 22 23 -2 -5
BITMAP
01F07C
00E020
006040
006080
007100
007200
003400
003800
003800
003800
005800
009C00
011C00
020C00
040C00
080E00
180E00
FC3FC0
000380
000180
000080
000080
000100
ENDCHAR
STARTCHAR 04B3
ENCODING 1203
SWIDTH 432 0
DWIDTH 12 0
BBX 13 17 -1 -5
BITMAP
3C38
0678
0680
0780
0300
0300
0300
0780
0980
0990
D1A0
E1E0
0040
0080
00C0
0080
0100
ENDCHAR
STARTCHAR 04B8
ENCODING 1208
SWIDTH 684 0
DWIDTH 19 0
BBX 17 18 4 0
BITMAP
FC3F80
700E00
700C00
610C00
611C00
E31C00
C21800
C21800
E23800
7FF000
3E3000
047000
0C7000
086000
086000
00E000
00E000
07F800
ENDCHAR
STARTCHAR 04B9
ENCODING 1209
SWIDTH 468 0
DWIDTH 13 0
BBX 11 12 1 0
BITMAP
F060
3060
3260
36C0
64C0
64C0
7780
1980
0980
09A0
0340
0380
ENDCHAR
STARTCHAR 04BA
ENCODING 1210
SWIDTH 684 0
DWIDTH 19 0
BBX 19 18 -1 0
BITMAP
07F000
01C000
018000
018000
038000
030000
030000
077F00
078380
0601C0
0601C0
0E01C0
0C0180
0C0180
1C0380
1C0300
1C0300
FF1FE0
ENDCHAR
STARTCHAR 04BB
ENCODING 1211
SWIDTH 504 0
DWIDTH 14 0
BBX 12 19 1 0
BITMAP
3E00
0E00
0C00
0C00
0C00
1800
1800
18E0
1960
3260
3460
3860
70C0
70C0
60C0
61C0
C190
C1A0
C1C0
ENDCHAR
STARTCHAR 04D8
ENCODING 1240
SWIDTH 684 0
DWIDTH 19 0
BBX 17 19 2 0
BITMAP
09F000
0E1C00
180600
100700
100380
000380
000380
000380
000380
FFFF80
E00380
E00380
E00300
C00700
E00600
E00C00
601C00
703000
3FE000
ENDCHAR
STARTCHAR 04D9
ENCODING 1241
SWIDTH 432 0
DWIDTH 12 0
BBX 11 12 0 0
BITMAP
0FC0
10E0
2060
0060
0060
01E0
0E60
30C0
60C0
4180
C300
7C00
ENDCHAR
STARTCHAR 04E8
ENCODING 1256
SWIDTH 720 0
DWIDTH 20 0
BBX 18 19 2 0
BITMAP
007C00
018700
060380
0C0180
1C01C0
3801C0
3001C0
7001C0
6001C0
FFFFC0
E00380
E00380
E00300
C00700
E00E00
E00C00
601800
703000
3FC000
ENDCHAR
STARTCHAR 04E9
ENCODING 1257
SWIDTH 504 0
DWIDTH 14 0
BBX 12 12 1 0
BITMAP
07C0
1860
3030
7030
6070
FFF0
C060
C060
C0C0
C0C0
C180
7E00
ENDCHAR
STARTCHAR 05B0
ENCODING 1456
SWIDTH 324 0
DWIDTH 9 0
BBX 2 5 1 -7
BITMAP
C0
C0
00
C0
C0
ENDCHAR
STARTCHAR 05B1
ENCODING 1457
SWIDTH 324 0
DWIDTH 9 0
BBX 8 5 -2 -7
BITMAP
DB
DB
00
63
63
ENDCHAR
STARTCHAR 05B2
ENCODING 1458
SWIDTH 324 0
DWIDTH 9 0
BBX 8 5 -2 -7
BITMAP
F3
F3
00
02
03
ENDCHAR
STARTCHAR 05B3
ENCODING 1459
SWIDTH 324 0
DWIDTH 9 0
BBX 9 5 -3 -7
BITMAP
FD80
FD80
1000
3180
3180
ENDCHAR
STARTCHAR 05B4
ENCODING 1460
SWIDTH 324 0
DWIDTH 9 0
BBX 2 2 1 -4
BITMAP
C0
C0
ENDCHAR
STARTCHAR 05B5
ENCODING 1461
SWIDTH 324 0
DWIDTH 9 0
BBX 5 2 -1 -4
BITMAP
D8
D8
ENDCHAR
STARTCHAR 05B6
ENCODING 1462
SWIDTH 324 0
DWIDTH 9 0
BBX 5 5 -1 -7
BITMAP
D8
D8
00
30
30
ENDCHAR
STARTCHAR 05B7
ENCODING 1463
SWIDTH 324 0
DWIDTH 9 0
BBX 6 2 -1 -4
BITMAP
FC
FC
ENDCHAR
STARTCHAR 05B8
ENCODING 1464
SWIDTH 324 0
DWIDTH 9 0
BBX 6 5 -1 -7
BITMAP
FC
FC
20
30
30
ENDCHAR
STARTCHAR 05B9
ENCODING 1465
SWIDTH 324 0
DWIDTH 9 0
BBX 3 3 6 16
BITMAP
40
E0
40
ENDCHAR
STARTCHAR 05BA
ENCODING 1466
SWIDTH 324 0
DWIDTH 9 0
BBX 3 3 6 16
BITMAP
40
E0
40
ENDCHAR
STARTCHAR 05BB
ENCODING 1467
SWIDTH 324 0
DWIDTH 9 0
BBX 8 5 -2 -7
BITMAP
C0
C0
18
1B
03
ENDCHAR
STARTCHAR 05BC
ENCODING 1468
SWIDTH 324 0
DWIDTH 9 0
BBX 2 2 4 6
BITMAP
C0
C0
ENDCHAR
STARTCHAR 05BD
ENCODING 1469
SWIDTH 324 0
DWIDTH 9 0
BBX 2 5 1 -7
BITMAP
C0
C0
C0
C0
C0
ENDCHAR
STARTCHAR 05BE
ENCODING 1470
SWIDTH 360 0
DWIDTH 10 0
BBX 8 2 3 12
BITMAP
FF
FF
ENDCHAR
STARTCHAR 05BF
ENCODING 1471
SWIDTH 324 0
DWIDTH 9 0
BBX 5 1 5 17
BITMAP
F8
ENDCHAR
STARTCHAR 05C0
ENCODING 1472
SWIDTH 324 0
DWIDTH 9 0
BBX 6 17 2 -1
BITMAP
0C
0C
0C
18
18
18
30
30
30
30
60
60
60
C0
C0
C0
C0
ENDCHAR
STARTCHAR 05C1
ENCODING 1473
SWIDTH 360 0
DWIDTH 10 0
BBX 2 2 12 17
BITMAP
C0
40
ENDCHAR
STARTCHAR 05C2
ENCODING 1474
SWIDTH 360 0
DWIDTH 10 0
BBX 2 2 1 17
BITMAP
C0
80
ENDCHAR
STARTCHAR 05C3
ENCODING 1475
SWIDTH 324 0
DWIDTH 9 0
BBX 6 15 2 0
BITMAP
08
1C
1C
00
00
00
00
00
00
00
00
00
00
C0
C0
ENDCHAR
STARTCHAR 05D0
ENCODING 1488
SWIDTH 468 0
DWIDTH 13 0
BBX 14 15 0 0
BITMAP
1020
1878
187C
1C38
0E20
0E40
0F40
33C0
23C0
61C0
60E0
60E0
6060
6060
E040
ENDCHAR
STARTCHAR 05D1
ENCODING 1489
SWIDTH 432 0
DWIDTH 12 0
BBX 11 15 0 0
BITMAP
1800
1FE0
1FE0
00E0
0020
0020
0020
0020
0040
0040
0040
0080
7FE0
FFC0
FF80
ENDCHAR
STARTCHAR 05D2
ENCODING 1490
SWIDTH 324 0
DWIDTH 9 0
BBX 9 15 -1 0
BITMAP
0600
0F80
0F80
0380
0180
0100
0100
0100
0200
0200
0200
0700
7B00
F300
E300
ENDCHAR
STARTCHAR 05D3
ENCODING 1491
SWIDTH 432 0
DWIDTH 12 0
BBX 9 15 3 0
BITMAP
C000
FF80
FF80
0080
0300
0400
0400
0C00
0800
0800
0800
1800
1800
1000
3000
ENDCHAR
STARTCHAR 05D4
ENCODING 1492
SWIDTH 468 0
DWIDTH 13 0
BBX 14 15 0 0
BITMAP
0800
1FFC
1FFC
0008
0010
0020
0020
0020
3020
2060
6060
6060
4040
C040
8080
ENDCHAR
STARTCHAR 05D5
ENCODING 1493
SWIDTH 252 0
DWIDTH 7 0
BBX 4 15 3 0
BITMAP
C0
F0
F0
70
30
10
20
20
20
40
40
40
40
80
80
ENDCHAR
STARTCHAR 05D6
ENCODING 1494
SWIDTH 252 0
DWIDTH 7 0
BBX 7 15 1 0
BITMAP
30
3C
3E
1E
10
10
20
20
20
60
60
60
40
40
80
ENDCHAR
STARTCHAR 05D7
ENCODING 1495
SWIDTH 468 0
DWIDTH 13 0
BBX 14 15 0 0
BITMAP
0800
1FFC
1FF8
0408
0810
1020
1020
1020
3020
2060
2060
2060
6040
4040
C080
ENDCHAR
STARTCHAR 05D8
ENCODING 1496
SWIDTH 468 0
DWIDTH 13 0
BBX 12 15 1 0
BITMAP
2000
38F0
38F0
3930
2210
2410
2010
4020
4020
4020
4040
4040
7F80
FF80
FF00
ENDCHAR
STARTCHAR 05D9
ENCODING 1497
SWIDTH 252 0
DWIDTH 7 0
BBX 4 8 3 7
BITMAP
C0
E0
F0
70
30
10
20
40
ENDCHAR
STARTCHAR 05DA
ENCODING 1498
SWIDTH 432 0
DWIDTH 12 0
BBX 10 20 3 -5
BITMAP
C000
FFC0
FFC0
0180
0100
0100
0100
0200
0200
0200
0600
0400
0400
0400
0C00
0800
0800
1800
1000
1000
ENDCHAR
STARTCHAR 05DB
ENCODING 1499
SWIDTH 396 0
DWIDTH 11 0
BBX 11 15 0 0
BITMAP
1800
1FC0
1FE0
01E0
0060
0020
0020
0040
0040
0040
0080
0080
7F00
FF00
FC00
ENDCHAR
STARTCHAR 05DC
ENCODING 1500
SWIDTH 432 0
DWIDTH 12 0
BBX 9 20 3 1
BITMAP
C000
6000
4000
4000
8000
8000
FF80
FF80
0380
0180
0100
0100
0100
0200
0400
0800
1000
2000
2000
2000
ENDCHAR
STARTCHAR 05DD
ENCODING 1501
SWIDTH 468 0
DWIDTH 13 0
BBX 13 15 0 0
BITMAP
1800
1FF0
1FF8
0278
0C18
1010
2010
2010
2010
4020
4020
4020
FFC0
FFC0
FFC0
ENDCHAR
STARTCHAR 05DE
ENCODING 1502
SWIDTH 468 0
DWIDTH 13 0
BBX 12 15 0 0
BITMAP
1000
1C60
1CF0
1DF0
0630
0410
0810
1010
2010
2020
4020
4020
8FC0
9FC0
9F80
ENDCHAR
STARTCHAR 05DF
ENCODING 1503
SWIDTH 252 0
DWIDTH 7 0
BBX 6 20 1 -5
BITMAP
30
3C
3C
1C
04
08
08
10
10
10
10
20
20
20
60
60
40
40
C0
80
ENDCHAR
STARTCHAR 05E0
ENCODING 1504
SWIDTH 288 0
DWIDTH 8 0
BBX 9 15 -1 0
BITMAP
0C00
0F00
0F80
0780
0100
0100
0200
0200
0200
0400
0400
0400
7C00
7C00
FC00
ENDCHAR
STARTCHAR 05E1
ENCODING 1505
SWIDTH 468 0
DWIDTH 13 0
BBX 11 15 1 0
BITMAP
3000
3FC0
3FE0
11E0
2020
2020
4020
4020
4020
C040
C040
4080
7380
7F00
3E00
ENDCHAR
STARTCHAR 05E2
ENCODING 1506
SWIDTH 432 0
DWIDTH 12 0
BBX 13 16 0 -1
BITMAP
1020
1E70
1E78
0E38
0810
0820
0820
0C40
0C40
0480
0480
0980
1F00
7E00
F800
8000
ENDCHAR
STARTCHAR 05E3
ENCODING 1507
SWIDTH 432 0
DWIDTH 12 0
BBX 10 20 1 -5
BITMAP
3000
3FC0
3FC0
11C0
2040
4040
4040
E040
F080
8080
0080
0180
0100
0100
0100
0300
0200
0200
0600
0400
ENDCHAR
STARTCHAR 05E4
ENCODING 1508
SWIDTH 432 0
DWIDTH 12 0
BBX 11 15 0 0
BITMAP
1800
1FC0
1FE0
09E0
1020
2020
3020
7820
7820
0040
0040
00C0
7F80
FF00
FE00
ENDCHAR
STARTCHAR 05E5
ENCODING 1509
SWIDTH 432 0
DWIDTH 12 0
BBX 10 20 3 -5
BITMAP
8300
F3C0
F3C0
61C0
2100
2200
1400
1800
1800
1000
1000
3000
3000
2000
2000
6000
6000
4000
C000
8000
ENDCHAR
STARTCHAR 05E6
ENCODING 1510
SWIDTH 432 0
DWIDTH 12 0
BBX 13 15 0 0
BITMAP
1860
1C78
1E78
0C38
0420
0440
0480
0480
0780
0380
0180
00C0
3FC0
7FC0
FF80
ENDCHAR
STARTCHAR 05E7
ENCODING 1511
SWIDTH 432 0
DWIDTH 12 0
BBX 13 19 -1 -5
BITMAP
0C00
0FF8
0FF8
0038
0008
0008
1008
1010
1010
3060
2080
2100
2200
4600
4400
4000
C000
8000
8000
ENDCHAR
STARTCHAR 05E8
ENCODING 1512
SWIDTH 432 0
DWIDTH 12 0
BBX 9 15 3 0
BITMAP
C000
FF00
FF80
0780
0180
0180
0100
0100
0100
0200
0200
0200
0200
0400
0400
ENDCHAR
STARTCHAR 05E9
ENCODING 1513
SWIDTH 612 0
DWIDTH 17 0
BBX 15 15 3 0
BITMAP
C208
E79C
F79E
738E
4204
8208
8410
8420
8820
8840
9040
A080
FF80
FF80
FF00
ENDCHAR
STARTCHAR 05EA
ENCODING 1514
SWIDTH 468 0
DWIDTH 13 0
BBX 14 15 -1 0
BITMAP
0400
07F8
0FFC
013C
020C
0408
0808
0808
0808
1810
1010
1010
7020
F020
F020
ENDCHAR
STARTCHAR 05F0
ENCODING 1520
SWIDTH 540 0
DWIDTH 15 0
BBX 12 15 3 0
BITMAP
C180
F1E0
F1F0
70E0
3020
1020
2020
2040
2040
4040
4080
4080
4080
8080
8100
ENDCHAR
STARTCHAR 05F1
ENCODING 1521
SWIDTH 504 0
DWIDTH 14 0
BBX 11 15 3 0
BITMAP
C100
E3C0
F3E0
70E0
3060
1040
2040
4040
0080
0080
0080
0080
0100
0100
0100
ENDCHAR
STARTCHAR 05F2
ENCODING 1522
SWIDTH 468 0
DWIDTH 13 0
BBX 11 8 3 7
BITMAP
C100
E3C0
F1E0
70E0
3060
1040
2040
4180
ENDCHAR
STARTCHAR 05F3
ENCODING 1523
SWIDTH 180 0
DWIDTH 5 0
BBX 4 7 2 8
BITMAP
30
70
60
60
C0
80
80
ENDCHAR
STARTCHAR 05F4
ENCODING 1524
SWIDTH 360 0
DWIDTH 10 0
BBX 9 7 2 8
BITMAP
3180
7380
6300
6300
C600
8400
8400
ENDCHAR
STARTCHAR 1E80
ENCODING 7808
SWIDTH 828 0
DWIDTH 23 0
BBX 22 24 4 0
BITMAP
00E000
006000
003000
001000
000000
000000
FCFC7C
703030
707020
707040
70F080
60F080
617100
626300
626200
646400
686C00
E86800
F07000
E0F000
E0E000
C0C000
80C000
808000
ENDCHAR
STARTCHAR 1E81
ENCODING 7809
SWIDTH 684 0
DWIDTH 19 0
BBX 17 19 1 0
BITMAP
01C000
00C000
006000
002000
000000
000000
000000
F02180
306180
30E080
30E080
316100
326100
126200
146400
1C6400
183800
103000
102000
ENDCHAR
STARTCHAR 1E82
ENCODING 7810
SWIDTH 828 0
DWIDTH 23 0
BBX 22 24 4 0
BITMAP
000C00
001C00
001800
001000
000000
000000
FCFC7C
703030
707020
707040
70F080
60F080
617100
626300
626200
646400
686C00
E86800
F07000
E0F000
E0E000
C0C000
80C000
808000
ENDCHAR
STARTCHAR 1E83
ENCODING 7811
SWIDTH 684 0
DWIDTH 19 0
BBX 17 19 1 0
BITMAP
001C00
003800
003000
002000
000000
000000
000000
F02180
306180
30E080
30E080
316100
326100
126200
146400
1C6400
183800
103000
102000
ENDCHAR
STARTCHAR 1E84
ENCODING 7812
SWIDTH 828 0
DWIDTH 23 0
BBX 22 23 4 0
BITMAP
00CE00
00CE00
000000
000000
000000
FCFC7C
703030
707020
707040
70F080
60F080
617100
626300
626200
646400
686C00
E86800
F07000
E0F000
E0E000
C0C000
80C000
808000
ENDCHAR
STARTCHAR 1E85
ENCODING 7813
SWIDTH 684 0
DWIDTH 19 0
BBX 17 18 1 0
BITMAP
01CC00
01CE00
008400
000000
000000
000000
F02180
306180
30E080
30E080
316100
326100
126200
146400
1C6400
183800
103000
102000
ENDCHAR
STARTCHAR 1EA0
ENCODING 7840
SWIDTH 612 0
DWIDTH 17 0
BBX 16 22 -1 -3
BITMAP
0002
0006
000E
000E
0016
002E
006E
004E
008C
010C
010C
03FC
040C
080C
080C
101C
301C
F87F
0000
0000
0700
0700
ENDCHAR
STARTCHAR 1EA1
ENCODING 7841
SWIDTH 504 0
DWIDTH 14 0
BBX 12 16 1 -4
BITMAP
07B0
0870
3060
3060
6060
60C0
C0C0
C1C0
C1C0
C390
EDA0
F1C0
0000
0000
1800
1800
ENDCHAR
STARTCHAR 1EA2
ENCODING 7842
SWIDTH 612 0
DWIDTH 17 0
BBX 18 25 -1 0
BITMAP
0000C0
000140
000040
000080
000100
000000
000000
000200
000600
000E00
000E00
001600
002E00
006E00
004E00
008C00
010C00
010C00
03FC00
040C00
080C00
080C00
101C00
301C00
F87F00
ENDCHAR
STARTCHAR 1EA3
ENCODING 7843
SWIDTH 504 0
DWIDTH 14 0
BBX 12 19 1 0
BITMAP
00E0
0120
0040
0080
0000
0000
0000
07B0
0870
3060
3060
6060
60C0
C0C0
C1C0
C1C0
C390
EDA0
F1C0
ENDCHAR
STARTCHAR 1EA4
ENCODING 7844
SWIDTH 612 0
DWIDTH 17 0
BBX 19 25 -1 0
BITMAP
0000E0
000080
000000
0003C0
000460
000000
000000
000200
000600
000E00
000E00
001600
002E00
006E00
004E00
008C00
010C00
010C00
03FC00
040C00
080C00
080C00
101C00
301C00
F87F00
ENDCHAR
STARTCHAR 1EA5
ENCODING 7845
SWIDTH 504 0
DWIDTH 14 0
BBX 14 25 1 0
BITMAP
001C
0038
0030
0020
0040
0000
0060
00E0
0130
0210
0400
0000
0000
07B0
0870
3060
3060
6060
60C0
C0C0
C1C0
C1C0
C390
EDA0
F1C0
ENDCHAR
STARTCHAR 1EA6
ENCODING 7846
SWIDTH 612 0
DWIDTH 17 0
BBX 19 25 -1 0
BITMAP
0001C0
000040
000000
0003C0
000460
000000
000000
000200
000600
000E00
000E00
001600
002E00
006E00
004E00
008C00
010C00
010C00
03FC00
040C00
080C00
080C00
101C00
301C00
F87F00
ENDCHAR
STARTCHAR 1EA7
ENCODING 7847
SWIDTH 504 0
DWIDTH 14 0
BBX 12 25 1 0
BITMAP
00E0
0060
0030
0010
0000
0000
0060
00E0
0130
0210
0400
0000
0000
07B0
0870
3060
3060
6060
60C0
C0C0
C1C0
C1C0
C390
EDA0
F1C0
ENDCHAR
STARTCHAR 1EA8
ENCODING 7848
SWIDTH 612 0
DWIDTH 17 0
BBX 19 25 -1 0
BITMAP
0000C0
000040
000080
0003C0
000460
000000
000000
000200
000600
000E00
000E00
001600
002E00
006E00
004E00
008C00
010C00
010C00
03FC00
040C00
080C00
080C00
101C00
301C00
F87F00
ENDCHAR
STARTCHAR 1EA9
ENCODING 7849
SWIDTH 504 0
DWIDTH 14 0
BBX 13 25 1 0
BITMAP
0018
0028
0008
0010
0020
0000
0060
00E0
0130
0210
0400
0000
0000
07B0
0870
3060
3060
6060
60C0
C0C0
C1C0
C1C0
C390
EDA0
F1C0
ENDCHAR
STARTCHAR 1EAA
ENCODING 7850
SWIDTH 612 0
DWIDTH 17 0
BBX 20 25 -1 0
BITMAP
000700
0009F0
000000
0003C0
000460
000000
000000
000200
000600
000E00
000E00
001600
002E00
006E00
004E00
008C00
010C00
010C00
03FC00
040C00
080C00
080C00
101C00
301C00
F87F00
ENDCHAR
STARTCHAR 1EAB
ENCODING 7851
SWIDTH 504 0
DWIDTH 14 0
BBX 15 24 1 1
BITMAP
01F2
027E
001C
0000
0000
0060
00E0
0130
0210
0400
0000
0000
07B0
0870
3060
3060
6060
60C0
C0C0
C1C0
C1C0
C390
EDA0
F1C0
ENDCHAR
STARTCHAR 1EAC
ENCODING 7852
SWIDTH 612 0
DWIDTH 17 0
BBX 19 26 -1 -4
BITMAP
0003C0
000460
000000
000000
000200
000600
000E00
000E00
001600
002E00
006E00
004E00
008C00
010C00
010C00
03FC00
040C00
080C00
080C00
101C00
301C00
F87F00
000000
000000
070000
070000
ENDCHAR
STARTCHAR 1EAD
ENCODING 7853
SWIDTH 504 0
DWIDTH 14 0
BBX 12 23 1 -4
BITMAP
0060
00E0
0130
0210
0400
0000
0000
07B0
0870
3060
3060
6060
60C0
C0C0
C1C0
C1C0
C390
EDA0
F1C0
0000
0000
1800
1800
ENDCHAR
STARTCHAR 1EAE
ENCODING 7854
SWIDTH 612 0
DWIDTH 17 0
BBX 19 25 -1 0
BITMAP
0000E0
000080
000000
000420
0003C0
000000
000000
000200
000600
000E00
000E00
001600
002E00
006E00
004E00
008C00
010C00
010C00
03FC00
040C00
080C00
080C00
101C00
301C00
F87F00
ENDCHAR
STARTCHAR 1EAF
ENCODING 7855
SWIDTH 504 0
DWIDTH 14 0
BBX 13 25 1 0
BITMAP
0038
0030
0060
0040
0000
0000
0408
0210
03E0
01C0
0000
0000
0000
07B0
0870
3060
3060
6060
60C0
C0C0
C1C0
C1C0
C390
EDA0
F1C0
ENDCHAR
STARTCHAR 1EB0
ENCODING 7856
SWIDTH 612 0
DWIDTH 17 0
BBX 19 25 -1 0
BITMAP
000380
000180
000000
000420
0003C0
000000
000000
000200
000600
000E00
000E00
001600
002E00
006E00
004E00
008C00
010C00
010C00
03FC00
040C00
080C00
080C00
101C00
301C00
F87F00
ENDCHAR
STARTCHAR 1EB1
ENCODING 7857
SWIDTH 504 0
DWIDTH 14 0
BBX 13 25 1 0
BITMAP
01C0
00C0
0040
0060
0020
0000
0408
0210
03E0
01C0
0000
0000
0000
07B0
0870
3060
3060
6060
60C0
C0C0
C1C0
C1C0
C390
EDA0
F1C0
ENDCHAR
STARTCHAR 1EB2
ENCODING 7858
SWIDTH 612 0
DWIDTH 17 0
BBX 19 25 -1 0
BITMAP
0000C0
000040
000080
000420
0003C0
000000
000000
000200
000600
000E00
000E00
001600
002E00
006E00
004E00
008C00
010C00
010C00
03FC00
040C00
080C00
080C00
101C00
301C00
F87F00
ENDCHAR
STARTCHAR 1EB3
ENCODING 7859
SWIDTH 504 0
DWIDTH 14 0
BBX 13 25 1 0
BITMAP
0070
0090
0020
0040
0000
0000
0408
0210
03E0
01C0
0000
0000
0000
07B0
0870
3060
3060
6060
60C0
C0C0
C1C0
C1C0
C390
EDA0
F1C0
ENDCHAR
STARTCHAR 1EB4
ENCODING 7860
SWIDTH 612 0
DWIDTH 17 0
BBX 20 25 -1 0
BITMAP
000700
0009F0
000000
000420
0003C0
000000
000000
000200
000600
000E00
000E00
001600
002E00
006E00
004E00
008C00
010C00
010C00
03FC00
040C00
080C00
080C00
101C00
301C00
F87F00
ENDCHAR
STARTCHAR 1EB5
ENCODING 7861
SWIDTH 504 0
DWIDTH 14 0
BBX 14 24 1 1
BITMAP
03E4
04FC
0438
0000
0000
0408
0210
03E0
01C0
0000
0000
0000
07B0
0870
3060
3060
6060
60C0
C0C0
C1C0
C1C0
C390
EDA0
F1C0
ENDCHAR
STARTCHAR 1EB6
ENCODING 7862
SWIDTH 612 0
DWIDTH 17 0
BBX 19 26 -1 -4
BITMAP
000420
0003C0
000000
000000
000200
000600
000E00
000E00
001600
002E00
006E00
004E00
008C00
010C00
010C00
03FC00
040C00
080C00
080C00
101C00
301C00
F87F00
000000
000000
070000
070000
ENDCHAR
STARTCHAR 1EB7
ENCODING 7863
SWIDTH 504 0
DWIDTH 14 0
BBX 12 23 1 -4
BITMAP
0810
0420
07E0
0380
0000
0000
0000
07B0
0870
3060
3060
6060
60C0
C0C0
C1C0
C1C0
C390
EDA0
F1C0
0000
0000
1800
1800
ENDCHAR
STARTCHAR 1EB8
ENCODING 7864
SWIDTH 612 0
DWIDTH 17 0
BBX 17 22 0 -4
BITMAP
07FF80
038180
030080
030080
030000
070000
060800
061800
0FF000
0C1000
0C1000
1C0000
1C0000
180200
180200
380400
381C00
FFFC00
000000
000000
030000
030000
ENDCHAR
STARTCHAR 1EB9
ENCODING 7865
SWIDTH 432 0
DWIDTH 12 0
BBX 11 16 1 -4
BITMAP
07C0
1860
3060
20C0
6180
E700
F800
C000
C000
E040
F180
7E00
0000
0000
3800
3800
ENDCHAR
STARTCHAR 1EBA
ENCODING 7866
SWIDTH 612 0
DWIDTH 17 0
BBX 17 25 0 0
BITMAP
000E00
001200
000200
000C00
000800
000000
000000
07FF80
038180
030080
030080
030000
070000
060800
061800
0FF000
0C1000
0C1000
1C0000
1C0000
180200
180200
380400
381C00
FFFC00
ENDCHAR
STARTCHAR 1EBB
ENCODING 7867
SWIDTH 432 0
DWIDTH 12 0
BBX 11 19 1 0
BITMAP
01C0
0160
0040
0080
0100
0000
0000
07C0
1860
3060
20C0
6180
E700
F800
C000
C000
E040
F180
7E00
ENDCHAR
STARTCHAR 1EBC
ENCODING 7868
SWIDTH 612 0
DWIDTH 17 0
BBX 17 23 0 1
BITMAP
007880
009F80
008700
000000
000000
07FF80
038180
030080
030080
030000
070000
060800
061800
0FF000
0C1000
0C1000
1C0000
1C0000
180200
180200
380400
381C00
FFFC00
ENDCHAR
STARTCHAR 1EBD
ENCODING 7869
SWIDTH 432 0
DWIDTH 12 0
BBX 13 19 1 0
BITMAP
0208
0788
09F0
08F0
0000
0000
0000
07C0
1860
3060
20C0
6180
E700
F800
C000
C000
E040
F180
7E00
ENDCHAR
STARTCHAR 1EBE
ENCODING 7870
SWIDTH 612 0
DWIDTH 17 0
BBX 17 25 0 0
BITMAP
000700
000400
000000
001E00
002300
000000
000000
07FF80
038180
030080
030080
030000
070000
060800
061800
0FF000
0C1000
0C1000
1C0000
1C0000
180200
180200
380400
381C00
FFFC00
ENDCHAR
STARTCHAR 1EBF
ENCODING 7871
SWIDTH 432 0
DWIDTH 12 0
BBX 13 25 1 0
BITMAP
0038
0030
0060
0040
0000
0000
00C0
01E0
0360
0420
0000
0000
0000
07C0
1860
3060
20C0
6180
E700
F800
C000
C000
E040
F180
7E00
ENDCHAR
STARTCHAR 1EC0
ENCODING 7872
SWIDTH 612 0
DWIDTH 17 0
BBX 17 25 0 0
BITMAP
000E00
000200
000000
001E00
002300
000000
000000
07FF80
038180
030080
030080
030000
070000
060800
061800
0FF000
0C1000
0C1000
1C0000
1C0000
180200
180200
380400
381C00
FFFC00
ENDCHAR
STARTCHAR 1EC1
ENCODING 7873
SWIDTH 432 0
DWIDTH 12 0
BBX 11 25 1 0
BITMAP
01C0
00E0
0060
0020
0000
0000
00C0
01E0
0360
0420
0000
0000
0000
07C0
1860
3060
20C0
6180
E700
F800
C000
C000
E040
F180
7E00
ENDCHAR
STARTCHAR 1EC2
ENCODING 7874
SWIDTH 612 0
DWIDTH 17 0
BBX 17 25 0 0
BITMAP
000600
000200
000400
001E00
002300
000000
000000
07FF80
038180
030080
030080
030000
070000
060800
061800
0FF000
0C1000
0C1000
1C0000
1C0000
180200
180200
380400
381C00
FFFC00
ENDCHAR
STARTCHAR 1EC3
ENCODING 7875
SWIDTH 432 0
DWIDTH 12 0
BBX 13 25 1 0
BITMAP
0030
0048
0010
0020
0000
0000
00C0
01E0
0360
0420
0000
0000
0000
07C0
1860
3060
20C0
6180
E700
F800
C000
C000
E040
F180
7E00
ENDCHAR
STARTCHAR 1EC4
ENCODING 7876
SWIDTH 612 0
DWIDTH 17 0
BBX 17 25 0 0
BITMAP
003800
004F80
000000
001E00
002300
000000
000000
07FF80
038180
030080
030080
030000
070000
060800
061800
0FF000
0C1000
0C1000
1C0000
1C0000
180200
180200
380400
381C00
FFFC00
ENDCHAR
STARTCHAR 1EC5
ENCODING 7877
SWIDTH 432 0
DWIDTH 12 0
BBX 14 25 1 0
BITMAP
0080
03E4
02FC
0038
0000
0000
00C0
01E0
0360
0420
0000
0000
0000
07C0
1860
3060
20C0
6180
E700
F800
C000
C000
E040
F180
7E00
ENDCHAR
STARTCHAR 1EC6
ENCODING 7878
SWIDTH 612 0
DWIDTH 17 0
BBX 17 26 0 -4
BITMAP
001E00
002300
000000
000000
07FF80
038180
030080
030080
030000
070000
060800
061800
0FF000
0C1000
0C1000
1C0000
1C0000
180200
180200
380400
381C00
FFFC00
000000
000000
030000
030000
ENDCHAR
STARTCHAR 1EC7
ENCODING 7879
SWIDTH 432 0
DWIDTH 12 0
BBX 11 23 1 -4
BITMAP
00C0
01E0
0360
0420
0000
0000
0000
07C0
1860
3060
20C0
6180
E700
F800
C000
C000
E040
F180
7E00
0000
0000
3800
3800
ENDCHAR
STARTCHAR 1EC8
ENCODING 7880
SWIDTH 324 0
DWIDTH 9 0
BBX 13 25 -1 0
BITMAP
0030
0058
0010
0020
0040
0000
0000
03F0
01C0
0180
0180
0380
0380
0300
0300
0700
0600
0600
0E00
0E00
0C00
0C00
1C00
1C00
FF00
ENDCHAR
STARTCHAR 1EC9
ENCODING 7881
SWIDTH 288 0
DWIDTH 8 0
BBX 8 19 1 0
BITMAP
07
09
02
04
00
00
00
78
18
18
30
30
30
60
60
60
68
D0
E0
ENDCHAR
STARTCHAR 1ECA
ENCODING 7882
SWIDTH 324 0
DWIDTH 9 0
BBX 12 22 -1 -4
BITMAP
03F0
01C0
0180
0180
0380
0380
0300
0300
0700
0600
0600
0E00
0E00
0C00
0C00
1C00
1C00
FF00
0000
0000
3800
3000
ENDCHAR
STARTCHAR 1ECB
ENCODING 7883
SWIDTH 288 0
DWIDTH 8 0
BBX 7 22 1 -4
BITMAP
04
0E
0C
00
00
00
78
18
18
30
30
30
60
60
60
68
D0
E0
00
00
C0
C0
ENDCHAR
STARTCHAR 1ECC
ENCODING 7884
SWIDTH 720 0
DWIDTH 20 0
BBX 18 23 2 -4
BITMAP
007C00
018700
060380
0C0180
1C01C0
3801C0
3001C0
7001C0
6001C0
E001C0
E00380
E00380
E00300
C00700
E00E00
E00C00
601800
703000
3DC000
020000
000000
0C0000
0C0000
ENDCHAR
STARTCHAR 1ECD
ENCODING 7885
SWIDTH 504 0
DWIDTH 14 0
BBX 12 16 1 -4
BITMAP
07C0
1860
3030
7030
6030
E070
C060
C060
C0C0
C0C0
C180
7600
0800
0000
3000
3000
ENDCHAR
STARTCHAR 1ECE
ENCODING 7886
SWIDTH 720 0
DWIDTH 20 0
BBX 18 25 2 0
BITMAP
000E00
001200
000600
000800
000800
000000
007C00
018700
060380
0C0180
1C01C0
3801C0
3001C0
7001C0
6001C0
E001C0
E00380
E00380
E00300
C00700
E00E00
E00C00
601800
703000
3FC000
ENDCHAR
STARTCHAR 1ECF
ENCODING 7887
SWIDTH 504 0
DWIDTH 14 0
BBX 12 19 1 0
BITMAP
00E0
00A0
0020
00C0
0080
0000
0000
07C0
1860
3030
7030
6030
E070
C060
C060
C0C0
C0C0
C180
7E00
ENDCHAR
STARTCHAR 1ED0
ENCODING 7888
SWIDTH 720 0
DWIDTH 20 0
BBX 18 25 2 0
BITMAP
000600
000C00
000000
001C00
006200
000000
007C00
018700
060380
0C0180
1C01C0
3801C0
3001C0
7001C0
6001C0
E001C0
E00380
E00380
E00300
C00700
E00E00
E00C00
601800
703000
3FC000
ENDCHAR
STARTCHAR 1ED1
ENCODING 7889
SWIDTH 504 0
DWIDTH 14 0
BBX 14 25 1 0
BITMAP
001C
0038
0030
0020
0040
0000
0060
00E0
0130
0210
0400
0000
0000
07C0
1860
3030
7030
6030
E070
C060
C060
C0C0
C0C0
C180
7E00
ENDCHAR
STARTCHAR 1ED2
ENCODING 7890
SWIDTH 720 0
DWIDTH 20 0
BBX 18 25 2 0
BITMAP
001C00
000400
000000
001C00
006200
000000
007C00
018700
060380
0C0180
1C01C0
3801C0
3001C0
7001C0
6001C0
E001C0
E00380
E00380
E00300
C00700
E00E00
E00C00
601800
703000
3FC000
ENDCHAR
STARTCHAR 1ED3
ENCODING 7891
SWIDTH 504 0
DWIDTH 14 0
BBX 12 25 1 0
BITMAP
00E0
0060
0030
0010
0000
0000
0060
00E0
0130
0210
0400
0000
0000
07C0
1860
3030
7030
6030
E070
C060
C060
C0C0
C0C0
C180
7E00
ENDCHAR
STARTCHAR 1ED4
ENCODING 7892
SWIDTH 720 0
DWIDTH 20 0
BBX 18 25 2 0
BITMAP
000C00
000400
000800
001C00
006200
000000
007C00
018700
060380
0C0180
1C01C0
3801C0
3001C0
7001C0
6001C0
E001C0
E00380
E00380
E00300
C00700
E00E00
E00C00
601800
703000
3FC000
ENDCHAR
STARTCHAR 1ED5
ENCODING 7893
SWIDTH 504 0
DWIDTH 14 0
BBX 13 25 1 0
BITMAP
0018
0028
0008
0010
0020
0000
0060
00E0
0130
0210
0400
0000
0000
07C0
1860
3030
7030
6030
E070
C060
C060
C0C0
C0C0
C180
7E00
ENDCHAR
STARTCHAR 1ED6
ENCODING 7894
SWIDTH 720 0
DWIDTH 20 0
BBX 18 25 2 0
BITMAP
003080
005F00
000000
001C00
006200
000000
007C00
018700
060380
0C0180
1C01C0
3801C0
3001C0
7001C0
6001C0
E001C0
E00380
E00380
E00300
C00700
E00E00
E00C00
601800
703000
3FC000
ENDCHAR
STARTCHAR 1ED7
ENCODING 7895
SWIDTH 504 0
DWIDTH 14 0
BBX 15 24 1 1
BITMAP
01F2
027E
001C
0000
0000
0060
00E0
0130
0210
0400
0000
0000
07C0
1860
3030
7030
6030
E070
C060
C060
C0C0
C0C0
C180
7E00
ENDCHAR
STARTCHAR 1ED8
ENCODING 7896
SWIDTH 720 0
DWIDTH 20 0
BBX 18 26 2 -4
BITMAP
001C00
006200
000000
007C00
018700
060380
0C0180
1C01C0
3801C0
3001C0
7001C0
6001C0
E001C0
E00380
E00380
E00300
C00700
E00E00
E00C00
601800
703000
3DC000
020000
000000
0C0000
0C0000
ENDCHAR
STARTCHAR 1ED9
ENCODING 7897
SWIDTH 504 0
DWIDTH 14 0
BBX 12 23 1 -4
BITMAP
0060
00E0
0130
0210
0400
0000
0000
07C0
1860
3030
7030
6030
E070
C060
C060
C0C0
C0C0
C180
7600
0800
0000
3000
3000
ENDCHAR
STARTCHAR 1EDA
ENCODING 7898
SWIDTH 720 0
DWIDTH 20 0
BBX 20 24 2 0
BITMAP
000600
000C00
000800
000800
000000
007C30
018730
060390
0C01E0
1C01C0
3801C0
3001C0
7001C0
6001C0
E001C0
E00380
E00380
E00300
C00700
E00E00
E00C00
601800
703000
3FC000
ENDCHAR
STARTCHAR 1EDB
ENCODING 7899
SWIDTH 540 0
DWIDTH 15 0
BBX 15 19 1 0
BITMAP
00E0
00C0
0180
0100
0000
0000
0006
07CE
1866
3038
7030
6030
E070
C060
C060
C0C0
C0C0
C180
7E00
ENDCHAR
STARTCHAR 1EDC
ENCODING 7900
SWIDTH 720 0
DWIDTH 20 0
BBX 20 24 2 0
BITMAP
003800
001800
000C00
000400
000000
007C30
018730
060390
0C01E0
1C01C0
3801C0
3001C0
7001C0
6001C0
E001C0
E00380
E00380
E00300
C00700
E00E00
E00C00
601800
703000
3FC000
ENDCHAR
STARTCHAR 1EDD
ENCODING 7901
SWIDTH 540 0
DWIDTH 15 0
BBX 15 19 1 0
BITMAP
01C0
00C0
0040
0020
0020
0000
0006
07CE
1866
3038
7030
6030
E070
C060
C060
C0C0
C0C0
C180
7E00
ENDCHAR
STARTCHAR 1EDE
ENCODING 7902
SWIDTH 720 0
DWIDTH 20 0
BBX 20 25 2 0
BITMAP
000E00
001200
000600
000800
000800
000000
007C30
018730
060390
0C01E0
1C01C0
3801C0
3001C0
7001C0
6001C0
E001C0
E00380
E00380
E00300
C00700
E00E00
E00C00
601800
703000
3FC000
ENDCHAR
STARTCHAR 1EDF
ENCODING 7903
SWIDTH 540 0
DWIDTH 15 0
BBX 15 19 1 0
BITMAP
00E0
00A0
0020
00C0
0080
0000
0006
07CE
1866
3038
7030
6030
E070
C060
C060
C0C0
C0C0
C180
7E00
ENDCHAR
STARTCHAR 1EE0
ENCODING 7904
SWIDTH 720 0
DWIDTH 20 0
BBX 20 24 2 0
BITMAP
002080
007880
009F00
000E00
000000
007C30
018730
060390
0C01E0
1C01C0
3801C0
3001C0
7001C0
6001C0
E001C0
E00380
E00380
E00300
C00700
E00E00
E00C00
601800
703000
3FC000
ENDCHAR
STARTCHAR 1EE1
ENCODING 7905
SWIDTH 540 0
DWIDTH 15 0
BBX 15 19 1 0
BITMAP
0208
0788
09F0
08F0
0000
0000
0006
07CE
1866
3038
7030
6030
E070
C060
C060
C0C0
C0C0
C180
7E00
ENDCHAR
STARTCHAR 1EE2
ENCODING 7906
SWIDTH 720 0
DWIDTH 20 0
BBX 20 23 2 -4
BITMAP
007C30
018730
060390
0C01E0
1C01C0
3801C0
3001C0
7001C0
6001C0
E001C0
E00380
E00380
E00300
C00700
E00E00
E00C00
601800
703000
3DC000
020000
000000
0C0000
0C0000
ENDCHAR
STARTCHAR 1EE3
ENCODING 7907
SWIDTH 540 0
DWIDTH 15 0
BBX 15 17 1 -4
BITMAP
0006
07CE
1866
3038
7030
6030
E070
C060
C060
C0C0
C0C0
C180
7600
0800
0000
3000
3000
ENDCHAR
STARTCHAR 1EE4
ENCODING 7908
SWIDTH 720 0
DWIDTH 20 0
BBX 19 22 3 -4
BITMAP
7F03E0
180080
180080
380100
300100
300100
700200
700200
600200
600400
E00400
C00400
C00400
C00800
E00800
601000
702000
3FC000
000000
000000
0C0000
0C0000
ENDCHAR
STARTCHAR 1EE5
ENCODING 7909
SWIDTH 504 0
DWIDTH 14 0
BBX 12 16 1 -4
BITMAP
3830
F830
B060
3060
3060
70C0
61C0
62C0
62C0
C590
E9A0
F1C0
0000
0000
1800
1800
ENDCHAR
STARTCHAR 1EE6
ENCODING 7910
SWIDTH 720 0
DWIDTH 20 0
BBX 19 25 3 0
BITMAP
001800
002400
000800
001000
000000
000000
000000
7F03E0
180080
180080
380100
300100
300100
700200
700200
600200
600400
E00400
C00400
C00400
C00800
E00800
601000
702000
3FC000
ENDCHAR
STARTCHAR 1EE7
ENCODING 7911
SWIDTH 504 0
DWIDTH 14 0
BBX 12 19 1 0
BITMAP
00E0
0120
0040
0080
0000
0000
0000
3830
F830
B060
3060
3060
70C0
61C0
62C0
62C0
C590
E9A0
F1C0
ENDCHAR
STARTCHAR 1EE8
ENCODING 7912
SWIDTH 756 0
DWIDTH 21 0
BBX 22 24 3 0
BITMAP
001C00
001800
003000
00200C
00000C
000008
7F03F0
180080
180080
380100
300100
300100
700200
700200
600200
600400
E00400
C00400
C00400
C00800
E00800
601000
702000
3FC000
ENDCHAR
STARTCHAR 1EE9
ENCODING 7913
SWIDTH 540 0
DWIDTH 15 0
BBX 15 19 1 0
BITMAP
00E0
00C0
0180
0100
0000
0000
0000
3836
F836
B066
3078
3060
70C0
61C0
62C0
62C0
C590
E9A0
F1C0
ENDCHAR
STARTCHAR 1EEA
ENCODING 7914
SWIDTH 756 0
DWIDTH 21 0
BBX 22 24 3 0
BITMAP
003000
001800
000800
00080C
00000C
000008
7F03F0
180080
180080
380100
300100
300100
700200
700200
600200
600400
E00400
C00400
C00400
C00800
E00800
601000
702000
3FC000
ENDCHAR
STARTCHAR 1EEB
ENCODING 7915
SWIDTH 540 0
DWIDTH 15 0
BBX 15 19 1 0
BITMAP
0700
0300
0180
0080
0000
0000
0000
3836
F836
B066
3078
3060
70C0
61C0
62C0
62C0
C590
E9A0
F1C0
ENDCHAR
STARTCHAR 1EEC
ENCODING 7916
SWIDTH 756 0
DWIDTH 21 0
BBX 22 25 3 0
BITMAP
001800
002400
000800
001000
00000C
00000C
000008
7F03F0
180080
180080
380100
300100
300100
700200
700200
600200
600400
E00400
C00400
C00400
C00800
E00800
601000
702000
3FC000
ENDCHAR
STARTCHAR 1EED
ENCODING 7917
SWIDTH 540 0
DWIDTH 15 0
BBX 15 19 1 0
BITMAP
00E0
0120
0040
0080
0000
0000
0000
3836
F836
B066
3078
3060
70C0
61C0
62C0
62C0
C590
E9A0
F1C0
ENDCHAR
STARTCHAR 1EEE
ENCODING 7918
SWIDTH 756 0
DWIDTH 21 0
BBX 22 24 3 0
BITMAP
000100
00F100
013F00
010E0C
00000C
000008
7F03F0
180080
180080
380100
300100
300100
700200
700200
600200
600400
E00400
C00400
C00400
C00800
E00800
601000
702000
3FC000
ENDCHAR
STARTCHAR 1EEF
ENCODING 7919
SWIDTH 540 0
DWIDTH 15 0
BBX 15 19 1 0
BITMAP
0208
0788
09F0
08F0
0000
0000
0000
3836
F836
B066
3078
3060
70C0
61C0
62C0
62C0
C590
E9A0
F1C0
ENDCHAR
STARTCHAR 1EF0
ENCODING 7920
SWIDTH 756 0
DWIDTH 21 0
BBX 22 25 3 -3
BITMAP
00000C
00000C
000008
7F03F0
180080
180080
380100
300100
300100
700200
700200
600200
600400
E00400
C00400
C00400
C00800
E00800
601000
702000
3FC000
000000
000000
0C0000
0C0000
ENDCHAR
STARTCHAR 1EF1
ENCODING 7921
SWIDTH 540 0
DWIDTH 15 0
BBX 15 16 1 -4
BITMAP
3836
F836
B066
3078
3060
70C0
61C0
62C0
62C0
C590
E9A0
F1C0
0000
0000
1800
1800
ENDCHAR
STARTCHAR 1EF2
ENCODING 7922
SWIDTH 540 0
DWIDTH 15 0
BBX 15 24 3 0
BITMAP
0380
0180
00C0
0040
0000
0000
7E3E
3818
1810
1820
1C60
0C40
0C80
0D00
0F00
0600
0E00
0C00
0C00
1C00
1800
1800
3800
FE00
ENDCHAR
STARTCHAR 1EF3
ENCODING 7923
SWIDTH 432 0
DWIDTH 12 0
BBX 14 25 -2 -6
BITMAP
00C0
00E0
0060
0020
0010
0000
0000
1E0C
060C
0604
0604
0608
0308
0310
0320
0340
0340
0380
0300
0200
0400
0400
0800
F000
C000
ENDCHAR
STARTCHAR 1EF4
ENCODING 7924
SWIDTH 540 0
DWIDTH 15 0
BBX 15 22 3 -4
BITMAP
7E3E
3818
1810
1820
1C60
0C40
0C80
0D00
0F00
0600
0E00
0C00
0C00
1C00
1800
1800
3800
FE00
0000
0000
7000
7000
ENDCHAR
STARTCHAR 1EF5
ENCODING 7925
SWIDTH 432 0
DWIDTH 12 0
BBX 14 18 -2 -6
BITMAP
1E0C
060C
0604
0604
0608
0308
0310
0320
0340
0340
0380
0300
0200
0400
04E0
08E0
F000
C000
ENDCHAR
STARTCHAR 1EF6
ENCODING 7926
SWIDTH 540 0
DWIDTH 15 0
BBX 15 25 3 0
BITMAP
0060
0090
0020
0040
0000
0000
0000
7E3E
3818
1810
1820
1C60
0C40
0C80
0D00
0F00
0600
0E00
0C00
0C00
1C00
1800
1800
3800
FE00
ENDCHAR
STARTCHAR 1EF7
ENCODING 7927
SWIDTH 432 0
DWIDTH 12 0
BBX 14 25 -2 -6
BITMAP
0038
0048
0010
0020
0000
0000
0000
1E0C
060C
0604
0604
0608
0308
0310
0320
0340
0340
0380
0300
0200
0400
0400
0800
F000
C000
ENDCHAR
STARTCHAR 1EF8
ENCODING 7928
SWIDTH 540 0
DWIDTH 15 0
BBX 15 24 3 0
BITMAP
0100
03C8
04F8
0070
0000
0000
7E3E
3818
1810
1820
1C60
0C40
0C80
0D00
0F00
0600
0E00
0C00
0C00
1C00
1800
1800
3800
FE00
ENDCHAR
STARTCHAR 1EF9
ENCODING 7929
SWIDTH 432 0
DWIDTH 12 0
BBX 15 24 -2 -5
BITMAP
01F2
027E
001C
0000
0000
0000
1E0C
060C
0604
0604
0608
0308
0310
0320
0340
0340
0380
0300
0200
0400
0400
0800
F000
C000
ENDCHAR
STARTCHAR 200C
ENCODING 8204
SWIDTH 0 0
DWIDTH 0 0
BBX 1 21 -1 -4
BITMAP
80
80
80
80
80
80
80
80
80
80
80
80
80
80
80
80
80
80
80
80
80
ENDCHAR
STARTCHAR 200D
ENCODING 8205
SWIDTH 0 0
DWIDTH 0 0
BBX 6 23 -3 -4
BITMAP
84
48
30
30
68
A4
20
20
20
20
20
20
20
20
20
20
20
20
20
20
20
20
20
ENDCHAR
STARTCHAR 200E
ENCODING 8206
SWIDTH 0 0
DWIDTH 0 0
BBX 6 5 0 -4
BITMAP
30
18
FC
08
10
ENDCHAR
STARTCHAR 200F
ENCODING 8207
SWIDTH 0 0
DWIDTH 0 0
BBX 6 23 -6 -4
BITMAP
30
60
FC
44
24
04
04
04
04
04
04
04
04
04
04
04
04
04
04
04
04
04
04
ENDCHAR
STARTCHAR 2013
ENCODING 8211
SWIDTH 504 0
DWIDTH 14 0
BBX 14 1 0 7
BITMAP
FFFC
ENDCHAR
STARTCHAR 2014
ENCODING 8212
SWIDTH 900 0
DWIDTH 25 0
BBX 25 1 0 6
BITMAP
FFFFFF80
ENDCHAR
STARTCHAR 2015
ENCODING 8213
SWIDTH 1008 0
DWIDTH 28 0
BBX 26 2 1 6
BITMAP
FFFFFFC0
FFFFFFC0
ENDCHAR
STARTCHAR 2017
ENCODING 8215
SWIDTH 504 0
DWIDTH 14 0
BBX 14 3 0 -6
BITMAP
FFFC
0000
FFFC
ENDCHAR
STARTCHAR 2018
ENCODING 8216
SWIDTH 324 0
DWIDTH 9 0
BBX 4 6 6 13
BITMAP
10
60
40
C0
E0
C0
ENDCHAR
STARTCHAR 2019
ENCODING 8217
SWIDTH 324 0
DWIDTH 9 0
BBX 3 6 6 13
BITMAP
60
60
60
20
40
80
ENDCHAR
STARTCHAR 201A
ENCODING 8218
SWIDTH 324 0
DWIDTH 9 0
BBX 4 5 1 -3
BITMAP
70
70
30
20
C0
ENDCHAR
STARTCHAR 201B
ENCODING 8219
SWIDTH 324 0
DWIDTH 9 0
BBX 3 6 6 13
BITMAP
60
E0
E0
80
80
40
ENDCHAR
STARTCHAR 201C
ENCODING 8220
SWIDTH 540 0
DWIDTH 15 0
BBX 10 6 5 13
BITMAP
1000
20C0
4100
4180
E180
6180
ENDCHAR
STARTCHAR 201D
ENCODING 8221
SWIDTH 540 0
DWIDTH 15 0
BBX 10 6 5 13
BITMAP
20C0
71C0
30C0
30C0
2080
C100
ENDCHAR
STARTCHAR 201E
ENCODING 8222
SWIDTH 540 0
DWIDTH 15 0
BBX 10 6 1 -4
BITMAP
61C0
61C0
6080
6080
8100
0200
ENDCHAR
STARTCHAR 2020
ENCODING 8224
SWIDTH 504 0
DWIDTH 14 0
BBX 11 25 3 -6
BITMAP
0100
0380
0300
0300
0200
0400
FFE0
E4E0
0400
0C00
1C00
1800
1800
1800
1000
1000
2000
2000
2000
4000
4000
4000
8000
8000
8000
ENDCHAR
STARTCHAR 2021
ENCODING 8225
SWIDTH 504 0
DWIDTH 14 0
BBX 14 25 0 -6
BITMAP
0060
0060
0060
0040
0040
0FFC
0080
0080
0180
0180
0100
0200
0200
0200
0200
0600
0C00
0400
C880
FFC0
0800
1800
1000
3000
3000
ENDCHAR
STARTCHAR 2022
ENCODING 8226
SWIDTH 360 0
DWIDTH 10 0
BBX 7 7 2 6
BITMAP
10
7C
7E
FE
FE
7E
3C
ENDCHAR
STARTCHAR 2026
ENCODING 8230
SWIDTH 900 0
DWIDTH 25 0
BBX 17 3 4 0
BITMAP
008100
E1C380
C1C380
ENDCHAR
STARTCHAR 2030
ENCODING 8240
SWIDTH 1008 0
DWIDTH 28 0
BBX 25 20 2 -1
BITMAP
0C010000
33020000
63040000
63080000
C3080000
C3100000
C3200000
C6400000
C4C00000
78800000
011E0F00
02621880
04633080
04C33080
08C36180
10836180
21866180
60866300
408C2600
80701800
ENDCHAR
STARTCHAR 2032
ENCODING 8242
SWIDTH 216 0
DWIDTH 6 0
BBX 3 8 4 11
BITMAP
60
60
E0
C0
C0
80
80
80
ENDCHAR
STARTCHAR 2033
ENCODING 8243
SWIDTH 432 0
DWIDTH 12 0
BBX 9 8 4 11
BITMAP
2100
7380
6300
E700
C600
C600
8400
8400
ENDCHAR
STARTCHAR 2039
ENCODING 8249
SWIDTH 324 0
DWIDTH 9 0
BBX 6 12 2 0
BITMAP
04
08
18
30
60
C0
C0
C0
60
60
20
20
ENDCHAR
STARTCHAR 203A
ENCODING 8250
SWIDTH 324 0
DWIDTH 9 0
BBX 6 12 1 0
BITMAP
10
10
18
08
0C
0C
0C
18
30
20
40
80
ENDCHAR
STARTCHAR 203C
ENCODING 8252
SWIDTH 576 0
DWIDTH 16 0
BBX 13 19 2 0
BITMAP
0608
0618
0E18
0C18
0C18
0C30
0830
1830
1820
1020
1040
2040
2040
2080
0000
0000
0000
E180
E180
ENDCHAR
STARTCHAR 203E
ENCODING 8254
SWIDTH 324 0
DWIDTH 9 0
BBX 10 2 3 16
BITMAP
FFC0
FF80
ENDCHAR
STARTCHAR 2044
ENCODING 8260
SWIDTH 180 0
DWIDTH 5 0
BBX 13 20 -4 -1
BITMAP
0008
0010
0010
0020
0040
0040
0080
0180
0100
0200
0600
0400
0800
1800
1000
2000
6000
4000
8000
8000
ENDCHAR
STARTCHAR 207F
ENCODING 8319
SWIDTH 324 0
DWIDTH 9 0
BBX 7 7 1 8
BITMAP
EE
56
64
C4
CC
8C
8E
ENDCHAR
STARTCHAR 20A3
ENCODING 8355
SWIDTH 504 0
DWIDTH 14 0
BBX 16 18 -1 0
BITMAP
03FF
01C3
0181
0182
0380
0380
0308
0318
07F0
0610
0610
0E00
0E00
3FC0
0C00
1C00
1C00
FF00
ENDCHAR
STARTCHAR 20A4
ENCODING 8356
SWIDTH 504 0
DWIDTH 14 0
BBX 14 19 1 0
BITMAP
0070
0098
011C
0308
0300
0700
0600
0600
7FE0
0E00
7FC0
0C00
0C00
0C00
0800
1800
FC10
9FE0
E7C0
ENDCHAR
STARTCHAR 20A7
ENCODING 8359
SWIDTH 1008 0
DWIDTH 28 0
BBX 26 18 1 0
BITMAP
07FC0000
038E0000
03870000
03074000
0707C000
0707C000
070FEFC0
061D8840
0FF99840
0E038C00
0C030E00
1C030600
1C030700
1C060300
18064300
38064300
3807C300
FE0E7E00
ENDCHAR
STARTCHAR 20AA
ENCODING 8362
SWIDTH 792 0
DWIDTH 22 0
BBX 22 14 0 0
BITMAP
0FFE0C
0C0718
0C0318
180318
180638
18C630
30C630
318630
318C60
318060
630060
6300C0
6307C0
C7FF00
ENDCHAR
STARTCHAR 20AB
ENCODING 8363
SWIDTH 504 0
DWIDTH 14 0
BBX 13 15 2 4
BITMAP
0070
0030
01F8
0060
0360
0CC0
18C0
30C0
30C0
2080
6180
3180
3FC0
0000
FF80
ENDCHAR
STARTCHAR 20AC
ENCODING 8364
SWIDTH 504 0
DWIDTH 14 0
BBX 16 19 0 0
BITMAP
003C
00C7
0383
0701
0602
0C00
1C00
1800
7FF0
3800
FFF0
7000
7000
7000
7000
7008
7010
3860
1F80
ENDCHAR
STARTCHAR 2105
ENCODING 8453
SWIDTH 828 0
DWIDTH 23 0
BBX 20 20 2 -1
BITMAP
070010
188020
218040
600080
400100
C00200
C00400
C10800
E21000
7C20C0
004330
008410
010C10
020830
041830
081830
101860
201840
400D80
800200
ENDCHAR
STARTCHAR 2113
ENCODING 8467
SWIDTH 432 0
DWIDTH 12 0
BBX 12 19 0 0
BITMAP
00E0
0190
0310
0310
0620
0620
0640
0D80
0E00
0C00
1800
3800
D800
1800
3000
3040
3080
3100
1E00
ENDCHAR
STARTCHAR 2116
ENCODING 8470
SWIDTH 936 0
DWIDTH 26 0
BBX 27 19 -1 0
BITMAP
00001800
03C03C00
00E05C00
00E04000
01604000
01708000
017087C0
01308C60
02311860
02391860
02393060
041930C0
041A3180
041E1180
040E0E00
080C0000
C80C0000
F80C7F00
F0047F00
ENDCHAR
STARTCHAR 2122
ENCODING 8482
SWIDTH 972 0
DWIDTH 27 0
BBX 26 11 3 7
BITMAP
FFDE0380
8C4F0700
0C0B0700
0C0B8B00
0C098B00
0C09D300
0C08D300
0C08E300
0C086300
0C084380
3E1E07C0
ENDCHAR
STARTCHAR 2126
ENCODING 8486
SWIDTH 756 0
DWIDTH 21 0
BBX 20 19 1 0
BITMAP
00F000
070E00
1C0380
3801C0
3801C0
7001E0
7000E0
7000E0
7000E0
7000E0
7000E0
7801C0
3801C0
1C0380
8E0710
830C10
FF0FF0
FF0FF0
FF1FF0
ENDCHAR
STARTCHAR 212E
ENCODING 8494
SWIDTH 612 0
DWIDTH 17 0
BBX 15 15 1 0
BITMAP
0780
1870
3018
601C
601C
601C
E01C
FFFE
E000
E000
6000
6000
2008
3010
0FE0
ENDCHAR
STARTCHAR 2153
ENCODING 8531
SWIDTH 756 0
DWIDTH 21 0
BBX 16 20 3 -1
BITMAP
0804
180C
1808
1010
3030
3020
2040
60C0
6080
E100
030E
0213
0403
0404
081C
1006
1006
2006
4044
4078
ENDCHAR
STARTCHAR 2154
ENCODING 8532
SWIDTH 756 0
DWIDTH 21 0
BBX 17 20 2 -1
BITMAP
1C0200
3E0600
060400
020800
041800
081000
102000
206000
444000
F88000
018700
010980
020180
020200
040E00
080300
080300
100300
202200
203C00
ENDCHAR
STARTCHAR 215B
ENCODING 8539
SWIDTH 756 0
DWIDTH 21 0
BBX 16 20 3 -1
BITMAP
0804
180C
1808
1010
3030
3020
2040
60C0
6080
E100
030F
0211
0411
041B
081C
1026
1042
2042
4046
4038
ENDCHAR
STARTCHAR 215C
ENCODING 8540
SWIDTH 756 0
DWIDTH 21 0
BBX 17 20 2 -1
BITMAP
1C0200
260600
060400
040800
381800
0C1000
0C2000
046000
0C4000
F08000
018780
010880
020C80
020D80
040E00
081300
082100
102100
202300
201C00
ENDCHAR
STARTCHAR 215D
ENCODING 8541
SWIDTH 756 0
DWIDTH 21 0
BBX 17 20 2 -1
BITMAP
1E0200
1E0600
200400
380800
0C1800
041000
042000
046000
084000
F08000
018780
010880
020C80
020D00
040E00
081300
082100
102100
202300
201C00
ENDCHAR
STARTCHAR 215E
ENCODING 8542
SWIDTH 756 0
DWIDTH 21 0
BBX 16 20 3 -1
BITMAP
3E04
7E08
8418
0410
0820
1060
1040
2080
4180
4100
020F
0211
0419
081B
081C
1026
2042
2042
4046
C038
ENDCHAR
STARTCHAR 2190
ENCODING 8592
SWIDTH 1008 0
DWIDTH 28 0
BBX 26 10 1 2
BITMAP
06000000
0C000000
18000000
38000000
FFFFFFC0
7FFFFFC0
38000000
1C000000
0C000000
06000000
ENDCHAR
STARTCHAR 2191
ENCODING 8593
SWIDTH 504 0
DWIDTH 14 0
BBX 10 24 2 -6
BITMAP
0C00
0C00
1E00
3F00
6F80
CCC0
0C00
0C00
0C00
0C00
0C00
0C00
0C00
0C00
0C00
0C00
0C00
0C00
0C00
0C00
0C00
0C00
0C00
0C00
ENDCHAR
STARTCHAR 2192
ENCODING 8594
SWIDTH 1008 0
DWIDTH 28 0
BBX 25 10 1 2
BITMAP
00001000
00000800
00000E00
00000700
FFFFFF80
FFFFFF80
00000700
00000C00
00000800
00001000
ENDCHAR
STARTCHAR 2193
ENCODING 8595
SWIDTH 504 0
DWIDTH 14 0
BBX 10 24 2 -6
BITMAP
0C00
0C00
0C00
0C00
0C00
0C00
0C00
0C00
0C00
0C00
0C00
0C00
0C00
0C00
0C00
0C00
0C00
8C40
CDC0
7F00
3E00
1E00
0C00
0800
ENDCHAR
STARTCHAR 2194
ENCODING 8596
SWIDTH 1008 0
DWIDTH 28 0
BBX 25 10 1 2
BITMAP
06001800
0C000C00
18000E00
38000700
FFFFFF80
FFFFFF80
38000700
18000C00
0C000800
06001800
ENDCHAR
STARTCHAR 2195
ENCODING 8597
SWIDTH 504 0
DWIDTH 14 0
BBX 10 26 2 -6
BITMAP
0800
0C00
1E00
3F00
7F80
CDC0
8C40
0C00
0C00
0C00
0C00
0C00
0C00
0C00
0C00
0C00
0C00
0C00
0C00
8C40
EDC0
7F00
3E00
1E00
0C00
0800
ENDCHAR
STARTCHAR 21A8
ENCODING 8616
SWIDTH 504 0
DWIDTH 14 0
BBX 10 28 2 -8
BITMAP
0800
0C00
1E00
3F00
7F80
CDC0
8C40
0C00
0C00
0C00
0C00
0C00
0C00
0C00
0C00
0C00
0C00
0C00
0C00
8C40
EDC0
7F00
3E00
1E00
0C00
0800
0000
FFC0
ENDCHAR
STARTCHAR 2202
ENCODING 8706
SWIDTH 504 0
DWIDTH 14 0
BBX 12 19 1 0
BITMAP
07C0
0FE0
1030
2010
0010
0010
0010
0FD0
1830
3010
6010
6010
E010
C020
C020
C040
C040
6080
7E00
ENDCHAR
STARTCHAR 2206
ENCODING 8710
SWIDTH 612 0
DWIDTH 17 0
BBX 16 18 -1 1
BITMAP
0080
00C0
01C0
01C0
03E0
0260
0670
0470
0C38
0838
0818
101C
101C
200E
200E
6006
4007
FFFF
ENDCHAR
STARTCHAR 220F
ENCODING 8719
SWIDTH 828 0
DWIDTH 23 0
BBX 22 25 2 -6
BITMAP
FFFFF8
1800E0
1800E0
1800E0
1800E0
1800E0
1800E0
1800E0
1800E0
1800E0
1800E0
1800E0
1800E0
1800E0
1800E0
1800E0
1800E0
1800E0
1800E0
1800E0
1800E0
1800E0
1800E0
3C00E0
FF07FC
ENDCHAR
STARTCHAR 2211
ENCODING 8721
SWIDTH 720 0
DWIDTH 20 0
BBX 18 25 1 -6
BITMAP
FFFF80
700180
780080
380080
1C0000
0E0000
0F0000
070000
038000
01C000
01C000
00E000
00C000
008000
010000
030000
020000
040000
080000
180000
100040
200040
4003C0
FFFFC0
FFFF80
ENDCHAR
STARTCHAR 2212
ENCODING 8722
SWIDTH 684 0
DWIDTH 19 0
BBX 15 1 2 9
BITMAP
FFFE
ENDCHAR
STARTCHAR 2215
ENCODING 8725
SWIDTH 180 0
DWIDTH 5 0
BBX 13 20 -4 -1
BITMAP
0008
0010
0010
0020
0040
0040
0080
0180
0100
0200
0600
0400
0800
1800
1000
2000
6000
4000
8000
8000
ENDCHAR
STARTCHAR 2219
ENCODING 8729
SWIDTH 252 0
DWIDTH 7 0
BBX 3 3 2 8
BITMAP
40
E0
E0
ENDCHAR
STARTCHAR 221A
ENCODING 8730
SWIDTH 540 0
DWIDTH 15 0
BBX 14 25 1 -1
BITMAP
0004
0004
0004
0004
0008
0008
0008
0008
0008
0008
0010
3810
F810
0C10
0C10
0610
0610
0320
0320
01A0
01A0
00E0
00E0
0040
0040
ENDCHAR
STARTCHAR 221E
ENCODING 8734
SWIDTH 720 0
DWIDTH 20 0
BBX 18 12 1 1
BITMAP
001E00
3C7B00
466080
81C040
81C040
81C040
818040
81C040
834040
472080
3C1F00
000400
ENDCHAR
STARTCHAR 221F
ENCODING 8735
SWIDTH 972 0
DWIDTH 27 0
BBX 17 17 5 0
BITMAP
800000
800000
800000
800000
800000
800000
800000
800000
800000
800000
800000
800000
800000
800000
800000
800000
FFFF80
ENDCHAR
STARTCHAR 2229
ENCODING 8745
SWIDTH 720 0
DWIDTH 20 0
BBX 14 19 3 0
BITMAP
0780
1FE0
3030
6018
C00C
C00C
8004
8004
8004
8004
8004
8004
8004
8004
8004
8004
8004
8004
8004
ENDCHAR
STARTCHAR 222B
ENCODING 8747
SWIDTH 288 0
DWIDTH 8 0
BBX 8 28 0 -3
BITMAP
0E
0F
12
10
10
10
18
18
18
18
18
18
18
18
18
18
18
18
18
18
18
18
18
18
10
D0
F0
E0
ENDCHAR
STARTCHAR 2248
ENCODING 8776
SWIDTH 540 0
DWIDTH 15 0
BBX 15 10 0 4
BITMAP
3C02
4782
80FC
8010
0000
0000
0000
7E02
4384
807C
ENDCHAR
STARTCHAR 2260
ENCODING 8800
SWIDTH 540 0
DWIDTH 15 0
BBX 15 22 0 -4
BITMAP
0010
0010
0020
0020
0060
0040
0040
FFFE
0080
0080
0100
0100
0200
FFFE
0200
0400
0400
0800
0800
0800
1000
1000
ENDCHAR
STARTCHAR 2261
ENCODING 8801
SWIDTH 684 0
DWIDTH 19 0
BBX 14 10 3 4
BITMAP
FFFC
0000
0000
0000
FFFC
0000
0000
0000
0000
FFFC
ENDCHAR
STARTCHAR 2264
ENCODING 8804
SWIDTH 540 0
DWIDTH 15 0
BBX 15 19 1 -2
BITMAP
0002
000E
0078
01C0
0700
3800
E000
E000
1C00
0700
01E0
0038
000E
0002
0000
0000
0000
0000
FFFE
ENDCHAR
STARTCHAR 2265
ENCODING 8805
SWIDTH 540 0
DWIDTH 15 0
BBX 15 19 1 -2
BITMAP
8000
E000
3C00
0700
01C0
0038
000E
000E
0070
01C0
0700
3800
E000
8000
0000
0000
0000
0000
FFFE
ENDCHAR
STARTCHAR 2302
ENCODING 8962
SWIDTH 612 0
DWIDTH 17 0
BBX 13 15 2 1
BITMAP
0600
0D00
0880
10C0
2060
4030
C018
8018
8018
8018
8018
8018
8018
8018
FFF8
ENDCHAR
STARTCHAR 2310
ENCODING 8976
SWIDTH 684 0
DWIDTH 19 0
BBX 15 6 2 6
BITMAP
FFFE
8000
8000
8000
8000
8000
ENDCHAR
STARTCHAR 2320
ENCODING 8992
SWIDTH 612 0
DWIDTH 17 0
BBX 6 31 7 -7
BITMAP
08
3C
4C
40
40
C0
C0
C0
C0
C0
C0
C0
C0
C0
C0
C0
C0
C0
C0
C0
C0
C0
C0
C0
C0
C0
C0
C0
C0
C0
C0
ENDCHAR
STARTCHAR 2321
ENCODING 8993
SWIDTH 612 0
DWIDTH 17 0
BBX 5 31 4 -7
BITMAP
18
18
18
18
18
18
18
18
18
18
18
18
18
18
18
18
18
18
18
18
18
18
18
18
18
18
18
18
D8
F0
E0
ENDCHAR
STARTCHAR 2500
ENCODING 9472
SWIDTH 720 0
DWIDTH 20 0
BBX 20 3 0 7
BITMAP
FFFFF0
FFFFF0
FFFFF0
ENDCHAR
STARTCHAR 2502
ENCODING 9474
SWIDTH 612 0
DWIDTH 17 0
BBX 2 33 6 -8
BITMAP
C0
C0
C0
C0
C0
C0
C0
C0
C0
C0
C0
C0
C0
C0
C0
C0
C0
C0
C0
C0
C0
C0
C0
C0
C0
C0
C0
C0
C0
C0
C0
C0
C0
ENDCHAR
STARTCHAR 250C
ENCODING 9484
SWIDTH 720 0
DWIDTH 20 0
BBX 11 18 9 -8
BITMAP
FFE0
FFE0
FFE0
C000
C000
C000
C000
C000
C000
C000
C000
C000
C000
C000
C000
C000
C000
C000
ENDCHAR
STARTCHAR 2510
ENCODING 9488
SWIDTH 720 0
DWIDTH 20 0
BBX 11 18 0 -8
BITMAP
FFE0
FFE0
FFE0
0060
0060
0060
0060
0060
0060
0060
0060
0060
0060
0060
0060
0060
0060
0060
ENDCHAR
STARTCHAR 2514
ENCODING 9492
SWIDTH 720 0
DWIDTH 20 0
BBX 11 18 9 7
BITMAP
C000
C000
C000
C000
C000
C000
C000
C000
C000
C000
C000
C000
C000
C000
C000
FFE0
FFE0
FFE0
ENDCHAR
STARTCHAR 2518
ENCODING 9496
SWIDTH 720 0
DWIDTH 20 0
BBX 11 18 0 7
BITMAP
0060
0060
0060
0060
0060
0060
0060
0060
0060
0060
0060
0060
0060
0060
0060
FFE0
FFE0
FFE0
ENDCHAR
STARTCHAR 251C
ENCODING 9500
SWIDTH 720 0
DWIDTH 20 0
BBX 11 33 9 -8
BITMAP
C000
C000
C000
C000
C000
C000
C000
C000
C000
C000
C000
C000
C000
C000
C000
FFE0
FFE0
FFE0
C000
C000
C000
C000
C000
C000
C000
C000
C000
C000
C000
C000
C000
C000
C000
ENDCHAR
STARTCHAR 2524
ENCODING 9508
SWIDTH 720 0
DWIDTH 20 0
BBX 11 33 0 -8
BITMAP
0060
0060
0060
0060
0060
0060
0060
0060
0060
0060
0060
0060
0060
0060
0060
FFE0
FFE0
FFE0
0060
0060
0060
0060
0060
0060
0060
0060
0060
0060
0060
0060
0060
0060
0060
ENDCHAR
STARTCHAR 252C
ENCODING 9516
SWIDTH 720 0
DWIDTH 20 0
BBX 20 18 0 -8
BITMAP
FFFFF0
FFFFF0
FFFFF0
006000
006000
006000
006000
006000
006000
006000
006000
006000
006000
006000
006000
006000
006000
006000
ENDCHAR
STARTCHAR 2534
ENCODING 9524
SWIDTH 720 0
DWIDTH 20 0
BBX 20 18 0 7
BITMAP
006000
006000
006000
006000
006000
006000
006000
006000
006000
006000
006000
006000
006000
006000
006000
FFFFF0
FFFFF0
FFFFF0
ENDCHAR
STARTCHAR 253C
ENCODING 9532
SWIDTH 720 0
DWIDTH 20 0
BBX 20 33 0 -8
BITMAP
006000
006000
006000
006000
006000
006000
006000
006000
006000
006000
006000
006000
006000
006000
006000
FFFFF0
FFFFF0
FFFFF0
006000
006000
006000
006000
006000
006000
006000
006000
006000
006000
006000
006000
006000
006000
006000
ENDCHAR
STARTCHAR 2550
ENCODING 9552
SWIDTH 720 0
DWIDTH 20 0
BBX 20 7 0 5
BITMAP
FFFFF0
FFFFF0
000000
000000
000000
FFFFF0
FFFFF0
ENDCHAR
STARTCHAR 2551
ENCODING 9553
SWIDTH 720 0
DWIDTH 20 0
BBX 8 33 6 -8
BITMAP
C7
C7
C7
C7
C7
C7
C7
C7
C7
C7
C7
C7
C7
C7
C7
C7
C7
C7
C7
C7
C7
C7
C7
C7
C7
C7
C7
C7
C7
C7
C7
C7
C7
ENDCHAR
STARTCHAR 2552
ENCODING 9554
SWIDTH 720 0
DWIDTH 20 0
BBX 11 20 9 -8
BITMAP
FFE0
FFE0
C000
C000
C000
FFE0
FFE0
C000
C000
C000
C000
C000
C000
C000
C000
C000
C000
C000
C000
C000
ENDCHAR
STARTCHAR 2553
ENCODING 9555
SWIDTH 720 0
DWIDTH 20 0
BBX 14 18 6 -8
BITMAP
FFFC
FFFC
FFFC
C700
C700
C700
C700
C700
C700
C700
C700
C700
C700
C700
C700
C700
C700
C700
ENDCHAR
STARTCHAR 2554
ENCODING 9556
SWIDTH 720 0
DWIDTH 20 0
BBX 14 20 6 -8
BITMAP
FFFC
FFFC
C000
C000
C000
C7FC
C7FC
C700
C700
C700
C700
C700
C700
C700
C700
C700
C700
C700
C700
C700
ENDCHAR
STARTCHAR 2555
ENCODING 9557
SWIDTH 720 0
DWIDTH 20 0
BBX 11 20 0 -8
BITMAP
FFE0
FFE0
0060
0060
0060
FFE0
FFE0
0060
0060
0060
0060
0060
0060
0060
0060
0060
0060
0060
0060
0060
ENDCHAR
STARTCHAR 2556
ENCODING 9558
SWIDTH 720 0
DWIDTH 20 0
BBX 14 18 0 -8
BITMAP
FFFC
FFFC
FFFC
031C
031C
031C
031C
031C
031C
031C
031C
031C
031C
031C
031C
031C
031C
031C
ENDCHAR
STARTCHAR 2557
ENCODING 9559
SWIDTH 720 0
DWIDTH 20 0
BBX 14 20 0 -8
BITMAP
FFFC
FFFC
001C
001C
001C
FF1C
FF1C
031C
031C
031C
031C
031C
031C
031C
031C
031C
031C
031C
031C
031C
ENDCHAR
STARTCHAR 2558
ENCODING 9560
SWIDTH 720 0
DWIDTH 20 0
BBX 11 20 9 5
BITMAP
C000
C000
C000
C000
C000
C000
C000
C000
C000
C000
C000
C000
C000
FFE0
FFE0
C000
C000
C000
FFE0
FFE0
ENDCHAR
STARTCHAR 2559
ENCODING 9561
SWIDTH 720 0
DWIDTH 20 0
BBX 14 18 6 7
BITMAP
C700
C700
C700
C700
C700
C700
C700
C700
C700
C700
C700
C700
C700
C700
C700
FFFC
FFFC
FFFC
ENDCHAR
STARTCHAR 255A
ENCODING 9562
SWIDTH 720 0
DWIDTH 20 0
BBX 14 20 6 5
BITMAP
C700
C700
C700
C700
C700
C700
C700
C700
C700
C700
C700
C700
C700
C7FC
C7FC
C000
C000
C000
FFFC
FFFC
ENDCHAR
STARTCHAR 255B
ENCODING 9563
SWIDTH 720 0
DWIDTH 20 0
BBX 11 20 0 5
BITMAP
0060
0060
0060
0060
0060
0060
0060
0060
0060
0060
0060
0060
0060
FFE0
FFE0
0060
0060
0060
FFE0
FFE0
ENDCHAR
STARTCHAR 255C
ENCODING 9564
SWIDTH 720 0
DWIDTH 20 0
BBX 14 18 0 7
BITMAP
031C
031C
031C
031C
031C
031C
031C
031C
031C
031C
031C
031C
031C
031C
031C
FFFC
FFFC
FFFC
ENDCHAR
STARTCHAR 255D
ENCODING 9565
SWIDTH 720 0
DWIDTH 20 0
BBX 14 20 0 5
BITMAP
031C
031C
031C
031C
031C
031C
031C
031C
031C
031C
031C
031C
031C
FF1C
FF1C
001C
001C
001C
FFFC
FFFC
ENDCHAR
STARTCHAR 255E
ENCODING 9566
SWIDTH 720 0
DWIDTH 20 0
BBX 11 33 9 -8
BITMAP
C000
C000
C000
C000
C000
C000
C000
C000
C000
C000
C000
C000
C000
FFE0
FFE0
C000
C000
C000
FFE0
FFE0
C000
C000
C000
C000
C000
C000
C000
C000
C000
C000
C000
C000
C000
ENDCHAR
STARTCHAR 255F
ENCODING 9567
SWIDTH 720 0
DWIDTH 20 0
BBX 14 33 6 -8
BITMAP
C700
C700
C700
C700
C700
C700
C700
C700
C700
C700
C700
C700
C700
C700
C700
C7FC
C7FC
C7FC
C700
C700
C700
C700
C700
C700
C700
C700
C700
C700
C700
C700
C700
C700
C700
ENDCHAR
STARTCHAR 2560
ENCODING 9568
SWIDTH 720 0
DWIDTH 20 0
BBX 14 33 6 -8
BITMAP
C700
C700
C700
C700
C700
C700
C700
C700
C700
C700
C700
C700
C700
C7FC
C7FC
C000
C000
C000
C7FC
C7FC
C700
C700
C700
C700
C700
C700
C700
C700
C700
C700
C700
C700
C700
ENDCHAR
STARTCHAR 2561
ENCODING 9569
SWIDTH 720 0
DWIDTH 20 0
BBX 11 33 0 -8
BITMAP
0060
0060
0060
0060
0060
0060
0060
0060
0060
0060
0060
0060
0060
FFE0
FFE0
0060
0060
0060
FFE0
FFE0
0060
0060
0060
0060
0060
0060
0060
0060
0060
0060
0060
0060
0060
ENDCHAR
STARTCHAR 2562
ENCODING 9570
SWIDTH 720 0
DWIDTH 20 0
BBX 14 33 0 -8
BITMAP
031C
031C
031C
031C
031C
031C
031C
031C
031C
031C
031C
031C
031C
031C
031C
FF1C
FF1C
FF1C
031C
031C
031C
031C
031C
031C
031C
031C
031C
031C
031C
031C
031C
031C
031C
ENDCHAR
STARTCHAR 2563
ENCODING 9571
SWIDTH 720 0
DWIDTH 20 0
BBX 14 33 0 -8
BITMAP
031C
031C
031C
031C
031C
031C
031C
031C
031C
031C
031C
031C
031C
FF1C
FF1C
001C
001C
001C
FF1C
FF1C
031C
031C
031C
031C
031C
031C
031C
031C
031C
031C
031C
031C
031C
ENDCHAR
STARTCHAR 2564
ENCODING 9572
SWIDTH 720 0
DWIDTH 20 0
BBX 20 20 0 -8
BITMAP
FFFFF0
FFFFF0
000000
000000
000000
FFFFF0
FFFFF0
006000
006000
006000
006000
006000
006000
006000
006000
006000
006000
006000
006000
006000
ENDCHAR
STARTCHAR 2565
ENCODING 9573
SWIDTH 720 0
DWIDTH 20 0
BBX 20 18 0 -8
BITMAP
FFFFF0
FFFFF0
FFFFF0
031C00
031C00
031C00
031C00
031C00
031C00
031C00
031C00
031C00
031C00
031C00
031C00
031C00
031C00
031C00
ENDCHAR
STARTCHAR 2566
ENCODING 9574
SWIDTH 720 0
DWIDTH 20 0
BBX 20 20 0 -8
BITMAP
FFFFF0
FFFFF0
000000
000000
000000
FF1FF0
FF1FF0
031C00
031C00
031C00
031C00
031C00
031C00
031C00
031C00
031C00
031C00
031C00
031C00
031C00
ENDCHAR
STARTCHAR 2567
ENCODING 9575
SWIDTH 720 0
DWIDTH 20 0
BBX 20 20 0 5
BITMAP
006000
006000
006000
006000
006000
006000
006000
006000
006000
006000
006000
006000
006000
FFFFF0
FFFFF0
000000
000000
000000
FFFFF0
FFFFF0
ENDCHAR
STARTCHAR 2568
ENCODING 9576
SWIDTH 720 0
DWIDTH 20 0
BBX 20 18 0 7
BITMAP
031C00
031C00
031C00
031C00
031C00
031C00
031C00
031C00
031C00
031C00
031C00
031C00
031C00
031C00
031C00
FFFFF0
FFFFF0
FFFFF0
ENDCHAR
STARTCHAR 2569
ENCODING 9577
SWIDTH 720 0
DWIDTH 20 0
BBX 20 20 0 5
BITMAP
031C00
031C00
031C00
031C00
031C00
031C00
031C00
031C00
031C00
031C00
031C00
031C00
031C00
FF1FF0
FF1FF0
000000
000000
000000
FFFFF0
FFFFF0
ENDCHAR
STARTCHAR 256A
ENCODING 9578
SWIDTH 720 0
DWIDTH 20 0
BBX 20 33 0 -8
BITMAP
006000
006000
006000
006000
006000
006000
006000
006000
006000
006000
006000
006000
006000
FFFFF0
FFFFF0
006000
006000
006000
FFFFF0
FFFFF0
006000
006000
006000
006000
006000
006000
006000
006000
006000
006000
006000
006000
006000
ENDCHAR
STARTCHAR 256B
ENCODING 9579
SWIDTH 720 0
DWIDTH 20 0
BBX 20 33 0 -8
BITMAP
031C00
031C00
031C00
031C00
031C00
031C00
031C00
031C00
031C00
031C00
031C00
031C00
031C00
031C00
031C00
FFFFF0
FFFFF0
FFFFF0
031C00
031C00
031C00
031C00
031C00
031C00
031C00
031C00
031C00
031C00
031C00
031C00
031C00
031C00
031C00
ENDCHAR
STARTCHAR 256C
ENCODING 9580
SWIDTH 720 0
DWIDTH 20 0
BBX 20 33 0 -8
BITMAP
031C00
031C00
031C00
031C00
031C00
031C00
031C00
031C00
031C00
031C00
031C00
031C00
031C00
FF1FF0
FF1FF0
000000
000000
000000
FF1FF0
FF1FF0
031C00
031C00
031C00
031C00
031C00
031C00
031C00
031C00
031C00
031C00
031C00
031C00
031C00
ENDCHAR
STARTCHAR 2580
ENCODING 9600
SWIDTH 720 0
DWIDTH 20 0
BBX 20 17 0 8
BITMAP
FFFFF0
FFFFF0
FFFFF0
FFFFF0
FFFFF0
FFFFF0
FFFFF0
FFFFF0
FFFFF0
FFFFF0
FFFFF0
FFFFF0
FFFFF0
FFFFF0
FFFFF0
FFFFF0
FFFFF0
ENDCHAR
STARTCHAR 2584
ENCODING 9604
SWIDTH 720 0
DWIDTH 20 0
BBX 20 16 0 -8
BITMAP
FFFFF0
FFFFF0
FFFFF0
FFFFF0
FFFFF0
FFFFF0
FFFFF0
FFFFF0
FFFFF0
FFFFF0
FFFFF0
FFFFF0
FFFFF0
FFFFF0
FFFFF0
FFFFF0
ENDCHAR
STARTCHAR 2588
ENCODING 9608
SWIDTH 720 0
DWIDTH 20 0
BBX 20 33 0 -8
BITMAP
FFFFF0
FFFFF0
FFFFF0
FFFFF0
FFFFF0
FFFFF0
FFFFF0
FFFFF0
FFFFF0
FFFFF0
FFFFF0
FFFFF0
FFFFF0
FFFFF0
FFFFF0
FFFFF0
FFFFF0
FFFFF0
FFFFF0
FFFFF0
FFFFF0
FFFFF0
FFFFF0
FFFFF0
FFFFF0
FFFFF0
FFFFF0
FFFFF0
FFFFF0
FFFFF0
FFFFF0
FFFFF0
FFFFF0
ENDCHAR
STARTCHAR 258C
ENCODING 9612
SWIDTH 720 0
DWIDTH 20 0
BBX 10 33 0 -8
BITMAP
FFC0
FFC0
FFC0
FFC0
FFC0
FFC0
FFC0
FFC0
FFC0
FFC0
FFC0
FFC0
FFC0
FFC0
FFC0
FFC0
FFC0
FFC0
FFC0
FFC0
FFC0
FFC0
FFC0
FFC0
FFC0
FFC0
FFC0
FFC0
FFC0
FFC0
FFC0
FFC0
FFC0
ENDCHAR
STARTCHAR 2590
ENCODING 9616
SWIDTH 720 0
DWIDTH 20 0
BBX 10 33 10 -8
BITMAP
FFC0
FFC0
FFC0
FFC0
FFC0
FFC0
FFC0
FFC0
FFC0
FFC0
FFC0
FFC0
FFC0
FFC0
FFC0
FFC0
FFC0
FFC0
FFC0
FFC0
FFC0
FFC0
FFC0
FFC0
FFC0
FFC0
FFC0
FFC0
FFC0
FFC0
FFC0
FFC0
FFC0
ENDCHAR
STARTCHAR 2591
ENCODING 9617
SWIDTH 720 0
DWIDTH 20 0
BBX 19 32 1 -7
BITMAP
C18300
000000
000000
081060
081060
000000
C18300
C18300
000000
000000
081060
081060
000000
C18300
C18300
000000
000000
081060
000000
000000
C18300
C18300
000000
081060
081060
000000
000000
C18300
000000
000000
081060
081060
ENDCHAR
STARTCHAR 2592
ENCODING 9618
SWIDTH 720 0
DWIDTH 20 0
BBX 20 32 0 -7
BITMAP
64C9B0
000000
000000
9B3640
9B3640
000000
64C9B0
64C9B0
000000
000000
9B3640
9B3640
000000
64C9B0
64C9B0
000000
000000
9B3640
000000
000000
64C9B0
64C9B0
000000
9B3640
9B3640
000000
000000
64C9B0
000000
000000
9B3640
9B3640
ENDCHAR
STARTCHAR 2593
ENCODING 9619
SWIDTH 720 0
DWIDTH 20 0
BBX 20 34 0 -9
BITMAP
26CD90
FFFFF0
FFFFF0
D93660
D93660
FFFFF0
26CD90
26CD90
FFFFF0
FFFFF0
D93660
D93660
FFFFF0
26CD90
26CD90
FFFFF0
FFFFF0
D93660
FFFFF0
FFFFF0
26CD90
26CD90
FFFFF0
D93660
D93660
FFFFF0
FFFFF0
26CD90
FFFFF0
FFFFF0
D93660
D93660
FFFFF0
FFFFF0
ENDCHAR
STARTCHAR 25A0
ENCODING 9632
SWIDTH 612 0
DWIDTH 17 0
BBX 13 13 2 0
BITMAP
FFF8
FFF8
FFF8
FFF8
FFF8
FFF8
FFF8
FFF8
FFF8
FFF8
FFF8
FFF8
FFF8
ENDCHAR
STARTCHAR 25A1
ENCODING 9633
SWIDTH 612 0
DWIDTH 17 0
BBX 13 13 2 0
BITMAP
FFF8
8008
8008
8008
8008
8008
8008
8008
8008
8008
8008
8008
FFF8
ENDCHAR
STARTCHAR 25AA
ENCODING 9642
SWIDTH 360 0
DWIDTH 10 0
BBX 6 6 2 6
BITMAP
FC
FC
FC
FC
FC
FC
ENDCHAR
STARTCHAR 25AB
ENCODING 9643
SWIDTH 360 0
DWIDTH 10 0
BBX 6 6 2 6
BITMAP
FC
84
84
84
84
FC
ENDCHAR
STARTCHAR 25AC
ENCODING 9644
SWIDTH 1008 0
DWIDTH 28 0
BBX 28 6 0 4
BITMAP
FFFFFFF0
FFFFFFF0
FFFFFFF0
FFFFFFF0
FFFFFFF0
FFFFFFF0
ENDCHAR
STARTCHAR 25B2
ENCODING 9650
SWIDTH 1008 0
DWIDTH 28 0
BBX 19 19 4 0
BITMAP
004000
006000
00E000
00F000
01F000
01F800
03F800
03FC00
07FC00
07FE00
0FFE00
0FFF00
1FFF00
1FFF80
3FFF80
3FFFC0
7FFFC0
7FFFE0
FFFFE0
ENDCHAR
STARTCHAR 25BA
ENCODING 9658
SWIDTH 1008 0
DWIDTH 28 0
BBX 19 19 4 0
BITMAP
800000
E00000
F80000
FE0000
FF8000
FFE000
FFF800
FFFE00
FFFF80
FFFFE0
FFFFC0
FFFF00
FFFC00
FFF000
FFC000
FF0000
FC0000
F00000
C00000
ENDCHAR
STARTCHAR 25BC
ENCODING 9660
SWIDTH 1008 0
DWIDTH 28 0
BBX 19 19 4 0
BITMAP
FFFFE0
7FFFE0
7FFFC0
3FFFC0
3FFF80
1FFF80
1FFF00
0FFF00
0FFE00
07FE00
07FC00
03FC00
03F800
01F800
01F000
00F000
00E000
006000
004000
ENDCHAR
STARTCHAR 25C4
ENCODING 9668
SWIDTH 1008 0
DWIDTH 28 0
BBX 20 19 4 0
BITMAP
000030
0000F0
0003F0
000FF0
003FF0
00FFF0
03FFF0
0FFFF0
3FFFF0
FFFFF0
3FFFF0
0FFFF0
03FFF0
00FFF0
003FF0
000FF0
0003F0
0000F0
000030
ENDCHAR
STARTCHAR 25CA
ENCODING 9674
SWIDTH 504 0
DWIDTH 14 0
BBX 12 19 1 0
BITMAP
0600
0B00
1900
1180
3080
20C0
6040
4060
C030
8010
C020
4060
6040
20C0
3080
1180
0B00
0E00
0600
ENDCHAR
STARTCHAR 25CB
ENCODING 9675
SWIDTH 612 0
DWIDTH 17 0
BBX 12 12 2 2
BITMAP
0700
18C0
2020
4010
4010
8010
8010
4010
4010
6020
3060
0F80
ENDCHAR
STARTCHAR 25CF
ENCODING 9679
SWIDTH 612 0
DWIDTH 17 0
BBX 12 12 2 2
BITMAP
0700
1FC0
3FE0
7FF0
7FF0
FFF0
FFF0
7FF0
7FF0
7FE0
3FE0
0F80
ENDCHAR
STARTCHAR 25D8
ENCODING 9688
SWIDTH 612 0
DWIDTH 17 0
BBX 13 13 2 0
BITMAP
FFF8
FFF8
FFF8
FFF8
F0F8
F078
F078
F078
F8F8
FFF8
FFF8
FFF8
FFF8
ENDCHAR
STARTCHAR 25D9
ENCODING 9689
SWIDTH 612 0
DWIDTH 17 0
BBX 15 16 1 0
BITMAP
FFFE
FFFE
FC7E
F39E
EFEE
DFF6
DFF6
9FF6
BFF6
DFF6
DFF6
CFEE
E7CE
F83E
FFFE
FFFE
ENDCHAR
STARTCHAR 25E6
ENCODING 9702
SWIDTH 360 0
DWIDTH 10 0
BBX 6 6 2 7
BITMAP
F8
84
84
84
84
78
ENDCHAR
STARTCHAR 263A
ENCODING 9786
SWIDTH 1008 0
DWIDTH 28 0
BBX 17 18 6 -2
BITMAP
01C000
0FF800
380C00
200600
400300
C00100
8C1180
8C3980
800080
800080
800180
801100
C43100
43E300
200600
380C00
0FF000
018000
ENDCHAR
STARTCHAR 263B
ENCODING 9787
SWIDTH 1044 0
DWIDTH 29 0
BBX 17 18 6 -2
BITMAP
01C000
0FF800
1FFC00
3FFE00
7FFF00
7FFF80
F3E780
F3E780
FFFF80
FFFF80
FFFF80
FBFF80
7BEF80
7C1F00
3FFE00
1FFC00
0FF800
008000
ENDCHAR
STARTCHAR 263C
ENCODING 9788
SWIDTH 900 0
DWIDTH 25 0
BBX 25 25 0 -3
BITMAP
00080000
00080000
00080000
10080600
08080C00
047F9800
0380F000
01002000
02003000
04001000
04001800
04000800
FC000F80
04000800
04001000
04001000
02003000
01002000
0380F000
067F9000
0C080800
10080400
00080000
00080000
00080000
ENDCHAR
STARTCHAR 2640
ENCODING 9792
SWIDTH 756 0
DWIDTH 21 0
BBX 15 26 3 -6
BITMAP
0FE0
1010
2008
4004
8004
8004
8002
8004
8004
4004
4008
2008
1830
07C0
0100
0100
0100
0100
0100
7FFC
0100
0100
0100
0100
0100
0100
ENDCHAR
STARTCHAR 2642
ENCODING 9794
SWIDTH 756 0
DWIDTH 21 0
BBX 17 26 2 -4
BITMAP
000200
001E00
006500
018500
020900
000900
001080
001080
002080
002000
004000
074000
18E000
201000
400800
800800
800800
800400
000400
800400
800800
800800
401000
203000
18C000
070000
ENDCHAR
STARTCHAR 2660
ENCODING 9824
SWIDTH 540 0
DWIDTH 15 0
BBX 13 16 1 1
BITMAP
0200
0200
0700
0F80
1FC0
3FE0
7FF0
FFF8
FFF8
FFF8
FFF8
7AF0
0200
0600
0700
7FF0
ENDCHAR
STARTCHAR 2663
ENCODING 9827
SWIDTH 648 0
DWIDTH 18 0
BBX 16 17 1 0
BITMAP
0180
07E0
07F0
0FF0
0FF0
07E0
7FFE
FFFF
FFFF
FFFF
FFFF
FF7F
7CBE
0180
01C0
03E0
1FFC
ENDCHAR
STARTCHAR 2665
ENCODING 9829
SWIDTH 612 0
DWIDTH 17 0
BBX 15 17 1 0
BITMAP
3030
7CFC
FEFC
FFFE
FFFE
FFFC
7FFC
7FF8
3FF8
1FF0
1FE0
0FC0
07C0
0380
0300
0100
0100
ENDCHAR
STARTCHAR 2666
ENCODING 9830
SWIDTH 504 0
DWIDTH 14 0
BBX 12 16 1 1
BITMAP
0600
0600
0F00
1F80
1FC0
3FC0
7FE0
FFF0
FFF0
7FE0
3FC0
1F80
0F80
0F00
0600
0200
ENDCHAR
STARTCHAR 266A
ENCODING 9834
SWIDTH 504 0
DWIDTH 14 0
BBX 12 18 1 -1
BITMAP
03E0
03F0
03F0
0230
0210
0210
0200
0200
0200
0200
0200
0200
7A00
FE00
FE00
FE00
FE00
FC00
ENDCHAR
STARTCHAR 266B
ENCODING 9835
SWIDTH 756 0
DWIDTH 21 0
BBX 17 22 1 -1
BITMAP
000380
003F80
01FF80
03FE80
03F080
038080
030080
030080
030080
030080
030080
030080
030080
031F80
033F80
1B3F80
7F3F80
FF3F00
FF1E00
FE0000
7E0000
380000
ENDCHAR
STARTCHAR E801
ENCODING 59393
SWIDTH 252 0
DWIDTH 7 0
BBX 6 18 1 1
BITMAP
C0
C0
00
30
3C
3C
1C
0C
04
08
08
08
10
10
10
10
20
20
ENDCHAR
STARTCHAR E802
ENCODING 59394
SWIDTH 432 0
DWIDTH 12 0
BBX 10 20 3 -5
BITMAP
C000
FFC0
FFC0
0180
0100
0100
0100
0200
0200
6200
6600
0400
6400
6400
0C00
0800
0800
1800
1000
1000
ENDCHAR
STARTCHAR E803
ENCODING 59395
SWIDTH 432 0
DWIDTH 12 0
BBX 11 20 2 -5
BITMAP
6000
7FE0
7FE0
00C0
0080
0080
0080
0100
0100
F900
2300
2200
7200
2200
0600
0400
0400
0C00
0800
0800
ENDCHAR
STARTCHAR E804
ENCODING 59396
SWIDTH 432 0
DWIDTH 12 0
BBX 12 20 0 1
BITMAP
1800
4C00
E800
4800
1000
1000
1FF0
1FF0
0070
0030
0020
0020
0020
0040
0080
0100
0200
0400
0400
0400
ENDCHAR
STARTCHAR E805
ENCODING 59397
SWIDTH 432 0
DWIDTH 12 0
BBX 12 20 0 1
BITMAP
1800
4C00
E800
4800
1000
1000
1FF0
1FF0
0070
0030
0020
0620
0620
0040
0080
0100
0200
0400
0400
0400
ENDCHAR
STARTCHAR F001
ENCODING 61441
SWIDTH 504 0
DWIDTH 14 0
BBX 19 25 -5 -6
BITMAP
0007C0
000860
001060
003000
003000
006000
006000
03FFC0
00C1C0
00C180
00C180
00C180
018300
018300
018300
018700
030640
030680
030700
020000
060000
040000
0C0000
C80000
F00000
ENDCHAR
STARTCHAR F002
ENCODING 61442
SWIDTH 504 0
DWIDTH 14 0
BBX 20 25 -5 -6
BITMAP
0007F0
000870
001860
003060
003060
006060
0060C0
03FFC0
00E0C0
00C180
00C180
00C180
018380
018300
018300
018300
030640
030680
030700
020000
060000
040000
0C0000
C80000
F00000
ENDCHAR
STARTCHAR F004
ENCODING 61444
SWIDTH 324 0
DWIDTH 9 0
BBX 4 5 1 -6
BITMAP
30
70
30
20
C0
ENDCHAR
STARTCHAR F005
ENCODING 61445
SWIDTH 324 0
DWIDTH 9 0
BBX 5 4 0 -5
BITMAP
70
18
10
E0
ENDCHAR
STARTCHAR F006
ENCODING 61446
SWIDTH 0 0
DWIDTH 0 0
BBX 3 2 -1 23
BITMAP
E0
80
ENDCHAR
STARTCHAR F007
ENCODING 61447
SWIDTH 0 0
DWIDTH 0 0
BBX 4 2 -3 23
BITMAP
70
C0
ENDCHAR
STARTCHAR F008
ENCODING 61448
SWIDTH 0 0
DWIDTH 0 0
BBX 4 5 -3 14
BITMAP
70
60
40
C0
80
ENDCHAR
STARTCHAR F009
ENCODING 61449
SWIDTH 0 0
DWIDTH 0 0
BBX 4 5 -4 20
BITMAP
70
70
60
40
80
ENDCHAR
STARTCHAR F00F
ENCODING 61455
SWIDTH 0 0
DWIDTH 0 0
BBX 4 5 -7 14
BITMAP
E0
60
20
30
10
ENDCHAR
STARTCHAR F010
ENCODING 61456
SWIDTH 0 0
DWIDTH 0 0
BBX 3 3 -1 22
BITMAP
E0
20
40
ENDCHAR
STARTCHAR F011
ENCODING 61457
SWIDTH 0 0
DWIDTH 0 0
BBX 3 2 -3 22
BITMAP
E0
20
ENDCHAR
STARTCHAR F012
ENCODING 61458
SWIDTH 0 0
DWIDTH 0 0
BBX 4 4 -3 14
BITMAP
70
90
20
40
ENDCHAR
STARTCHAR F013
ENCODING 61459
SWIDTH 0 0
DWIDTH 0 0
BBX 4 4 -5 20
BITMAP
60
90
20
40
ENDCHAR
STARTCHAR F014
ENCODING 61460
SWIDTH 0 0
DWIDTH 0 0
BBX 4 4 -6 14
BITMAP
70
90
20
40
ENDCHAR
STARTCHAR F015
ENCODING 61461
SWIDTH 0 0
DWIDTH 0 0
BBX 7 2 -5 23
BITMAP
E0
BE
ENDCHAR
STARTCHAR F016
ENCODING 61462
SWIDTH 0 0
DWIDTH 0 0
BBX 9 3 -8 22
BITMAP
7880
9F80
8700
ENDCHAR
STARTCHAR F017
ENCODING 61463
SWIDTH 0 0
DWIDTH 0 0
BBX 9 4 -10 21
BITMAP
2080
7880
9F00
0E00
ENDCHAR
STARTCHAR F018
ENCODING 61464
SWIDTH 0 0
DWIDTH 0 0
BBX 9 4 -11 21
BITMAP
0080
7880
9F80
8700
ENDCHAR
STARTCHAR F019
ENCODING 61465
SWIDTH 0 0
DWIDTH 0 0
BBX 9 4 -9 15
BITMAP
0080
7880
9F00
8F00
ENDCHAR
STARTCHAR F01A
ENCODING 61466
SWIDTH 0 0
DWIDTH 0 0
BBX 9 3 -10 16
BITMAP
7C80
9F80
8700
ENDCHAR
STARTCHAR F01B
ENCODING 61467
SWIDTH 0 0
DWIDTH 0 0
BBX 9 3 -11 16
BITMAP
7C80
9F80
0700
ENDCHAR
STARTCHAR F01C
ENCODING 61468
SWIDTH 0 0
DWIDTH 0 0
BBX 9 4 -5 21
BITMAP
0080
7880
9F80
8700
ENDCHAR
STARTCHAR F01D
ENCODING 61469
SWIDTH 0 0
DWIDTH 0 0
BBX 8 3 -6 16
BITMAP
F9
BF
0E
ENDCHAR
STARTCHAR F01E
ENCODING 61470
SWIDTH 0 0
DWIDTH 0 0
BBX 3 2 -11 -4
BITMAP
E0
E0
ENDCHAR
STARTCHAR F01F
ENCODING 61471
SWIDTH 0 0
DWIDTH 0 0
BBX 3 2 -14 -4
BITMAP
E0
E0
ENDCHAR
STARTCHAR F020
ENCODING 61472
SWIDTH 0 0
DWIDTH 0 0
BBX 3 2 -14 -4
BITMAP
E0
E0
ENDCHAR
STARTCHAR F021
ENCODING 61473
SWIDTH 0 0
DWIDTH 0 0
BBX 3 2 -13 -4
BITMAP
E0
E0
ENDCHAR
STARTCHAR F022
ENCODING 61474
SWIDTH 0 0
DWIDTH 0 0
BBX 3 2 -14 -4
BITMAP
E0
E0
ENDCHAR
STARTCHAR F023
ENCODING 61475
SWIDTH 0 0
DWIDTH 0 0
BBX 3 2 -11 -4
BITMAP
E0
E0
ENDCHAR
STARTCHAR F024
ENCODING 61476
SWIDTH 0 0
DWIDTH 0 0
BBX 2 2 -9 -4
BITMAP
C0
C0
ENDCHAR
STARTCHAR F025
ENCODING 61477
SWIDTH 0 0
DWIDTH 0 0
BBX 3 2 -11 -4
BITMAP
E0
E0
ENDCHAR
STARTCHAR F026
ENCODING 61478
SWIDTH 0 0
DWIDTH 0 0
BBX 2 2 -11 -4
BITMAP
C0
C0
ENDCHAR
STARTCHAR F027
ENCODING 61479
SWIDTH 0 0
DWIDTH 0 0
BBX 2 2 -10 -4
BITMAP
C0
C0
ENDCHAR
STARTCHAR F028
ENCODING 61480
SWIDTH 0 0
DWIDTH 0 0
BBX 2 2 -11 -4
BITMAP
C0
C0
ENDCHAR
STARTCHAR F029
ENCODING 61481
SWIDTH 0 0
DWIDTH 0 0
BBX 2 2 -8 -4
BITMAP
C0
C0
ENDCHAR
STARTCHAR F02A
ENCODING 61482
SWIDTH 0 0
DWIDTH 0 0
BBX 2 2 -7 -4
BITMAP
C0
C0
ENDCHAR
STARTCHAR F02B
ENCODING 61483
SWIDTH 0 0
DWIDTH 0 0
BBX 3 2 -12 -4
BITMAP
E0
E0
ENDCHAR
STARTCHAR F02C
ENCODING 61484
SWIDTH 0 0
DWIDTH 0 0
BBX 3 2 -6 -4
BITMAP
E0
E0
ENDCHAR
STARTCHAR F02D
ENCODING 61485
SWIDTH 0 0
DWIDTH 0 0
BBX 8 2 -8 23
BITMAP
71
9F
ENDCHAR
STARTCHAR F02E
ENCODING 61486
SWIDTH 0 0
DWIDTH 0 0
BBX 8 3 -8 22
BITMAP
F9
BF
0E
ENDCHAR
STARTCHAR F02F
ENCODING 61487
SWIDTH 0 0
DWIDTH 0 0
BBX 8 2 -9 23
BITMAP
70
9F
ENDCHAR
STARTCHAR F030
ENCODING 61488
SWIDTH 0 0
DWIDTH 0 0
BBX 9 4 -10 21
BITMAP
0080
7880
9F80
8700
ENDCHAR
STARTCHAR F031
ENCODING 61489
SWIDTH 288 0
DWIDTH 8 0
BBX 5 12 1 0
BITMAP
78
18
18
30
30
30
60
60
60
68
D0
E0
ENDCHAR
STARTCHAR FB01
ENCODING 64257
SWIDTH 504 0
DWIDTH 14 0
BBX 19 25 -5 -6
BITMAP
0007C0
000860
001060
003000
003000
006000
006000
03FFC0
00C1C0
00C180
00C180
00C180
018300
018300
018300
018700
030640
030680
030700
020000
060000
040000
0C0000
C80000
F00000
ENDCHAR
STARTCHAR FB02
ENCODING 64258
SWIDTH 504 0
DWIDTH 14 0
BBX 20 25 -5 -6
BITMAP
0007F0
000870
001860
003060
003060
006060
0060C0
03FFC0
00E0C0
00C180
00C180
00C180
018380
018300
018300
018300
030640
030680
030700
020000
060000
040000
0C0000
C80000
F00000
ENDCHAR
STARTCHAR FB1D
ENCODING 64285
SWIDTH 252 0
DWIDTH 7 0
BBX 5 12 2 3
BITMAP
60
70
78
38
18
08
10
20
00
40
E0
40
ENDCHAR
STARTCHAR FB1E
ENCODING 64286
SWIDTH 0 0
DWIDTH 0 0
BBX 8 4 0 17
BITMAP
01
82
FC
78
ENDCHAR
STARTCHAR FB1F
ENCODING 64287
SWIDTH 468 0
DWIDTH 13 0
BBX 12 11 2 4
BITMAP
6080
71E0
78F0
3870
1830
0820
1020
2040
0080
FFE0
FFE0
ENDCHAR
STARTCHAR FB20
ENCODING 64288
SWIDTH 432 0
DWIDTH 12 0
BBX 13 15 0 0
BITMAP
1020
1E70
1E78
0E38
0810
0820
0820
0C40
0C40
0480
0880
0980
1F00
7F00
FC00
ENDCHAR
STARTCHAR FB2A
ENCODING 64298
SWIDTH 612 0
DWIDTH 17 0
BBX 15 18 3 1
BITMAP
000C
0004
0000
C208
E79C
F79E
738E
4204
8208
8410
8420
8820
8840
9040
A080
FF80
FF80
FF00
ENDCHAR
STARTCHAR FB2B
ENCODING 64299
SWIDTH 612 0
DWIDTH 17 0
BBX 15 19 3 0
BITMAP
4000
E000
4000
0000
C208
E79C
F79E
738E
4204
8208
8410
8420
8820
8840
9040
A080
FF80
FF80
FF00
ENDCHAR
STARTCHAR FB2C
ENCODING 64300
SWIDTH 612 0
DWIDTH 17 0
BBX 15 18 3 1
BITMAP
000C
0004
0000
C208
E79C
F79E
738E
4204
8208
8410
85A0
89A0
8840
9040
A080
FF80
FF80
FF00
ENDCHAR
STARTCHAR FB2D
ENCODING 64301
SWIDTH 612 0
DWIDTH 17 0
BBX 15 19 3 0
BITMAP
4000
E000
4000
0000
C208
E79C
F79E
738E
4204
8208
8410
85A0
89A0
8840
9040
A080
FF80
FF80
FF00
ENDCHAR
STARTCHAR FB2E
ENCODING 64302
SWIDTH 468 0
DWIDTH 13 0
BBX 14 19 0 -4
BITMAP
1020
1878
187C
1C38
0E20
0E40
0F40
33C0
23C0
61C0
60E0
60E0
6060
6060
E040
0000
0000
7E00
7E00
ENDCHAR
STARTCHAR FB2F
ENCODING 64303
SWIDTH 468 0
DWIDTH 13 0
BBX 14 22 0 -7
BITMAP
1020
1878
187C
1C38
0E20
0E40
0F40
33C0
23C0
61C0
60E0
60E0
6060
6060
E040
0000
0000
7E00
7E00
1000
1800
1800
ENDCHAR
STARTCHAR FB30
ENCODING 64304
SWIDTH 468 0
DWIDTH 13 0
BBX 14 15 0 0
BITMAP
1020
1878
187C
1C38
0E20
0E40
0F40
33C0
23C0
61C0
60E0
60E0
6660
6660
E040
ENDCHAR
STARTCHAR FB31
ENCODING 64305
SWIDTH 432 0
DWIDTH 12 0
BBX 11 15 0 0
BITMAP
1800
1FE0
1FE0
00E0
0020
0020
0020
0620
0640
0040
0040
0080
7FE0
FFC0
FF80
ENDCHAR
STARTCHAR FB32
ENCODING 64306
SWIDTH 324 0
DWIDTH 9 0
BBX 9 15 -1 0
BITMAP
0600
0F80
0F80
0380
0180
0100
0100
1900
1A00
0200
0200
0700
7B00
F300
E300
ENDCHAR
STARTCHAR FB33
ENCODING 64307
SWIDTH 432 0
DWIDTH 12 0
BBX 9 15 3 0
BITMAP
C000
FF80
FF80
0080
0300
0400
0400
6C00
6800
0800
0800
1800
1800
1000
3000
ENDCHAR
STARTCHAR FB34
ENCODING 64308
SWIDTH 468 0
DWIDTH 13 0
BBX 14 15 0 0
BITMAP
0800
1FFC
1FFC
0008
0010
0020
0020
0320
3320
2060
6060
6060
4040
C040
8080
ENDCHAR
STARTCHAR FB35
ENCODING 64309
SWIDTH 252 0
DWIDTH 7 0
BBX 6 15 1 0
BITMAP
30
3C
3C
1C
0C
04
08
C8
C8
10
10
10
10
20
20
ENDCHAR
STARTCHAR FB36
ENCODING 64310
SWIDTH 252 0
DWIDTH 7 0
BBX 8 15 0 0
BITMAP
18
1F
1F
0F
04
08
08
D8
D0
10
10
30
30
20
40
ENDCHAR
STARTCHAR FB38
ENCODING 64312
SWIDTH 468 0
DWIDTH 13 0
BBX 12 15 1 0
BITMAP
2000
38F0
38F0
3930
2210
2410
2010
4620
4620
4020
4040
4040
7F80
FF80
FF00
ENDCHAR
STARTCHAR FB39
ENCODING 64313
SWIDTH 252 0
DWIDTH 7 0
BBX 6 8 1 7
BITMAP
30
38
3C
1C
0C
C4
C8
10
ENDCHAR
STARTCHAR FB3A
ENCODING 64314
SWIDTH 432 0
DWIDTH 12 0
BBX 10 20 3 -5
BITMAP
C000
FFC0
FFC0
0180
0100
0100
0100
3200
3200
0200
0600
0400
0400
0400
0C00
0800
0800
1800
1000
1000
ENDCHAR
STARTCHAR FB3B
ENCODING 64315
SWIDTH 396 0
DWIDTH 11 0
BBX 11 15 0 0
BITMAP
1800
1FC0
1FE0
01E0
0060
0020
0020
0C40
0C40
0040
0080
0080
7F00
FF00
FC00
ENDCHAR
STARTCHAR FB3C
ENCODING 64316
SWIDTH 432 0
DWIDTH 12 0
BBX 9 20 3 1
BITMAP
C000
6000
4000
4000
8000
8000
FF80
FF80
0380
0180
0100
3100
3100
0200
0400
0800
1000
2000
2000
2000
ENDCHAR
STARTCHAR FB3E
ENCODING 64318
SWIDTH 468 0
DWIDTH 13 0
BBX 12 15 0 0
BITMAP
1000
1C60
1CF0
1DF0
0630
0410
0810
1190
2190
2020
4020
4020
8FC0
9FC0
9F80
ENDCHAR
STARTCHAR FB40
ENCODING 64320
SWIDTH 288 0
DWIDTH 8 0
BBX 9 15 -1 0
BITMAP
0C00
0F00
0F80
0780
0100
0100
0200
1A00
1A00
0400
0400
0400
7C00
7C00
FC00
ENDCHAR
STARTCHAR FB41
ENCODING 64321
SWIDTH 468 0
DWIDTH 13 0
BBX 11 15 1 0
BITMAP
3000
3FC0
3FE0
11E0
2020
2020
4020
4620
4620
C040
C040
4080
7380
7F00
3E00
ENDCHAR
STARTCHAR FB43
ENCODING 64323
SWIDTH 432 0
DWIDTH 12 0
BBX 10 20 1 -5
BITMAP
3000
3FC0
3FC0
11C0
2040
4040
4040
E640
F680
8080
0080
0180
0100
0100
0100
0300
0200
0200
0600
0400
ENDCHAR
STARTCHAR FB44
ENCODING 64324
SWIDTH 432 0
DWIDTH 12 0
BBX 11 15 0 0
BITMAP
1800
1FC0
1FE0
09E0
1020
2020
3020
7B20
7B20
0040
0040
00C0
7F80
FF00
FE00
ENDCHAR
STARTCHAR FB46
ENCODING 64326
SWIDTH 432 0
DWIDTH 12 0
BBX 13 15 0 0
BITMAP
1860
1C78
1E78
0C38
0420
0440
0480
3480
3780
0380
0180
00C0
3FC0
7FC0
FF80
ENDCHAR
STARTCHAR FB47
ENCODING 64327
SWIDTH 432 0
DWIDTH 12 0
BBX 13 19 -1 -5
BITMAP
0C00
0FF8
0FF8
0038
0008
0008
1108
1310
1010
3060
2080
2100
2200
4600
4400
4000
C000
8000
8000
ENDCHAR
STARTCHAR FB48
ENCODING 64328
SWIDTH 432 0
DWIDTH 12 0
BBX 10 15 2 0
BITMAP
4000
FFC0
FFC0
01C0
00C0
00C0
1080
1880
0080
0100
0100
0100
0200
0200
0400
ENDCHAR
STARTCHAR FB49
ENCODING 64329
SWIDTH 612 0
DWIDTH 17 0
BBX 15 15 3 0
BITMAP
C208
E79C
F79E
738E
4204
8208
8410
85A0
89A0
8840
9040
A080
FF80
FF80
FF00
ENDCHAR
STARTCHAR FB4A
ENCODING 64330
SWIDTH 468 0
DWIDTH 13 0
BBX 14 15 -1 0
BITMAP
0400
07F8
0FFC
013C
020C
0408
0808
0988
0988
1810
1010
1010
7020
F020
F020
ENDCHAR
STARTCHAR FB4B
ENCODING 64331
SWIDTH 252 0
DWIDTH 7 0
BBX 5 19 3 0
BITMAP
10
38
10
00
C0
F0
F0
70
30
10
20
20
20
40
40
40
40
80
80
ENDCHAR
STARTCHAR FB4C
ENCODING 64332
SWIDTH 432 0
DWIDTH 12 0
BBX 12 18 0 0
BITMAP
03F0
0000
0000
1800
1FE0
1FE0
00E0
0020
0020
0020
0020
0040
0040
0040
0080
7FE0
FFC0
FF80
ENDCHAR
STARTCHAR FB4D
ENCODING 64333
SWIDTH 396 0
DWIDTH 11 0
BBX 11 18 0 0
BITMAP
03E0
0000
0000
1800
1FC0
1FE0
01E0
0060
0020
0020
0040
0040
0040
0080
0080
7F00
FF00
FC00
ENDCHAR
STARTCHAR FB4E
ENCODING 64334
SWIDTH 432 0
DWIDTH 12 0
BBX 11 18 0 0
BITMAP
03E0
0000
0000
1800
1FC0
1FE0
09E0
1020
2020
3020
7820
7820
0040
0040
00C0
7F80
FF00
FE00
ENDCHAR
STARTCHAR FB4F
ENCODING 64335
SWIDTH 540 0
DWIDTH 15 0
BBX 14 20 1 1
BITMAP
3000
1800
1000
1000
2000
2030
3838
3C3C
1E1C
0E10
0720
0FC0
13C0
31C0
20E0
30E0
3070
7030
7020
F020
ENDCHAR
STARTCHAR FFFC
ENCODING 65532
SWIDTH 1008 0
DWIDTH 28 0
BBX 28 20 0 0
BITMAP
F0F0F1F0
80000030
80000030
80000030
00000000
078F8100
0EEFE100
186C6100
982C6130
983FC130
983FE130
982C2130
182C2100
0EECEB00
078FCE00
00000000
80000030
80000030
80000030
F0F0F1F0
ENDCHAR
ENDFONT
